{
.formatVersion = 3;
axes = (
{
name = Weight;
tag = wght;
}
);
familyName = "Metropolis New";
customParameters = (
{
name = glyphOrder;
value = (
A,
Aacute,
Abreve,
Acircumflex,
Adieresis,
Agrave,
Amacron,
Aogonek,
Aring,
Atilde,
AE,
B,
C,
Cacute,
Ccaron,
Ccedilla,
D,
Eth,
Dcaron,
Dcroat,
E,
Eacute,
Ecaron,
Ecircumflex,
Edieresis,
Edotaccent,
Edotbelow,
Egrave,
Emacron,
Eogonek,
Etilde,
F,
G,
Gbreve,
Gcommaaccent,
H,
I,
Iacute,
Icircumflex,
Idieresis,
Idotaccent,
Igrave,
Imacron,
Iogonek,
J,
K,
Kcommaaccent,
L,
Lacute,
Lcaron,
Lslash,
M,
N,
Nacute,
Ncaron,
Ncommaaccent,
Ntilde,
O,
Oacute,
Ocircumflex,
Odieresis,
Ograve,
Ohungarumlaut,
Omacron,
Oslash,
Otilde,
OE,
P,
Thorn,
Q,
R,
Racute,
Rcaron,
Rcommaaccent,
S,
Sacute,
Scaron,
Scedilla,
T,
Tcaron,
Tcedilla,
U,
Uacute,
Ucircumflex,
Udieresis,
Ugrave,
Uhungarumlaut,
Umacron,
Uogonek,
Uring,
V,
W,
Wacute,
Wcircumflex,
Wdieresis,
Wgrave,
X,
Y,
Yacute,
Ycircumflex,
Ydieresis,
Ygrave,
Z,
Zacute,
Zcaron,
Zdotaccent,
a,
aacute,
abreve,
acircumflex,
adieresis,
agrave,
amacron,
aogonek,
aring,
atilde,
ae,
b,
c,
cacute,
ccaron,
ccedilla,
d,
eth,
dcaron,
dcroat,
e,
eacute,
ecaron,
ecircumflex,
edieresis,
edotaccent,
edotbelow,
egrave,
emacron,
eogonek,
etilde,
f,
g,
gbreve,
gcommaaccent,
h,
i,
dotlessi,
iacute,
icircumflex,
idieresis,
igrave,
imacron,
iogonek,
j,
dotlessj,
k,
kcommaaccent,
l,
lacute,
lcaron,
lslash,
m,
n,
nacute,
ncaron,
ncommaaccent,
ntilde,
o,
oacute,
ocircumflex,
odieresis,
ograve,
ohungarumlaut,
omacron,
oslash,
otilde,
oe,
p,
thorn,
q,
r,
racute,
rcaron,
rcommaaccent,
s,
sacute,
scaron,
scedilla,
germandbls,
t,
tcaron,
tcedilla,
u,
uacute,
ucircumflex,
udieresis,
ugrave,
uhungarumlaut,
umacron,
uogonek,
uring,
v,
w,
wacute,
wcircumflex,
wdieresis,
wgrave,
x,
y,
yacute,
ycircumflex,
ydieresis,
ygrave,
z,
zacute,
zcaron,
zdotaccent,
ae_upper,
k_arms,
thorn_stem,
zero,
one,
two,
three,
four,
five,
six,
seven,
eight,
nine,
period,
comma,
colon,
semicolon,
ellipsis,
exclam,
exclamdown,
question,

glyphs = (
{
color = 1;
glyphname = A;
layers = (
{
guides = (
{
angle = 90;
position = "{401, 0}";
}
);
layerId = "40701DA0-09EF-4B99-B0D1-EC8472DC3E62";
associatedMasterId = "0E22ADE5-BDA2-4C31-BFE7-5758CE7315CD";
name = bubble;
shapes = (
{
closed = 1;
nodes = (
(767,0,l),
(653,687,l),
(114,687,l),
(0,0,l)
);
}
);
width = 767;
},
{
anchors = (
{
name = bottom;
position = "{757, 0}";
},
{
name = top;
position = "{384, 687}";
}
);
guides = (
{
angle = 90;
position = "{384, 0}";
}
);
layerId = "0E22ADE5-BDA2-4C31-BFE7-5758CE7315CD";
shapes = (
{
closed = 1;
nodes = (
(274,687,l),
(538,0,l),
(757,0,l),
(493,687,l)
);
},
{
closed = 1;
nodes = (
(175,87,l),
(594,87,l),
(594,250,l),
(175,250,l)
);
},
{
closed = 1;
nodes = (
(10,0,l),
(229,0,l),
(493,687,l),
(274,687,l)
);
}
);
width = 767;
},
{
guides = (
{
angle = 90;
position = "{421, 0}";
}
);
layerId = "1C1B13CA-6905-46B8-93A6-CEC184E43E2C";
associatedMasterId = "350FB24F-9799-4386-8190-3779153A0BBC";
name = bubble;
shapes = (
{
closed = 1;
nodes = (
(785,0,l),
(657,687,l),
(128,687,l),
(0,0,l)
);
}
);
width = 785;
},
{
anchors = (
{
name = bottom;
position = "{738, 0}";
},
{
name = top;
position = "{393, 687}";
}
);
guides = (
{
angle = 90;
position = "{393, 0}";
}
);
layerId = "350FB24F-9799-4386-8190-3779153A0BBC";
shapes = (
{
closed = 1;
nodes = (
(350,687,l),
(653,0,l),
(738,0,l),
(435,687,l)
);
},
{
closed = 1;
nodes = (
(180,156,l),
(599,156,l),
(599,230,l),
(180,230,l)
);
},
{
closed = 1;
nodes = (
(47,0,l),
(132,0,l),
(435,687,l),
(350,687,l)
);
}
);
width = 785;
},
{
guides = (
{
angle = 90;
position = "{338, 0}";
}
);
layerId = "8CCB427F-D0B4-43D7-A922-FB400ACA0E33";
associatedMasterId = "322D7814-E247-4B41-B6CA-DFE314F8ECB2";
name = bubble;
shapes = (
{
closed = 1;
nodes = (
(794,0,l),
(615,687,l),
(179,687,l),
(0,0,l)
);
}
);
width = 794;
},
{
anchors = (
{
name = bottom;
position = "{720, 0}";
},
{
name = top;
position = "{397, 687}";
}
);
guides = (
{
angle = 90;
position = "{397, 0}";
}
);
layerId = "322D7814-E247-4B41-B6CA-DFE314F8ECB2";
shapes = (
{
closed = 1;
nodes = (
(377,687,l),
(680,0,l),
(720,0,l),
(417,687,l)
);
},
{
closed = 1;
nodes = (
(178,175,l),
(617,175,l),
(617,211,l),
(178,211,l)
);
},
{
closed = 1;
nodes = (
(74,0,l),
(114,0,l),
(417,687,l),
(377,687,l)
);
}
);
width = 794;
}
);
leftKerningGroup = A;
rightKerningGroup = A;
unicode = 65;
},
{
color = 1;
glyphname = AE;
layers = (
{
layerId = "40701DA0-09EF-4B99-B0D1-EC8472DC3E62";
associatedMasterId = "0E22ADE5-BDA2-4C31-BFE7-5758CE7315CD";
name = bubble;
shapes = (
{
closed = 1;
nodes = (
(1135,0,l),
(1135,687,l),
(367,687,l),
(0,0,l)
);
}
);
width = 1135;
},
{
layerId = "0E22ADE5-BDA2-4C31-BFE7-5758CE7315CD";
shapes = (
{
closed = 1;
nodes = (
(231,0,l),
(284,92,l),
(528,92,l),
(528,0,l),
(1081,0,l),
(1081,173,l),
(722,173,l),
(722,264,l),
(1049,264,l),
(1049,437,l),
(722,437,l),
(722,514,l),
(1081,514,l),
(1081,687,l),
(404,687,l),
(7,0,l)
);
},
{
closed = 1;
nodes = (
(528,514,l),
(528,235,l),
(367,235,l)
);
}
);
width = 1135;
},
{
layerId = "1C1B13CA-6905-46B8-93A6-CEC184E43E2C";
associatedMasterId = "350FB24F-9799-4386-8190-3779153A0BBC";
name = bubble;
shapes = (
{
closed = 1;
nodes = (
(1037,0,l),
(1037,687,l),
(353,687,l),
(0,0,l)
);
}
);
width = 1037;
},
{
layerId = "350FB24F-9799-4386-8190-3779153A0BBC";
shapes = (
{
closed = 1;
nodes = (
(136,0,l),
(226,156,l),
(490,156,l),
(490,0,l),
(983,0,l),
(983,74,l),
(569,74,l),
(569,313,l),
(942,313,l),
(942,387,l),
(569,387,l),
(569,613,l),
(983,613,l),
(983,687,l),
(442,687,l),
(46,0,l)
);
},
{
closed = 1;
nodes = (
(490,613,l),
(490,230,l),
(269,230,l)
);
}
);
width = 1037;
},
{
layerId = "8CCB427F-D0B4-43D7-A922-FB400ACA0E33";
associatedMasterId = "322D7814-E247-4B41-B6CA-DFE314F8ECB2";
name = bubble;
shapes = (
{
closed = 1;
nodes = (
(1017,0,l),
(1017,687,l),
(327,687,l),
(0,0,l)
);
}
);
width = 1017;
},
{
layerId = "322D7814-E247-4B41-B6CA-DFE314F8ECB2";
shapes = (
{
closed = 1;
nodes = (
(115,0,l),
(216,175,l),
(490,175,l),
(490,0,l),
(941,0,l),
(941,36,l),
(526,36,l),
(526,332,l),
(910,332,l),
(910,368,l),
(526,368,l),
(526,651,l),
(941,651,l),
(941,687,l),
(470,687,l),
(73,0,l)
);
},
{
closed = 1;
nodes = (
(490,651,l),
(490,211,l),
(237,211,l)
);
}
);
width = 1017;
}
);
leftKerningGroup = A;
rightKerningGroup = E;
unicode = 198;
},
{
color = 1;
glyphname = B;
layers = (
{
layerId = "40701DA0-09EF-4B99-B0D1-EC8472DC3E62";
associatedMasterId = "0E22ADE5-BDA2-4C31-BFE7-5758CE7315CD";
name = bubble;
shapes = (
{
closed = 1;
nodes = (
(450,-24,ls),
(605,-24,o),
(715,62,o),
(715,185,cs),
(715,257,o),
(677,321,o),
(611,362,c),
(657,398,o),
(683,453,o),
(683,514,cs),
(683,629,o),
(579,711,o),
(436,711,cs),
(0,711,l),
(0,-24,l)
);
}
);
width = 715;
},
{
layerId = "0E22ADE5-BDA2-4C31-BFE7-5758CE7315CD";
shapes = (
{
closed = 1;
nodes = (
(450,0,ls),
(590,0,o),
(690,75,o),
(690,185,cs),
(690,261,o),
(643,326,o),
(563,360,c),
(623,389,o),
(658,447,o),
(658,514,cs),
(658,614,o),
(567,687,o),
(436,687,cs),
(66,687,l),
(66,0,l)
);
},
{
closed = 1;
nodes = (
(259,273,l),
(418,273,ls),
(460,273,o),
(490,250,o),
(490,218,cs),
(490,186,o),
(460,163,o),
(418,163,cs),
(259,163,l)
);
},
{
closed = 1;
nodes = (
(259,524,l),
(389,524,ls),
(429,524,o),
(458,502,o),
(458,472,cs),
(458,442,o),
(429,420,o),
(389,420,cs),
(259,420,l)
);
}
);
width = 715;
},
{
layerId = "1C1B13CA-6905-46B8-93A6-CEC184E43E2C";
associatedMasterId = "350FB24F-9799-4386-8190-3779153A0BBC";
name = bubble;
shapes = (
{
closed = 1;
nodes = (
(405,-52,ls),
(553,-52,o),
(661,49,o),
(661,188,cs),
(661,258,o),
(630,320,o),
(574,368,c),
(615,408,o),
(634,456,o),
(634,516,cs),
(634,645,o),
(532,739,o),
(393,739,cs),
(0,739,l),
(0,-52,l)
);
}
);
width = 661;
},
{
layerId = "350FB24F-9799-4386-8190-3779153A0BBC";
shapes = (
{
closed = 1;
nodes = (
(405,0,ls),
(524,0,o),
(609,78,o),
(609,188,cs),
(609,263,o),
(563,325,o),
(484,365,c),
(546,401,o),
(582,443,o),
(582,516,cs),
(582,616,o),
(504,687,o),
(393,687,cs),
(78,687,l),
(78,0,l)
);
},
{
closed = 1;
nodes = (
(156,325,l),
(385,325,ls),
(470,325,o),
(530,272,o),
(530,198,cs),
(530,124,o),
(470,71,o),
(385,71,cs),
(156,71,l)
);
},
{
closed = 1;
nodes = (
(156,616,l),
(373,616,ls),
(449,616,o),
(503,570,o),
(503,506,cs),
(503,442,o),
(449,396,o),
(373,396,cs),
(156,396,l)
);
}
);
width = 661;
},
{
layerId = "8CCB427F-D0B4-43D7-A922-FB400ACA0E33";
associatedMasterId = "322D7814-E247-4B41-B6CA-DFE314F8ECB2";
name = bubble;
shapes = (
{
closed = 1;
nodes = (
(397,-77,ls),
(558,-77,o),
(678,35,o),
(678,188,cs),
(678,255,o),
(651,319,o),
(606,366,c),
(634,408,o),
(651,461,o),
(651,516,cs),
(651,659,o),
(538,764,o),
(385,764,cs),
(0,764,l),
(0,-77,l)
);
}
);
width = 678;
},
{
layerId = "322D7814-E247-4B41-B6CA-DFE314F8ECB2";
shapes = (
{
closed = 1;
nodes = (
(397,0,ls),
(516,0,o),
(601,78,o),
(601,188,cs),
(601,264,o),
(550,335,o),
(478,358,c),
(534,377,o),
(574,443,o),
(574,516,cs),
(574,616,o),
(496,687,o),
(385,687,cs),
(98,687,l),
(98,0,l)
);
},
{
closed = 1;
nodes = (
(134,340,l),
(397,340,ls),
(495,340,o),
(565,277,o),
(565,188,cs),
(565,99,o),
(495,36,o),
(397,36,cs),
(134,36,l)
);
},
{
closed = 1;
nodes = (
(134,651,l),
(385,651,ls),
(475,651,o),
(538,595,o),
(538,516,cs),
(538,434,o),
(480,376,o),
(397,376,cs),
(134,376,l)
);
}
);
width = 678;
}
);
leftKerningGroup = B;
rightKerningGroup = B;
unicode = 66;
},
{
color = 1;
glyphname = C;
layers = (
{
anchors = (
{
name = bottom;
position = "{398, 0}";
},
{
name = top;
position = "{398, 687}";
}
);
layerId = "40701DA0-09EF-4B99-B0D1-EC8472DC3E62";
associatedMasterId = "0E22ADE5-BDA2-4C31-BFE7-5758CE7315CD";
name = bubble;
shapes = (
{
closed = 1;
nodes = (
(508,-36,o),
(614,9,o),
(689,87,c),
(689,601,l),
(614,678,o),
(507,723,o),
(398,723,cs),
(182,723,o),
(0,550,o),
(0,344,cs),
(0,138,o),
(182,-36,o),
(398,-36,cs)
);
}
);
width = 689;
},
{
anchors = (
{
name = bottom;
position = "{398, 0}";
},
{
name = top;
position = "{398, 687}";
}
);
layerId = "0E22ADE5-BDA2-4C31-BFE7-5758CE7315CD";
shapes = (
{
closed = 1;
nodes = (
(508,-12,o),
(608,35,o),
(677,110,c),
(535,234,l),
(502,192,o),
(453,164,o),
(398,164,cs),
(304,164,o),
(224,246,o),
(224,344,cs),
(224,441,o),
(304,523,o),
(398,523,cs),
(452,523,o),
(502,495,o),
(534,453,c),
(677,578,l),
(608,652,o),
(508,699,o),
(398,699,cs),
(195,699,o),
(24,537,o),
(24,344,cs),
(24,151,o),
(195,-12,o),
(398,-12,cs)
);
}
);
width = 689;
},
{
anchors = (
{
name = bottom;
position = "{406, 0}";
},
{
name = top;
position = "{406, 687}";
}
);
layerId = "1C1B13CA-6905-46B8-93A6-CEC184E43E2C";
associatedMasterId = "350FB24F-9799-4386-8190-3779153A0BBC";
name = bubble;
shapes = (
{
closed = 1;
nodes = (
(515,-66,o),
(623,-18,o),
(701,64,c),
(700,623,l),
(623,705,o),
(515,753,o),
(406,753,cs),
(185,753,o),
(0,566,o),
(0,344,cs),
(0,122,o),
(186,-66,o),
(406,-66,cs)
);
}
);
width = 701;
},
{
anchors = (
{
name = bottom;
position = "{406, 0}";
},
{
name = top;
position = "{406, 687}";
}
);
layerId = "350FB24F-9799-4386-8190-3779153A0BBC";
shapes = (
{
closed = 1;
nodes = (
(501,-12,o),
(589,29,o),
(653,93,c),
(600,147,l),
(550,94,o),
(481,60,o),
(406,60,cs),
(258,60,o),
(133,190,o),
(133,344,cs),
(133,497,o),
(258,627,o),
(406,627,cs),
(481,627,o),
(550,593,o),
(600,540,c),
(653,594,l),
(589,659,o),
(501,699,o),
(406,699,cs),
(216,699,o),
(54,537,o),
(54,344,cs),
(54,151,o),
(216,-12,o),
(406,-12,cs)
);
}
);
width = 701;
},
{
anchors = (
{
name = bottom;
position = "{431, 0}";
},
{
name = top;
position = "{431, 687}";
}
);
layerId = "8CCB427F-D0B4-43D7-A922-FB400ACA0E33";
associatedMasterId = "322D7814-E247-4B41-B6CA-DFE314F8ECB2";
name = bubble;
shapes = (
{
closed = 1;
nodes = (
(552,-91,o),
(668,-37,o),
(752,55,c),
(752,630,l),
(671,724,o),
(554,778,o),
(431,778,cs),
(196,778,o),
(0,580,o),
(0,344,cs),
(0,107,o),
(196,-91,o),
(431,-91,cs)
);
}
);
width = 752;
},
{
anchors = (
{
name = bottom;
position = "{431, 0}";
},
{
name = top;
position = "{431, 687}";
}
);
layerId = "322D7814-E247-4B41-B6CA-DFE314F8ECB2";
shapes = (
{
closed = 1;
nodes = (
(526,-12,o),
(614,29,o),
(678,93,c),
(652,119,l),
(595,60,o),
(516,24,o),
(431,24,cs),
(259,24,o),
(115,170,o),
(115,344,cs),
(115,517,o),
(259,663,o),
(431,663,cs),
(516,663,o),
(595,627,o),
(652,569,c),
(678,594,l),
(614,659,o),
(526,699,o),
(431,699,cs),
(240,699,o),
(79,537,o),
(79,344,cs),
(79,151,o),
(240,-12,o),
(431,-12,cs)
);
}
);
width = 752;
}
);
leftKerningGroup = C;
rightKerningGroup = C;
unicode = 67;
},
{
color = 1;
glyphname = D;
layers = (
{
anchors = (
{
name = top;
position = "{322, 687}";
}
);
layerId = "40701DA0-09EF-4B99-B0D1-EC8472DC3E62";
associatedMasterId = "0E22ADE5-BDA2-4C31-BFE7-5758CE7315CD";
name = bubble;
shapes = (
{
closed = 1;
nodes = (
(322,-24,ls),
(575,-24,o),
(756,129,o),
(756,344,cs),
(756,559,o),
(575,711,o),
(322,711,cs),
(0,711,l),
(0,-24,l)
);
}
);
width = 756;
},
{
anchors = (
{
name = top;
position = "{322, 687}";
}
);
layerId = "0E22ADE5-BDA2-4C31-BFE7-5758CE7315CD";
shapes = (
{
closed = 1;
nodes = (
(322,0,ls),
(562,0,o),
(732,143,o),
(732,344,cs),
(732,545,o),
(562,687,o),
(322,687,cs),
(66,687,l),
(66,0,l)
);
},
{
closed = 1;
nodes = (
(260,511,l),
(354,511,ls),
(458,511,o),
(532,442,o),
(532,344,cs),
(532,246,o),
(458,176,o),
(354,176,cs),
(260,176,l)
);
}
);
width = 756;
},
{
anchors = (
{
name = top;
position = "{310, 687}";
}
);
layerId = "1C1B13CA-6905-46B8-93A6-CEC184E43E2C";
associatedMasterId = "350FB24F-9799-4386-8190-3779153A0BBC";
name = bubble;
shapes = (
{
closed = 1;
nodes = (
(310,-54,ls),
(557,-54,o),
(736,113,o),
(736,344,cs),
(736,575,o),
(557,741,o),
(310,741,cs),
(0,741,l),
(0,-54,l)
);
}
);
width = 736;
},
{
anchors = (
{
name = top;
position = "{310, 687}";
}
);
layerId = "350FB24F-9799-4386-8190-3779153A0BBC";
shapes = (
{
closed = 1;
nodes = (
(310,0,ls),
(528,0,o),
(682,143,o),
(682,344,cs),
(682,545,o),
(528,687,o),
(310,687,cs),
(78,687,l),
(78,0,l)
);
},
{
closed = 1;
nodes = (
(156,616,l),
(310,616,ls),
(482,616,o),
(603,503,o),
(603,344,cs),
(603,184,o),
(482,71,o),
(310,71,cs),
(156,71,l)
);
}
);
width = 736;
},
{
anchors = (
{
name = top;
position = "{333, 687}";
}
);
layerId = "8CCB427F-D0B4-43D7-A922-FB400ACA0E33";
associatedMasterId = "322D7814-E247-4B41-B6CA-DFE314F8ECB2";
name = bubble;
shapes = (
{
closed = 1;
nodes = (
(333,-79,ls),
(582,-79,o),
(764,99,o),
(764,344,cs),
(764,589,o),
(583,766,o),
(333,766,cs),
(0,766,l),
(0,-79,l)
);
}
);
width = 764;
},
{
anchors = (
{
name = top;
position = "{333, 687}";
}
);
layerId = "322D7814-E247-4B41-B6CA-DFE314F8ECB2";
shapes = (
{
closed = 1;
nodes = (
(333,0,ls),
(539,0,o),
(685,143,o),
(685,344,cs),
(685,545,o),
(539,687,o),
(333,687,cs),
(98,687,l),
(98,0,l)
);
},
{
closed = 1;
nodes = (
(134,651,l),
(333,651,ls),
(518,651,o),
(649,524,o),
(649,344,cs),
(649,164,o),
(518,36,o),
(333,36,cs),
(134,36,l)
);
}
);
width = 764;
}
);
leftKerningGroup = D;
rightKerningGroup = D;
unicode = 68;
},
{
color = 1;
glyphname = Eth;
layers = (
{
anchors = (
{
name = top;
position = "{360, 687}";
}
);
layerId = "40701DA0-09EF-4B99-B0D1-EC8472DC3E62";
associatedMasterId = "0E22ADE5-BDA2-4C31-BFE7-5758CE7315CD";
name = bubble;
shapes = (
{
closed = 1;
nodes = (
(360,-24,ls),
(613,-24,o),
(794,129,o),
(794,344,cs),
(794,559,o),
(613,711,o),
(360,711,cs),
(0,711,l),
(0,-24,l)
);
}
);
width = 794;
},
{
layerId = "0E22ADE5-BDA2-4C31-BFE7-5758CE7315CD";
shapes = (
{
closed = 1;
nodes = (
(360,0,ls),
(600,0,o),
(770,143,o),
(770,344,cs),
(770,545,o),
(600,687,o),
(360,687,cs),
(104,687,l),
(104,0,l)
);
},
{
closed = 1;
nodes = (
(298,511,l),
(392,511,ls),
(496,511,o),
(570,442,o),
(570,344,cs),
(570,246,o),
(496,176,o),
(392,176,cs),
(298,176,l)
);
},
{
closed = 1;
nodes = (
(418,258,l),
(419,431,l),
(20,431,l),
(20,258,l)
);
}
);
width = 794;
},
{
anchors = (
{
name = top;
position = "{334, 687}";
}
);
layerId = "1C1B13CA-6905-46B8-93A6-CEC184E43E2C";
associatedMasterId = "350FB24F-9799-4386-8190-3779153A0BBC";
name = bubble;
shapes = (
{
closed = 1;
nodes = (
(334,-54,ls),
(581,-54,o),
(760,113,o),
(760,344,cs),
(760,575,o),
(581,741,o),
(334,741,cs),
(0,741,l),
(0,-54,l)
);
}
);
width = 760;
},
{
layerId = "350FB24F-9799-4386-8190-3779153A0BBC";
shapes = (
{
closed = 1;
nodes = (
(334,0,ls),
(552,0,o),
(706,143,o),
(706,344,cs),
(706,545,o),
(552,687,o),
(334,687,cs),
(102,687,l),
(102,0,l)
);
},
{
closed = 1;
nodes = (
(180,616,l),
(334,616,ls),
(506,616,o),
(627,503,o),
(627,344,cs),
(627,184,o),
(506,71,o),
(334,71,cs),
(180,71,l)
);
},
{
closed = 1;
nodes = (
(397,313,l),
(398,387,l),
(49,387,l),
(49,313,l)
);
}
);
width = 760;
},
{
layerId = "8CCB427F-D0B4-43D7-A922-FB400ACA0E33";
associatedMasterId = "322D7814-E247-4B41-B6CA-DFE314F8ECB2";
name = bubble;
shapes = (
{
closed = 1;
nodes = (
(397,-79,ls),
(646,-79,o),
(828,99,o),
(828,344,cs),
(828,589,o),
(647,766,o),
(397,766,cs),
(0,766,l),
(0,-79,l)
);
}
);
width = 828;
},
{
layerId = "322D7814-E247-4B41-B6CA-DFE314F8ECB2";
shapes = (
{
closed = 1;
nodes = (
(397,0,ls),
(603,0,o),
(749,143,o),
(749,344,cs),
(749,545,o),
(603,687,o),
(397,687,cs),
(162,687,l),
(162,0,l)
);
},
{
closed = 1;
nodes = (
(198,651,l),
(397,651,ls),
(582,651,o),
(713,524,o),
(713,344,cs),
(713,164,o),
(582,36,o),
(397,36,cs),
(198,36,l)
);
},
{
closed = 1;
nodes = (
(422,332,l),
(423,368,l),
(74,368,l),
(74,332,l)
);
}
);
width = 828;
}
);
leftKerningGroup = Eth;
rightKerningGroup = D;
unicode = 208;
},
{
color = 1;
glyphname = E;
layers = (
{
layerId = "40701DA0-09EF-4B99-B0D1-EC8472DC3E62";
associatedMasterId = "0E22ADE5-BDA2-4C31-BFE7-5758CE7315CD";
name = bubble;
shapes = (
{
closed = 1;
nodes = (
(673,0,l),
(673,687,l),
(0,687,l),
(0,0,l)
);
}
);
width = 673;
},
{
anchors = (
{
name = ae_upper;
position = "{66, 687}";
},
{
name = bottom;
position = "{619, 0}";
},
{
name = top;
position = "{343, 687}";
}
);
layerId = "0E22ADE5-BDA2-4C31-BFE7-5758CE7315CD";
shapes = (
{
closed = 1;
nodes = (
(619,0,l),
(619,173,l),
(165,173,l),
(260,54,l),
(260,333,l),
(165,264,l),
(587,264,l),
(587,437,l),
(165,437,l),
(260,367,l),
(260,633,l),
(165,514,l),
(619,514,l),
(619,687,l),
(66,687,l),
(66,0,l)
);
}
);
width = 673;
},
{
layerId = "1C1B13CA-6905-46B8-93A6-CEC184E43E2C";
associatedMasterId = "350FB24F-9799-4386-8190-3779153A0BBC";
name = bubble;
shapes = (
{
closed = 1;
nodes = (
(625,0,l),
(625,687,l),
(0,687,l),
(0,0,l)
);
}
);
width = 625;
},
{
anchors = (
{
name = ae_upper;
position = "{78, 687}";
},
{
name = bottom;
position = "{571, 0}";
},
{
name = top;
position = "{325, 687}";
}
);
layerId = "350FB24F-9799-4386-8190-3779153A0BBC";
shapes = (
{
closed = 1;
nodes = (
(571,0,l),
(571,74,l),
(137,74,l),
(157,54,l),
(157,333,l),
(137,313,l),
(530,313,l),
(530,387,l),
(137,387,l),
(157,367,l),
(157,633,l),
(137,613,l),
(571,613,l),
(571,687,l),
(78,687,l),
(78,0,l)
);
}
);
width = 625;
},
{
layerId = "8CCB427F-D0B4-43D7-A922-FB400ACA0E33";
associatedMasterId = "322D7814-E247-4B41-B6CA-DFE314F8ECB2";
name = bubble;
shapes = (
{
closed = 1;
nodes = (
(625,0,l),
(625,687,l),
(0,687,l),
(0,0,l)
);
}
);
width = 625;
},
{
anchors = (
{
name = ae_upper;
position = "{98, 687}";
},
{
name = bottom;
position = "{549, 0}";
},
{
name = top;
position = "{324, 687}";
}
);
layerId = "322D7814-E247-4B41-B6CA-DFE314F8ECB2";
shapes = (
{
closed = 1;
nodes = (
(549,0,l),
(549,36,l),
(125,36,l),
(134,26,l),
(134,342,l),
(125,332,l),
(518,332,l),
(518,368,l),
(125,368,l),
(134,358,l),
(134,661,l),
(125,651,l),
(549,651,l),
(549,687,l),
(98,687,l),
(98,0,l)
);
}
);
width = 625;
}
);
leftKerningGroup = E;
rightKerningGroup = E;
unicode = 69;
},
{
color = 1;
glyphname = F;
layers = (
{
layerId = "40701DA0-09EF-4B99-B0D1-EC8472DC3E62";
associatedMasterId = "0E22ADE5-BDA2-4C31-BFE7-5758CE7315CD";
name = bubble;
shapes = (
{
closed = 1;
nodes = (
(326,0,l),
(326,184,l),
(651,184,l),
(651,687,l),
(0,687,l),
(0,0,l)
);
}
);
width = 651;
},
{
layerId = "0E22ADE5-BDA2-4C31-BFE7-5758CE7315CD";
shapes = (
{
closed = 1;
nodes = (
(260,0,l),
(260,313,l),
(165,244,l),
(587,244,l),
(587,417,l),
(165,417,l),
(260,347,l),
(260,633,l),
(165,514,l),
(619,514,l),
(619,687,l),
(66,687,l),
(66,0,l)
);
}
);
width = 651;
},
{
layerId = "1C1B13CA-6905-46B8-93A6-CEC184E43E2C";
associatedMasterId = "350FB24F-9799-4386-8190-3779153A0BBC";
name = bubble;
shapes = (
{
closed = 1;
nodes = (
(235,0,l),
(235,238,l),
(620,238,l),
(620,687,l),
(0,687,l),
(0,0,l)
);
}
);
width = 620;
},
{
layerId = "350FB24F-9799-4386-8190-3779153A0BBC";
shapes = (
{
closed = 1;
nodes = (
(157,0,l),
(157,333,l),
(137,313,l),
(530,313,l),
(530,387,l),
(137,387,l),
(157,367,l),
(157,633,l),
(137,613,l),
(571,613,l),
(571,687,l),
(78,687,l),
(78,0,l)
);
}
);
width = 620;
},
{
layerId = "8CCB427F-D0B4-43D7-A922-FB400ACA0E33";
associatedMasterId = "322D7814-E247-4B41-B6CA-DFE314F8ECB2";
name = bubble;
shapes = (
{
closed = 1;
nodes = (
(232,0,l),
(232,232,l),
(643,232,l),
(643,687,l),
(0,687,l),
(0,0,l)
);
}
);
width = 643;
},
{
layerId = "322D7814-E247-4B41-B6CA-DFE314F8ECB2";
shapes = (
{
closed = 1;
nodes = (
(134,0,l),
(134,342,l),
(124,332,l),
(528,332,l),
(528,368,l),
(124,368,l),
(134,358,l),
(134,661,l),
(124,651,l),
(569,651,l),
(569,687,l),
(98,687,l),
(98,0,l)
);
}
);
width = 643;
}
);
leftKerningGroup = F;
rightKerningGroup = F;
unicode = 70;
},
{
color = 1;
glyphname = G;
layers = (
{
anchors = (
{
name = bottom;
position = "{403, 0}";
},
{
name = top;
position = "{403, 687}";
}
);
layerId = "40701DA0-09EF-4B99-B0D1-EC8472DC3E62";
associatedMasterId = "0E22ADE5-BDA2-4C31-BFE7-5758CE7315CD";
name = bubble;
shapes = (
{
closed = 1;
nodes = (
(0,135,o),
(181,-36,o),
(403,-36,cs),
(528,-36,o),
(651,22,o),
(725,117,c),
(725,571,l),
(650,666,o),
(527,723,o),
(403,723,cs),
(182,723,o),
(0,552,o),
(0,344,cs)
);
}
);
width = 725;
},
{
anchors = (
{
name = bottom;
position = "{403, 0}";
},
{
name = top;
position = "{403, 687}";
}
);
layerId = "0E22ADE5-BDA2-4C31-BFE7-5758CE7315CD";
shapes = (
{
closed = 1;
nodes = (
(511,-12,o),
(616,33,o),
(687,110,c),
(545,234,l),
(510,190,o),
(458,164,o),
(403,164,cs),
(305,164,o),
(224,245,o),
(224,344,cs),
(224,442,o),
(305,523,o),
(403,523,cs),
(458,523,o),
(510,497,o),
(544,453,c),
(687,578,l),
(616,654,o),
(511,699,o),
(403,699,cs),
(195,699,o),
(24,539,o),
(24,344,cs),
(24,148,o),
(195,-12,o),
(403,-12,cs)
);
},
{
closed = 1;
nodes = (
(687,110,l),
(687,402,l),
(365,402,l),
(365,259,l),
(528,259,l),
(499,288,l),
(499,110,l)
);
}
);
width = 725;
},
{
anchors = (
{
name = bottom;
position = "{406, 0}";
},
{
name = top;
position = "{406, 687}";
}
);
layerId = "1C1B13CA-6905-46B8-93A6-CEC184E43E2C";
associatedMasterId = "350FB24F-9799-4386-8190-3779153A0BBC";
name = bubble;
shapes = (
{
closed = 1;
nodes = (
(0,122,o),
(186,-66,o),
(406,-66,cs),
(529,-66,o),
(666,-7,o),
(733,79,c),
(733,607,l),
(666,694,o),
(530,753,o),
(406,753,cs),
(185,753,o),
(0,566,o),
(0,344,cs)
);
}
);
width = 733;
},
{
anchors = (
{
name = bottom;
position = "{406, 0}";
},
{
name = top;
position = "{406, 687}";
}
);
layerId = "350FB24F-9799-4386-8190-3779153A0BBC";
shapes = (
{
closed = 1;
nodes = (
(501,-12,o),
(609,29,o),
(673,93,c),
(620,147,l),
(570,94,o),
(481,60,o),
(406,60,cs),
(258,60,o),
(133,190,o),
(133,344,cs),
(133,497,o),
(258,627,o),
(406,627,cs),
(481,627,o),
(570,593,o),
(620,540,c),
(673,594,l),
(609,659,o),
(501,699,o),
(406,699,cs),
(216,699,o),
(54,537,o),
(54,344,cs),
(54,151,o),
(216,-12,o),
(406,-12,cs)
);
},
{
closed = 1;
nodes = (
(673,93,l),
(673,362,l),
(398,362,l),
(398,288,l),
(627,288,l),
(595,329,l),
(595,93,l)
);
}
);
width = 733;
},
{
anchors = (
{
name = bottom;
position = "{431, 0}";
},
{
name = top;
position = "{431, 687}";
}
);
layerId = "8CCB427F-D0B4-43D7-A922-FB400ACA0E33";
associatedMasterId = "322D7814-E247-4B41-B6CA-DFE314F8ECB2";
name = bubble;
shapes = (
{
closed = 1;
nodes = (
(0,108,o),
(197,-91,o),
(431,-91,cs),
(564,-91,o),
(690,-35,o),
(779,63,c),
(779,625,l),
(690,723,o),
(564,778,o),
(431,778,cs),
(197,778,o),
(0,579,o),
(0,344,cs)
);
}
);
width = 779;
},
{
anchors = (
{
name = bottom;
position = "{431, 0}";
},
{
name = top;
position = "{431, 687}";
}
);
layerId = "322D7814-E247-4B41-B6CA-DFE314F8ECB2";
shapes = (
{
closed = 1;
nodes = (
(533,-12,o),
(627,28,o),
(696,91,c),
(671,116,l),
(608,59,o),
(523,24,o),
(431,24,cs),
(260,24,o),
(115,171,o),
(115,344,cs),
(115,516,o),
(260,663,o),
(431,663,cs),
(523,663,o),
(608,628,o),
(670,571,c),
(696,597,l),
(627,660,o),
(533,699,o),
(431,699,cs),
(241,699,o),
(79,536,o),
(79,344,cs),
(79,152,o),
(241,-12,o),
(431,-12,cs)
);
},
{
closed = 1;
nodes = (
(696,91,l),
(696,341,l),
(421,341,l),
(421,305,l),
(675,305,l),
(660,325,l),
(660,91,l)
);
}
);
width = 779;
}
);
leftKerningGroup = G;
rightKerningGroup = G;
unicode = 71;
},
{
color = 1;
glyphname = H;
layers = (
{
layerId = "40701DA0-09EF-4B99-B0D1-EC8472DC3E62";
associatedMasterId = "0E22ADE5-BDA2-4C31-BFE7-5758CE7315CD";
name = bubble;
shapes = (
{
closed = 1;
nodes = (
(771,0,l),
(771,687,l),
(0,687,l),
(0,0,l)
);
}
);
width = 771;
},
{
layerId = "0E22ADE5-BDA2-4C31-BFE7-5758CE7315CD";
shapes = (
{
closed = 1;
nodes = (
(260,0,l),
(260,315,l),
(213,264,l),
(557,264,l),
(511,315,l),
(511,0,l),
(705,0,l),
(705,687,l),
(511,687,l),
(511,385,l),
(559,437,l),
(213,437,l),
(260,385,l),
(260,687,l),
(66,687,l),
(66,0,l)
);
}
);
width = 771;
},
{
layerId = "1C1B13CA-6905-46B8-93A6-CEC184E43E2C";
associatedMasterId = "350FB24F-9799-4386-8190-3779153A0BBC";
name = bubble;
shapes = (
{
closed = 1;
nodes = (
(717,0,l),
(717,687,l),
(0,687,l),
(0,0,l)
);
}
);
width = 717;
},
{
layerId = "350FB24F-9799-4386-8190-3779153A0BBC";
shapes = (
{
closed = 1;
nodes = (
(156,0,l),
(156,335,l),
(134,313,l),
(582,313,l),
(561,335,l),
(561,0,l),
(639,0,l),
(639,687,l),
(561,687,l),
(561,365,l),
(583,387,l),
(134,387,l),
(156,365,l),
(156,687,l),
(78,687,l),
(78,0,l)
);
}
);
width = 717;
},
{
layerId = "8CCB427F-D0B4-43D7-A922-FB400ACA0E33";
associatedMasterId = "322D7814-E247-4B41-B6CA-DFE314F8ECB2";
name = bubble;
shapes = (
{
closed = 1;
nodes = (
(715,0,l),
(715,687,l),
(0,687,l),
(0,0,l)
);
}
);
width = 715;
},
{
layerId = "322D7814-E247-4B41-B6CA-DFE314F8ECB2";
shapes = (
{
closed = 1;
nodes = (
(134,0,l),
(134,343,l),
(133,332,l),
(581,332,l),
(581,343,l),
(581,0,l),
(617,0,l),
(617,687,l),
(581,687,l),
(581,357,l),
(582,368,l),
(133,368,l),
(134,357,l),
(134,687,l),
(98,687,l),
(98,0,l)
);
}
);
width = 715;
}
);
leftKerningGroup = H;
rightKerningGroup = H;
unicode = 72;
},
{
color = 1;
glyphname = I;
layers = (
{
anchors = (
{
name = bottom;
position = "{260, 0}";
},
{
name = top;
position = "{163, 687}";
}
);
layerId = "40701DA0-09EF-4B99-B0D1-EC8472DC3E62";
associatedMasterId = "0E22ADE5-BDA2-4C31-BFE7-5758CE7315CD";
name = bubble;
shapes = (
{
closed = 1;
nodes = (
(326,0,l),
(326,687,l),
(0,687,l),
(0,0,l)
);
}
);
width = 326;
},
{
anchors = (
{
name = bottom;
position = "{260, 0}";
},
{
name = top;
position = "{163, 687}";
}
);
layerId = "0E22ADE5-BDA2-4C31-BFE7-5758CE7315CD";
shapes = (
{
closed = 1;
nodes = (
(260,0,l),
(260,687,l),
(66,687,l),
(66,0,l)
);
}
);
width = 326;
},
{
anchors = (
{
name = bottom;
position = "{156, 0}";
},
{
name = top;
position = "{117, 687}";
}
);
layerId = "1C1B13CA-6905-46B8-93A6-CEC184E43E2C";
associatedMasterId = "350FB24F-9799-4386-8190-3779153A0BBC";
name = bubble;
shapes = (
{
closed = 1;
nodes = (
(234,0,l),
(234,687,l),
(0,687,l),
(0,0,l)
);
}
);
width = 234;
},
{
anchors = (
{
name = bottom;
position = "{156, 0}";
},
{
name = top;
position = "{117, 687}";
}
);
layerId = "350FB24F-9799-4386-8190-3779153A0BBC";
shapes = (
{
closed = 1;
nodes = (
(156,0,l),
(156,687,l),
(78,687,l),
(78,0,l)
);
}
);
width = 234;
},
{
anchors = (
{
name = bottom;
position = "{134, 0}";
},
{
name = top;
position = "{116, 687}";
}
);
layerId = "8CCB427F-D0B4-43D7-A922-FB400ACA0E33";
associatedMasterId = "322D7814-E247-4B41-B6CA-DFE314F8ECB2";
name = bubble;
shapes = (
{
closed = 1;
nodes = (
(232,0,l),
(232,687,l),
(0,687,l),
(0,0,l)
);
}
);
width = 232;
},
{
anchors = (
{
name = bottom;
position = "{134, 0}";
},
{
name = top;
position = "{116, 687}";
}
);
layerId = "322D7814-E247-4B41-B6CA-DFE314F8ECB2";
shapes = (
{
closed = 1;
nodes = (
(134,0,l),
(134,687,l),
(98,687,l),
(98,0,l)
);
}
);
width = 232;
}
);
leftKerningGroup = I;
rightKerningGroup = I;
unicode = 73;
},
{
color = 1;
glyphname = J;
layers = (
{
layerId = "40701DA0-09EF-4B99-B0D1-EC8472DC3E62";
associatedMasterId = "0E22ADE5-BDA2-4C31-BFE7-5758CE7315CD";
name = bubble;
shapes = (
{
closed = 1;
nodes = (
(-34,64,l),
(26,-12,o),
(140,-65,o),
(247,-65,cs),
(422,-65,o),
(549,56,o),
(549,224,cs),
(549,687,l),
(249,687,l),
(249,244,ls),
(249,227,o),
(234,217,o),
(216,217,cs),
(197,217,o),
(178,239,o),
(169,264,c)
);
}
);
width = 549;
},
{
layerId = "0E22ADE5-BDA2-4C31-BFE7-5758CE7315CD";
shapes = (
{
closed = 1;
nodes = (
(393,-12,o),
(496,86,o),
(496,224,cs),
(496,687,l),
(302,687,l),
(302,244,ls),
(302,197,o),
(268,164,o),
(221,164,cs),
(186,164,o),
(148,189,o),
(129,224,c),
(4,102,l),
(53,35,o),
(154,-12,o),
(247,-12,cs)
);
}
);
width = 549;
},
{
layerId = "1C1B13CA-6905-46B8-93A6-CEC184E43E2C";
associatedMasterId = "350FB24F-9799-4386-8190-3779153A0BBC";
name = bubble;
shapes = (
{
closed = 1;
nodes = (
(424,-83,o),
(545,47,o),
(545,224,cs),
(545,687,l),
(325,687,l),
(325,224,ls),
(325,166,o),
(287,130,o),
(247,130,cs),
(203,130,o),
(164,168,o),
(159,213,c),
(-6,52,l),
(51,-29,o),
(157,-83,o),
(257,-83,cs)
);
}
);
width = 545;
},
{
layerId = "350FB24F-9799-4386-8190-3779153A0BBC";
shapes = (
{
closed = 1;
nodes = (
(384,-12,o),
(474,86,o),
(474,224,cs),
(474,687,l),
(396,687,l),
(396,224,ls),
(396,127,o),
(338,59,o),
(257,59,cs),
(194,59,o),
(130,100,o),
(103,158,c),
(46,102,l),
(88,35,o),
(176,-12,o),
(257,-12,cs)
);
}
);
width = 545;
},
{
layerId = "8CCB427F-D0B4-43D7-A922-FB400ACA0E33";
associatedMasterId = "322D7814-E247-4B41-B6CA-DFE314F8ECB2";
name = bubble;
shapes = (
{
closed = 1;
nodes = (
(448,-105,o),
(574,31,o),
(574,214,cs),
(574,687,l),
(352,687,l),
(352,214,ls),
(352,153,o),
(321,117,o),
(275,117,cs),
(230,117,o),
(179,154,o),
(161,212,c),
(14,25,l),
(77,-55,o),
(174,-105,o),
(275,-105,cs)
);
}
);
width = 574;
},
{
layerId = "322D7814-E247-4B41-B6CA-DFE314F8ECB2";
shapes = (
{
closed = 1;
nodes = (
(396,-12,o),
(481,82,o),
(481,214,cs),
(481,687,l),
(445,687,l),
(445,214,ls),
(445,103,o),
(375,24,o),
(275,24,cs),
(203,24,o),
(135,68,o),
(96,130,c),
(74,102,l),
(116,35,o),
(193,-12,o),
(275,-12,cs)
);
}
);
width = 574;
}
);
leftKerningGroup = J;
rightKerningGroup = J;
unicode = 74;
},
{
color = 1;
glyphname = K;
layers = (
{
anchors = (
{
name = bottom;
position = "{403, 0}";
}
);
layerId = "40701DA0-09EF-4B99-B0D1-EC8472DC3E62";
associatedMasterId = "0E22ADE5-BDA2-4C31-BFE7-5758CE7315CD";
name = bubble;
shapes = (
{
closed = 1;
nodes = (
(750,0,l),
(666,410,l),
(750,687,l),
(0,687,l),
(0,0,l)
);
}
);
width = 750;
},
{
anchors = (
{
name = bottom;
position = "{403, 0}";
}
);
layerId = "0E22ADE5-BDA2-4C31-BFE7-5758CE7315CD";
shapes = (
{
closed = 1;
nodes = (
(260,0,l),
(260,182,l),
(331,260,l),
(508,0,l),
(740,0,l),
(466,400,l),
(720,687,l),
(491,687,l),
(260,416,l),
(260,687,l),
(66,687,l),
(66,0,l)
);
}
);
width = 750;
},
{
anchors = (
{
name = bottom;
position = "{352, 0}";
}
);
layerId = "1C1B13CA-6905-46B8-93A6-CEC184E43E2C";
associatedMasterId = "350FB24F-9799-4386-8190-3779153A0BBC";
name = bubble;
shapes = (
{
closed = 1;
nodes = (
(672,0,l),
(581,395,l),
(672,687,l),
(0,687,l),
(0,0,l)
);
}
);
width = 672;
},
{
anchors = (
{
name = bottom;
position = "{352, 0}";
}
);
layerId = "350FB24F-9799-4386-8190-3779153A0BBC";
shapes = (
{
closed = 1;
nodes = (
(156,0,l),
(156,206,l),
(264,320,l),
(525,0,l),
(626,0,l),
(318,373,l),
(607,687,l),
(504,687,l),
(156,307,l),
(156,687,l),
(78,687,l),
(78,0,l)
);
}
);
width = 672;
},
{
anchors = (
{
name = bottom;
position = "{348, 0}";
}
);
layerId = "8CCB427F-D0B4-43D7-A922-FB400ACA0E33";
associatedMasterId = "322D7814-E247-4B41-B6CA-DFE314F8ECB2";
name = bubble;
shapes = (
{
closed = 1;
nodes = (
(671,0,l),
(573,411,l),
(671,687,l),
(0,687,l),
(0,0,l)
);
}
);
width = 671;
},
{
anchors = (
{
name = bottom;
position = "{348, 0}";
}
);
layerId = "322D7814-E247-4B41-B6CA-DFE314F8ECB2";
shapes = (
{
closed = 1;
nodes = (
(134,0,l),
(134,205,l),
(266,349,l),
(552,0,l),
(598,0,l),
(291,376,l),
(576,687,l),
(528,687,l),
(134,257,l),
(134,687,l),
(98,687,l),
(98,0,l)
);
}
);
width = 671;
}
);
leftKerningGroup = K;
rightKerningGroup = K;
unicode = 75;
},
{
color = 1;
glyphname = L;
layers = (
{
layerId = "40701DA0-09EF-4B99-B0D1-EC8472DC3E62";
associatedMasterId = "0E22ADE5-BDA2-4C31-BFE7-5758CE7315CD";
name = bubble;
shapes = (
{
closed = 1;
nodes = (
(600,0,l),
(600,233,l),
(326,233,l),
(326,687,l),
(0,687,l),
(0,0,l)
);
}
);
width = 600;
},
{
anchors = (
{
name = top;
position = "{162, 687}";
}
);
layerId = "0E22ADE5-BDA2-4C31-BFE7-5758CE7315CD";
shapes = (
{
closed = 1;
nodes = (
(580,0,l),
(580,173,l),
(203,173,l),
(260,117,l),
(260,687,l),
(66,687,l),
(66,0,l)
);
}
);
width = 600;
},
{
anchors = (
{
name = top;
position = "{120, 687}";
}
);
layerId = "1C1B13CA-6905-46B8-93A6-CEC184E43E2C";
associatedMasterId = "350FB24F-9799-4386-8190-3779153A0BBC";
name = bubble;
shapes = (
{
closed = 1;
nodes = (
(580,0,l),
(580,149,l),
(234,149,l),
(234,687,l),
(0,687,l),
(0,0,l)
);
}
);
width = 580;
},
{
anchors = (
{
name = top;
position = "{120, 687}";
}
);
layerId = "350FB24F-9799-4386-8190-3779153A0BBC";
shapes = (
{
closed = 1;
nodes = (
(531,0,l),
(531,74,l),
(133,74,l),
(156,50,l),
(156,687,l),
(78,687,l),
(78,0,l)
);
}
);
width = 580;
},
{
anchors = (
{
name = top;
position = "{116, 687}";
}
);
layerId = "8CCB427F-D0B4-43D7-A922-FB400ACA0E33";
associatedMasterId = "322D7814-E247-4B41-B6CA-DFE314F8ECB2";
name = bubble;
shapes = (
{
closed = 1;
nodes = (
(604,0,l),
(604,136,l),
(232,136,l),
(232,687,l),
(0,687,l),
(0,0,l)
);
}
);
width = 604;
},
{
anchors = (
{
name = top;
position = "{116, 687}";
}
);
layerId = "322D7814-E247-4B41-B6CA-DFE314F8ECB2";
shapes = (
{
closed = 1;
nodes = (
(530,0,l),
(530,36,l),
(123,36,l),
(134,24,l),
(134,687,l),
(98,687,l),
(98,0,l)
);
}
);
width = 604;
}
);
leftKerningGroup = L;
rightKerningGroup = L;
unicode = 76;
},
{
color = 1;
glyphname = Lslash;
layers = (
{
anchors = (
{
name = top;
position = "{199, 687}";
}
);
layerId = "40701DA0-09EF-4B99-B0D1-EC8472DC3E62";
associatedMasterId = "0E22ADE5-BDA2-4C31-BFE7-5758CE7315CD";
name = bubble;
shapes = (
{
closed = 1;
nodes = (
(0,0,l),
(637,0,l),
(637,226,l),
(350,226,l),
(350,282,l),
(385,299,l),
(385,584,l),
(350,567,l),
(350,687,l),
(0,687,l)
);
}
);
width = 637;
},
{
anchors = (
{
name = top;
position = "{199, 687}";
}
);
layerId = "0E22ADE5-BDA2-4C31-BFE7-5758CE7315CD";
shapes = (
{
closed = 1;
nodes = (
(385,358,l),
(385,525,l),
(19,345,l),
(19,178,l)
);
},
{
closed = 1;
nodes = (
(617,0,l),
(617,173,l),
(240,173,l),
(297,117,l),
(297,687,l),
(103,687,l),
(103,0,l)
);
}
);
width = 637;
},
{
anchors = (
{
name = top;
position = "{202, 687}";
}
);
layerId = "1C1B13CA-6905-46B8-93A6-CEC184E43E2C";
associatedMasterId = "350FB24F-9799-4386-8190-3779153A0BBC";
name = bubble;
shapes = (
{
closed = 1;
nodes = (
(0,0,l),
(662,0,l),
(662,145,l),
(309,145,l),
(309,288,l),
(348,308,l),
(348,542,l),
(309,522,l),
(309,687,l),
(0,687,l)
);
}
);
width = 662;
},
{
anchors = (
{
name = top;
position = "{202, 687}";
}
);
layerId = "350FB24F-9799-4386-8190-3779153A0BBC";
shapes = (
{
closed = 1;
nodes = (
(348,388,l),
(348,463,l),
(49,309,l),
(49,234,l)
);
},
{
closed = 1;
nodes = (
(613,0,l),
(613,74,l),
(215,74,l),
(238,50,l),
(238,687,l),
(160,687,l),
(160,0,l)
);
}
);
width = 662;
},
{
anchors = (
{
name = top;
position = "{223, 687}";
}
);
layerId = "8CCB427F-D0B4-43D7-A922-FB400ACA0E33";
associatedMasterId = "322D7814-E247-4B41-B6CA-DFE314F8ECB2";
name = bubble;
shapes = (
{
closed = 1;
nodes = (
(0,0,l),
(711,0,l),
(711,129,l),
(334,129,l),
(334,281,l),
(373,301,l),
(373,552,l),
(334,532,l),
(334,687,l),
(0,687,l)
);
}
);
width = 711;
},
{
anchors = (
{
name = top;
position = "{223, 687}";
}
);
layerId = "322D7814-E247-4B41-B6CA-DFE314F8ECB2";
shapes = (
{
closed = 1;
nodes = (
(373,406,l),
(373,447,l),
(74,293,l),
(74,252,l)
);
},
{
closed = 1;
nodes = (
(637,0,l),
(637,36,l),
(230,36,l),
(241,24,l),
(241,687,l),
(205,687,l),
(205,0,l)
);
}
);
width = 711;
}
);
leftKerningGroup = Lslash;
rightKerningGroup = Lslash;
unicode = 321;
},
{
color = 1;
glyphname = M;
layers = (
{
layerId = "40701DA0-09EF-4B99-B0D1-EC8472DC3E62";
associatedMasterId = "0E22ADE5-BDA2-4C31-BFE7-5758CE7315CD";
name = bubble;
shapes = (
{
closed = 1;
nodes = (
(888,0,l),
(888,687,l),
(0,687,l),
(0,0,l)
);
}
);
width = 888;
},
{
layerId = "0E22ADE5-BDA2-4C31-BFE7-5758CE7315CD";
shapes = (
{
closed = 1;
nodes = (
(260,0,l),
(260,368,l),
(444,40,l),
(628,368,l),
(628,0,l),
(822,0,l),
(822,687,l),
(628,687,l),
(444,359,l),
(260,687,l),
(66,687,l),
(66,0,l)
);
}
);
width = 888;
},
{
layerId = "1C1B13CA-6905-46B8-93A6-CEC184E43E2C";
associatedMasterId = "350FB24F-9799-4386-8190-3779153A0BBC";
name = bubble;
shapes = (
{
closed = 1;
nodes = (
(822,0,l),
(822,687,l),
(0,687,l),
(0,0,l)
);
}
);
width = 822;
},
{
layerId = "350FB24F-9799-4386-8190-3779153A0BBC";
shapes = (
{
closed = 1;
nodes = (
(156,0,l),
(156,519,l),
(411,40,l),
(666,519,l),
(666,0,l),
(744,0,l),
(744,687,l),
(666,687,l),
(411,208,l),
(156,687,l),
(78,687,l),
(78,0,l)
);
}
);
width = 822;
},
{
layerId = "8CCB427F-D0B4-43D7-A922-FB400ACA0E33";
associatedMasterId = "322D7814-E247-4B41-B6CA-DFE314F8ECB2";
name = bubble;
shapes = (
{
closed = 1;
nodes = (
(820,0,l),
(820,687,l),
(0,687,l),
(0,0,l)
);
}
);
width = 820;
},
{
layerId = "322D7814-E247-4B41-B6CA-DFE314F8ECB2";
shapes = (
{
closed = 1;
nodes = (
(134,0,l),
(134,615,l),
(410,96,l),
(686,615,l),
(686,0,l),
(722,0,l),
(722,687,l),
(686,687,l),
(410,168,l),
(134,687,l),
(98,687,l),
(98,0,l)
);
}
);
width = 820;
}
);
leftKerningGroup = M;
rightKerningGroup = M;
unicode = 77;
},
{
color = 1;
glyphname = N;
layers = (
{
layerId = "40701DA0-09EF-4B99-B0D1-EC8472DC3E62";
associatedMasterId = "0E22ADE5-BDA2-4C31-BFE7-5758CE7315CD";
name = bubble;
shapes = (
{
closed = 1;
nodes = (
(788,0,l),
(788,687,l),
(0,687,l),
(0,0,l)
);
}
);
width = 788;
},
{
anchors = (
{
name = bottom;
position = "{394, 0}";
},
{
name = top;
position = "{394, 687}";
}
);
layerId = "0E22ADE5-BDA2-4C31-BFE7-5758CE7315CD";
shapes = (
{
closed = 1;
nodes = (
(260,0,l),
(260,368,l),
(528,0,l),
(722,0,l),
(722,687,l),
(528,687,l),
(528,319,l),
(260,687,l),
(66,687,l),
(66,0,l)
);
}
);
width = 788;
},
{
layerId = "1C1B13CA-6905-46B8-93A6-CEC184E43E2C";
associatedMasterId = "350FB24F-9799-4386-8190-3779153A0BBC";
name = bubble;
shapes = (
{
closed = 1;
nodes = (
(738,0,l),
(738,687,l),
(0,687,l),
(0,0,l)
);
}
);
width = 738;
},
{
anchors = (
{
name = bottom;
position = "{369, 0}";
},
{
name = top;
position = "{369, 687}";
}
);
layerId = "350FB24F-9799-4386-8190-3779153A0BBC";
shapes = (
{
closed = 1;
nodes = (
(156,0,l),
(156,559,l),
(582,0,l),
(660,0,l),
(660,687,l),
(582,687,l),
(582,128,l),
(156,687,l),
(78,687,l),
(78,0,l)
);
}
);
width = 738;
},
{
anchors = (
{
name = bottom;
position = "{368, 0}";
},
{
name = top;
position = "{368, 687}";
}
);
layerId = "8CCB427F-D0B4-43D7-A922-FB400ACA0E33";
associatedMasterId = "322D7814-E247-4B41-B6CA-DFE314F8ECB2";
name = bubble;
shapes = (
{
closed = 1;
nodes = (
(736,0,l),
(736,687,l),
(0,687,l),
(0,0,l)
);
}
);
width = 736;
},
{
anchors = (
{
name = bottom;
position = "{368, 0}";
},
{
name = top;
position = "{368, 687}";
}
);
layerId = "322D7814-E247-4B41-B6CA-DFE314F8ECB2";
shapes = (
{
closed = 1;
nodes = (
(134,0,l),
(134,631,l),
(602,0,l),
(638,0,l),
(638,687,l),
(602,687,l),
(602,56,l),
(134,687,l),
(98,687,l),
(98,0,l)
);
}
);
width = 736;
}
);
leftKerningGroup = N;
rightKerningGroup = N;
unicode = 78;
},
{
color = 1;
glyphname = O;
layers = (
{
anchors = (
{
name = top;
position = "{398, 687}";
}
);
layerId = "40701DA0-09EF-4B99-B0D1-EC8472DC3E62";
associatedMasterId = "0E22ADE5-BDA2-4C31-BFE7-5758CE7315CD";
name = bubble;
shapes = (
{
closed = 1;
nodes = (
(614,-36,o),
(796,138,o),
(796,344,cs),
(796,550,o),
(614,723,o),
(398,723,cs),
(182,723,o),
(0,550,o),
(0,344,cs),
(0,138,o),
(182,-36,o),
(398,-36,cs)
);
}
);
width = 796;
},
{
anchors = (
{
name = top;
position = "{398, 687}";
}
);
layerId = "0E22ADE5-BDA2-4C31-BFE7-5758CE7315CD";
shapes = (
{
closed = 1;
nodes = (
(601,-12,o),
(772,151,o),
(772,344,cs),
(772,537,o),
(601,699,o),
(398,699,cs),
(195,699,o),
(24,537,o),
(24,344,cs),
(24,151,o),
(195,-12,o),
(398,-12,cs)
);
},
{
closed = 1;
nodes = (
(304,164,o),
(224,246,o),
(224,344,cs),
(224,441,o),
(304,523,o),
(398,523,cs),
(492,523,o),
(572,441,o),
(572,344,cs),
(572,246,o),
(492,164,o),
(398,164,cs)
);
}
);
width = 796;
},
{
anchors = (
{
name = top;
position = "{406, 687}";
}
);
layerId = "1C1B13CA-6905-46B8-93A6-CEC184E43E2C";
associatedMasterId = "350FB24F-9799-4386-8190-3779153A0BBC";
name = bubble;
shapes = (
{
closed = 1;
nodes = (
(626,-66,o),
(811,121,o),
(811,344,cs),
(811,567,o),
(627,753,o),
(406,753,cs),
(185,753,o),
(0,566,o),
(0,344,cs),
(0,122,o),
(186,-66,o),
(406,-66,cs)
);
}
);
width = 811;
},
{
anchors = (
{
name = top;
position = "{406, 687}";
}
);
layerId = "350FB24F-9799-4386-8190-3779153A0BBC";
shapes = (
{
closed = 1;
nodes = (
(597,-12,o),
(757,151,o),
(757,344,cs),
(757,537,o),
(597,699,o),
(406,699,cs),
(216,699,o),
(54,537,o),
(54,344,cs),
(54,151,o),
(216,-12,o),
(406,-12,cs)
);
},
{
closed = 1;
nodes = (
(258,60,o),
(133,190,o),
(133,344,cs),
(133,497,o),
(258,627,o),
(406,627,cs),
(554,627,o),
(678,497,o),
(678,344,cs),
(678,190,o),
(554,60,o),
(406,60,cs)
);
}
);
width = 811;
},
{
anchors = (
{
name = top;
position = "{431, 687}";
}
);
layerId = "8CCB427F-D0B4-43D7-A922-FB400ACA0E33";
associatedMasterId = "322D7814-E247-4B41-B6CA-DFE314F8ECB2";
name = bubble;
shapes = (
{
closed = 1;
nodes = (
(665,-91,o),
(861,107,o),
(861,344,cs),
(861,581,o),
(666,778,o),
(431,778,cs),
(196,778,o),
(0,580,o),
(0,344,cs),
(0,107,o),
(196,-91,o),
(431,-91,cs)
);
}
);
width = 861;
},
{
anchors = (
{
name = top;
position = "{431, 687}";
}
);
layerId = "322D7814-E247-4B41-B6CA-DFE314F8ECB2";
shapes = (
{
closed = 1;
nodes = (
(621,-12,o),
(782,152,o),
(782,344,cs),
(782,536,o),
(621,699,o),
(431,699,cs),
(241,699,o),
(79,536,o),
(79,344,cs),
(79,152,o),
(241,-12,o),
(431,-12,cs)
);
},
{
closed = 1;
nodes = (
(260,24,o),
(115,171,o),
(115,344,cs),
(115,516,o),
(260,663,o),
(431,663,cs),
(601,663,o),
(746,516,o),
(746,344,cs),
(746,171,o),
(601,24,o),
(431,24,cs)
);
}
);
width = 861;
}
);
leftKerningGroup = O;
rightKerningGroup = O;
unicode = 79;
},
{
color = 1;
glyphname = Oslash;
layers = (
{
anchors = (
{
name = top;
position = "{405, 687}";
}
);
layerId = "40701DA0-09EF-4B99-B0D1-EC8472DC3E62";
associatedMasterId = "0E22ADE5-BDA2-4C31-BFE7-5758CE7315CD";
name = bubble;
shapes = (
{
closed = 1;
nodes = (
(225,0,l),
(279,-27,o),
(341,-42,o),
(405,-42,cs),
(624,-42,o),
(808,134,o),
(808,344,cs),
(808,434,o),
(775,518,o),
(718,585,c),
(803,687,l),
(586,687,l),
(531,714,o),
(470,729,o),
(405,729,cs),
(185,729,o),
(1,553,o),
(1,344,cs),
(1,257,o),
(33,175,o),
(86,110,c),
(0,0,l)
);
}
);
width = 808;
},
{
anchors = (
{
name = top;
position = "{405, 687}";
}
);
layerId = "0E22ADE5-BDA2-4C31-BFE7-5758CE7315CD";
shapes = (
{
closed = 1;
nodes = (
(608,-12,o),
(779,151,o),
(779,344,cs),
(779,537,o),
(608,699,o),
(405,699,cs),
(202,699,o),
(31,537,o),
(31,344,cs),
(31,151,o),
(202,-12,o),
(405,-12,cs)
);
},
{
closed = 1;
nodes = (
(311,164,o),
(231,246,o),
(231,344,cs),
(231,441,o),
(311,523,o),
(405,523,cs),
(499,523,o),
(579,441,o),
(579,344,cs),
(579,246,o),
(499,164,o),
(405,164,cs)
);
},
{
closed = 1;
nodes = (
(194,0,l),
(764,687,l),
(604,687,l),
(34,0,l)
);
}
);
width = 808;
},
{
anchors = (
{
name = top;
position = "{407, 687}";
}
);
layerId = "1C1B13CA-6905-46B8-93A6-CEC184E43E2C";
associatedMasterId = "350FB24F-9799-4386-8190-3779153A0BBC";
name = bubble;
shapes = (
{
closed = 1;
nodes = (
(188,0,l),
(252,-42,o),
(327,-67,o),
(407,-67,cs),
(628,-67,o),
(812,121,o),
(812,344,cs),
(812,434,o),
(783,519,o),
(732,587,c),
(812,687,l),
(627,687,l),
(564,729,o),
(488,754,o),
(407,754,cs),
(186,754,o),
(0,567,o),
(0,344,cs),
(0,256,o),
(29,173,o),
(79,105,c),
(0,0,l)
);
}
);
width = 812;
},
{
anchors = (
{
name = top;
position = "{407, 687}";
}
);
layerId = "350FB24F-9799-4386-8190-3779153A0BBC";
shapes = (
{
closed = 1;
nodes = (
(598,-12,o),
(758,151,o),
(758,344,cs),
(758,537,o),
(598,699,o),
(407,699,cs),
(217,699,o),
(55,537,o),
(55,344,cs),
(55,151,o),
(217,-12,o),
(407,-12,cs)
);
},
{
closed = 1;
nodes = (
(259,60,o),
(134,190,o),
(134,344,cs),
(134,497,o),
(259,627,o),
(407,627,cs),
(555,627,o),
(679,497,o),
(679,344,cs),
(679,190,o),
(555,60,o),
(407,60,cs)
);
},
{
closed = 1;
nodes = (
(145,0,l),
(746,687,l),
(661,687,l),
(60,0,l)
);
}
);
width = 812;
},
{
anchors = (
{
name = top;
position = "{431, 687}";
}
);
layerId = "8CCB427F-D0B4-43D7-A922-FB400ACA0E33";
associatedMasterId = "322D7814-E247-4B41-B6CA-DFE314F8ECB2";
name = bubble;
shapes = (
{
closed = 1;
nodes = (
(170,0,l),
(243,-57,o),
(333,-91,o),
(431,-91,cs),
(665,-91,o),
(861,107,o),
(861,344,cs),
(861,439,o),
(830,527,o),
(778,599,c),
(855,687,l),
(692,687,l),
(620,744,o),
(529,778,o),
(431,778,cs),
(196,778,o),
(0,580,o),
(0,344,cs),
(0,252,o),
(29,166,o),
(79,95,c),
(0,0,l)
);
}
);
width = 861;
},
{
anchors = (
{
name = top;
position = "{431, 687}";
}
);
layerId = "322D7814-E247-4B41-B6CA-DFE314F8ECB2";
shapes = (
{
closed = 1;
nodes = (
(622,-12,o),
(782,151,o),
(782,344,cs),
(782,537,o),
(622,699,o),
(431,699,cs),
(240,699,o),
(79,537,o),
(79,344,cs),
(79,151,o),
(240,-12,o),
(431,-12,cs)
);
},
{
closed = 1;
nodes = (
(259,24,o),
(115,170,o),
(115,344,cs),
(115,517,o),
(259,663,o),
(431,663,cs),
(602,663,o),
(746,517,o),
(746,344,cs),
(746,170,o),
(602,24,o),
(431,24,cs)
);
},
{
closed = 1;
nodes = (
(149,0,l),
(750,687,l),
(702,687,l),
(101,0,l)
);
}
);
width = 861;
}
);
leftKerningGroup = Oslash;
rightKerningGroup = Oslash;
unicode = 216;
},
{
color = 1;
glyphname = OE;
layers = (
{
layerId = "40701DA0-09EF-4B99-B0D1-EC8472DC3E62";
associatedMasterId = "0E22ADE5-BDA2-4C31-BFE7-5758CE7315CD";
name = bubble;
shapes = (
{
closed = 1;
nodes = (
(0,141,o),
(178,-23,o),
(397,-23,cs),
(1051,-23,l),
(1051,710,l),
(397,710,ls),
(178,710,o),
(0,547,o),
(0,344,cs)
);
}
);
width = 1051;
},
{
layerId = "0E22ADE5-BDA2-4C31-BFE7-5758CE7315CD";
shapes = (
{
closed = 1;
nodes = (
(23,151,o),
(194,0,o),
(397,0,cs),
(997,0,l),
(997,173,l),
(638,173,l),
(638,264,l),
(965,264,l),
(965,437,l),
(638,437,l),
(638,514,l),
(997,514,l),
(997,687,l),
(397,687,ls),
(194,687,o),
(23,537,o),
(23,344,cs)
);
},
{
closed = 1;
nodes = (
(223,441,o),
(303,511,o),
(397,511,cs),
(444,511,l),
(444,176,l),
(397,176,ls),
(303,176,o),
(223,246,o),
(223,344,cs)
);
}
);
width = 1051;
},
{
layerId = "1C1B13CA-6905-46B8-93A6-CEC184E43E2C";
associatedMasterId = "350FB24F-9799-4386-8190-3779153A0BBC";
name = bubble;
shapes = (
{
closed = 1;
nodes = (
(0,117,o),
(180,-54,o),
(406,-54,cs),
(1033,-54,l),
(1033,741,l),
(406,741,ls),
(185,741,o),
(0,556,o),
(0,334,cs)
);
}
);
width = 1033;
},
{
layerId = "350FB24F-9799-4386-8190-3779153A0BBC";
shapes = (
{
closed = 1;
nodes = (
(54,141,o),
(216,0,o),
(406,0,cs),
(979,0,l),
(979,74,l),
(565,74,l),
(565,313,l),
(938,313,l),
(938,387,l),
(565,387,l),
(565,613,l),
(979,613,l),
(979,687,l),
(406,687,ls),
(216,687,o),
(54,527,o),
(54,334,cs)
);
},
{
closed = 1;
nodes = (
(133,487,o),
(258,615,o),
(406,615,cs),
(486,615,l),
(486,72,l),
(406,72,ls),
(258,72,o),
(133,180,o),
(133,334,cs)
);
}
);
width = 1033;
},
{
layerId = "8CCB427F-D0B4-43D7-A922-FB400ACA0E33";
associatedMasterId = "322D7814-E247-4B41-B6CA-DFE314F8ECB2";
name = bubble;
shapes = (
{
closed = 1;
nodes = (
(0,110,o),
(193,-79,o),
(431,-79,cs),
(1038,-79,l),
(1038,766,l),
(431,766,ls),
(193,766,o),
(0,577,o),
(0,344,cs)
);
}
);
width = 1038;
},
{
layerId = "322D7814-E247-4B41-B6CA-DFE314F8ECB2";
shapes = (
{
closed = 1;
nodes = (
(79,151,o),
(240,0,o),
(431,0,cs),
(962,0,l),
(962,36,l),
(547,36,l),
(547,332,l),
(931,332,l),
(931,368,l),
(547,368,l),
(547,651,l),
(962,651,l),
(962,687,l),
(431,687,ls),
(240,687,o),
(79,537,o),
(79,344,cs)
);
},
{
closed = 1;
nodes = (
(115,517,o),
(259,651,o),
(431,651,cs),
(511,651,l),
(511,36,l),
(431,36,ls),
(259,36,o),
(115,170,o),
(115,344,cs)
);
}
);
width = 1038;
}
);
leftKerningGroup = O;
rightKerningGroup = E;
unicode = 338;
},
{
color = 1;
glyphname = P;
layers = (
{
layerId = "40701DA0-09EF-4B99-B0D1-EC8472DC3E62";
associatedMasterId = "0E22ADE5-BDA2-4C31-BFE7-5758CE7315CD";
name = bubble;
shapes = (
{
closed = 1;
nodes = (
(280,0,l),
(280,187,l),
(395,187,ls),
(560,187,o),
(678,295,o),
(678,447,cs),
(678,599,o),
(560,707,o),
(395,707,cs),
(0,707,l),
(0,0,l)
);
}
);
width = 678;
},
{
layerId = "0E22ADE5-BDA2-4C31-BFE7-5758CE7315CD";
shapes = (
{
closed = 1;
nodes = (
(260,0,l),
(260,207,l),
(395,207,ls),
(549,207,o),
(658,306,o),
(658,447,cs),
(658,588,o),
(549,687,o),
(395,687,cs),
(66,687,l),
(66,0,l)
);
},
{
closed = 1;
nodes = (
(260,511,l),
(379,511,ls),
(425,511,o),
(458,484,o),
(458,447,cs),
(458,410,o),
(425,383,o),
(379,383,cs),
(260,383,l)
);
}
);
width = 678;
},
{
layerId = "1C1B13CA-6905-46B8-93A6-CEC184E43E2C";
associatedMasterId = "350FB24F-9799-4386-8190-3779153A0BBC";
name = bubble;
shapes = (
{
closed = 1;
nodes = (
(208,0,l),
(208,195,l),
(357,195,ls),
(531,195,o),
(662,311,o),
(662,467,cs),
(662,623,o),
(531,739,o),
(357,739,cs),
(0,739,l),
(0,0,l)
);
}
);
width = 662;
},
{
layerId = "350FB24F-9799-4386-8190-3779153A0BBC";
shapes = (
{
closed = 1;
nodes = (
(156,0,l),
(156,247,l),
(357,247,ls),
(499,247,o),
(610,338,o),
(610,467,cs),
(610,596,o),
(499,687,o),
(357,687,cs),
(78,687,l),
(78,0,l)
);
},
{
closed = 1;
nodes = (
(156,613,l),
(343,613,ls),
(455,613,o),
(531,559,o),
(531,467,cs),
(531,375,o),
(455,321,o),
(343,321,cs),
(156,321,l)
);
}
);
width = 662;
},
{
layerId = "8CCB427F-D0B4-43D7-A922-FB400ACA0E33";
associatedMasterId = "322D7814-E247-4B41-B6CA-DFE314F8ECB2";
name = bubble;
shapes = (
{
closed = 1;
nodes = (
(211,0,l),
(211,190,l),
(387,190,ls),
(568,190,o),
(702,311,o),
(702,477,cs),
(702,643,o),
(568,764,o),
(387,764,cs),
(0,764,l),
(0,0,l)
);
}
);
width = 702;
},
{
layerId = "322D7814-E247-4B41-B6CA-DFE314F8ECB2";
shapes = (
{
closed = 1;
nodes = (
(134,0,l),
(134,267,l),
(387,267,ls),
(526,267,o),
(625,354,o),
(625,477,cs),
(625,600,o),
(526,687,o),
(387,687,cs),
(98,687,l),
(98,0,l)
);
},
{
closed = 1;
nodes = (
(134,651,l),
(380,651,ls),
(502,651,o),
(589,579,o),
(589,477,cs),
(589,375,o),
(502,303,o),
(380,303,cs),
(134,303,l)
);
}
);
width = 702;
}
);
leftKerningGroup = P;
rightKerningGroup = P;
unicode = 80;
},
{
color = 1;
glyphname = Thorn;
layers = (
{
layerId = "40701DA0-09EF-4B99-B0D1-EC8472DC3E62";
associatedMasterId = "0E22ADE5-BDA2-4C31-BFE7-5758CE7315CD";
name = bubble;
shapes = (
{
closed = 1;
nodes = (
(280,0,l),
(280,85,l),
(395,85,ls),
(560,85,o),
(678,193,o),
(678,345,cs),
(678,497,o),
(560,605,o),
(395,605,cs),
(275,605,l),
(275,687,l),
(0,687,l),
(0,0,l)
);
}
);
width = 678;
},
{
layerId = "0E22ADE5-BDA2-4C31-BFE7-5758CE7315CD";
shapes = (
{
closed = 1;
nodes = (
(260,0,l),
(260,105,l),
(395,105,ls),
(549,105,o),
(658,204,o),
(658,345,cs),
(658,486,o),
(549,585,o),
(395,585,cs),
(255,585,l),
(255,687,l),
(66,687,l),
(66,0,l)
);
},
{
closed = 1;
nodes = (
(260,409,l),
(379,409,ls),
(425,409,o),
(458,382,o),
(458,345,cs),
(458,308,o),
(425,281,o),
(379,281,cs),
(260,281,l)
);
}
);
width = 678;
},
{
layerId = "1C1B13CA-6905-46B8-93A6-CEC184E43E2C";
associatedMasterId = "350FB24F-9799-4386-8190-3779153A0BBC";
name = bubble;
shapes = (
{
closed = 1;
nodes = (
(208,0,l),
(208,74,l),
(357,74,ls),
(531,74,o),
(662,190,o),
(662,346,cs),
(662,502,o),
(531,618,o),
(357,618,cs),
(210,618,l),
(210,687,l),
(0,687,l),
(0,0,l)
);
}
);
width = 662;
},
{
layerId = "350FB24F-9799-4386-8190-3779153A0BBC";
shapes = (
{
closed = 1;
nodes = (
(156,0,l),
(156,126,l),
(357,126,ls),
(499,126,o),
(610,217,o),
(610,346,cs),
(610,475,o),
(499,566,o),
(357,566,cs),
(158,566,l),
(158,687,l),
(78,687,l),
(78,0,l)
);
},
{
closed = 1;
nodes = (
(156,492,l),
(343,492,ls),
(455,492,o),
(531,438,o),
(531,346,cs),
(531,254,o),
(455,200,o),
(343,200,cs),
(156,200,l)
);
}
);
width = 662;
},
{
layerId = "8CCB427F-D0B4-43D7-A922-FB400ACA0E33";
associatedMasterId = "322D7814-E247-4B41-B6CA-DFE314F8ECB2";
name = bubble;
shapes = (
{
closed = 1;
nodes = (
(211,0,l),
(211,59,l),
(387,59,ls),
(568,59,o),
(702,180,o),
(702,346,cs),
(702,512,o),
(568,633,o),
(387,633,cs),
(211,633,l),
(211,687,l),
(0,687,l),
(0,0,l)
);
}
);
width = 702;
},
{
layerId = "322D7814-E247-4B41-B6CA-DFE314F8ECB2";
shapes = (
{
closed = 1;
nodes = (
(134,0,l),
(134,136,l),
(387,136,ls),
(526,136,o),
(625,223,o),
(625,346,cs),
(625,469,o),
(526,556,o),
(387,556,cs),
(134,556,l),
(134,687,l),
(98,687,l),
(98,0,l)
);
},
{
closed = 1;
nodes = (
(134,520,l),
(380,520,ls),
(502,520,o),
(589,448,o),
(589,346,cs),
(589,244,o),
(502,172,o),
(380,172,cs),
(134,172,l)
);
}
);
width = 702;
}
);
leftKerningGroup = Thorn;
rightKerningGroup = Thorn;
unicode = 222;
},
{
color = 1;
glyphname = Q;
layers = (
{
anchors = (
{
name = top;
position = "{398, 687}";
}
);
layerId = "40701DA0-09EF-4B99-B0D1-EC8472DC3E62";
associatedMasterId = "0E22ADE5-BDA2-4C31-BFE7-5758CE7315CD";
name = bubble;
shapes = (
{
closed = 1;
nodes = (
(0,134,o),
(179,-42,o),
(398,-42,cs),
(475,-42,o),
(547,-21,o),
(609,16,c),
(654,-23,l),
(784,128,l),
(750,157,l),
(783,213,o),
(802,277,o),
(802,344,cs),
(802,553,o),
(618,729,o),
(398,729,cs),
(178,729,o),
(0,553,o),
(0,344,cs)
);
}
);
width = 802;
},
{
anchors = (
{
name = top;
position = "{398, 687}";
}
);
layerId = "0E22ADE5-BDA2-4C31-BFE7-5758CE7315CD";
shapes = (
{
closed = 1;
nodes = (
(764,106,l),
(495,340,l),
(404,234,l),
(673,0,l)
);
},
{
closed = 1;
nodes = (
(601,-12,o),
(772,151,o),
(772,344,cs),
(772,537,o),
(601,699,o),
(398,699,cs),
(195,699,o),
(24,537,o),
(24,344,cs),
(24,151,o),
(195,-12,o),
(398,-12,cs)
);
},
{
closed = 1;
nodes = (
(304,164,o),
(224,246,o),
(224,344,cs),
(224,441,o),
(304,523,o),
(398,523,cs),
(492,523,o),
(572,441,o),
(572,344,cs),
(572,246,o),
(492,164,o),
(398,164,cs)
);
}
);
width = 802;
},
{
anchors = (
{
name = top;
position = "{406, 687}";
}
);
layerId = "1C1B13CA-6905-46B8-93A6-CEC184E43E2C";
associatedMasterId = "350FB24F-9799-4386-8190-3779153A0BBC";
name = bubble;
shapes = (
{
closed = 1;
nodes = (
(0,122,o),
(186,-66,o),
(406,-66,cs),
(485,-66,o),
(559,-42,o),
(622,-1,c),
(668,-41,l),
(788,99,l),
(751,131,l),
(789,194,o),
(812,267,o),
(812,344,cs),
(812,567,o),
(627,753,o),
(406,753,cs),
(185,753,o),
(0,566,o),
(0,344,cs)
);
}
);
width = 812;
},
{
anchors = (
{
name = top;
position = "{406, 687}";
}
);
layerId = "350FB24F-9799-4386-8190-3779153A0BBC";
shapes = (
{
closed = 1;
nodes = (
(753,58,l),
(509,270,l),
(459,212,l),
(703,0,l)
);
},
{
closed = 1;
nodes = (
(597,-12,o),
(757,151,o),
(757,344,cs),
(757,537,o),
(597,699,o),
(406,699,cs),
(216,699,o),
(54,537,o),
(54,344,cs),
(54,151,o),
(216,-12,o),
(406,-12,cs)
);
},
{
closed = 1;
nodes = (
(258,60,o),
(133,190,o),
(133,344,cs),
(133,497,o),
(258,627,o),
(406,627,cs),
(554,627,o),
(678,497,o),
(678,344,cs),
(678,190,o),
(554,60,o),
(406,60,cs)
);
}
);
width = 812;
},
{
anchors = (
{
name = top;
position = "{431, 687}";
}
);
layerId = "8CCB427F-D0B4-43D7-A922-FB400ACA0E33";
associatedMasterId = "322D7814-E247-4B41-B6CA-DFE314F8ECB2";
name = bubble;
shapes = (
{
closed = 1;
nodes = (
(0,107,o),
(196,-91,o),
(431,-91,cs),
(507,-91,o),
(580,-70,o),
(642,-33,c),
(672,-59,l),
(801,85,l),
(785,99,l),
(833,169,o),
(861,254,o),
(861,344,cs),
(861,581,o),
(666,778,o),
(431,778,cs),
(196,778,o),
(0,580,o),
(0,344,cs)
);
}
);
width = 861;
},
{
anchors = (
{
name = top;
position = "{431, 687}";
}
);
layerId = "322D7814-E247-4B41-B6CA-DFE314F8ECB2";
shapes = (
{
closed = 1;
nodes = (
(749,27,l),
(506,237,l),
(483,210,l),
(725,0,l)
);
},
{
closed = 1;
nodes = (
(622,-12,o),
(782,151,o),
(782,344,cs),
(782,537,o),
(622,699,o),
(431,699,cs),
(240,699,o),
(79,537,o),
(79,344,cs),
(79,151,o),
(240,-12,o),
(431,-12,cs)
);
},
{
closed = 1;
nodes = (
(259,24,o),
(115,170,o),
(115,344,cs),
(115,517,o),
(259,663,o),
(431,663,cs),
(602,663,o),
(746,517,o),
(746,344,cs),
(746,170,o),
(602,24,o),
(431,24,cs)
);
}
);
width = 861;
}
);
leftKerningGroup = Q;
rightKerningGroup = Q;
unicode = 81;
},
{
glyphname = R;
layers = (
{
hints = (
{
horizontal = 1;
place = (0,21);
target = up;
type = BottomGhost;
},
{
horizontal = 1;
place = (207,176);
type = Stem;
},
{
horizontal = 1;
place = (511,176);
type = Stem;
},
{
place = (60,194);
type = Stem;
},
{
place = (452,200);
type = Stem;
}
);
layerId = "0E22ADE5-BDA2-4C31-BFE7-5758CE7315CD";
shapes = (
{
closed = 1;
nodes = (
(60,0,l),
(254,0,l),
(254,207,l),
(314,207,l),
(459,0,l),
(680,0,l),
(516,233,l),
(602,274,o),
(652,351,o),
(652,447,cs),
(652,599,o),
(533,687,o),
(389,687,cs),
(60,687,l)
);
},
{
closed = 1;
nodes = (
(254,383,l),
(254,511,l),
(373,511,ls),
(411,511,o),
(452,490,o),
(452,447,cs),
(452,404,o),
(411,383,o),
(373,383,cs)
);
}
);
width = 697;
},
{
hints = (
{
horizontal = 1;
place = (0,21);
target = up;
type = BottomGhost;
},
{
horizontal = 1;
place = (247,74);
type = Stem;
},
{
horizontal = 1;
place = (613,74);
type = Stem;
},
{
place = (79,78);
type = Stem;
},
{
place = (532,79);
type = Stem;
}
);
layerId = "350FB24F-9799-4386-8190-3779153A0BBC";
shapes = (
{
closed = 1;
nodes = (
(79,0,l),
(157,0,l),
(157,247,l),
(339,247,l),
(513,0,l),
(602,0,l),
(424,254,l),
(529,277,o),
(611,355,o),
(611,467,cs),
(611,608,o),
(489,687,o),
(358,687,cs),
(79,687,l)
);
},
{
closed = 1;
nodes = (
(157,321,l),
(157,613,l),
(344,613,ls),
(437,613,o),
(532,574,o),
(532,467,cs),
(532,360,o),
(437,321,o),
(344,321,cs)
);
}
);
width = 650;
},
{
hints = (
{
horizontal = 1;
place = (0,21);
target = up;
type = BottomGhost;
},
{
horizontal = 1;
place = (267,36);
type = Stem;
},
{
horizontal = 1;
place = (651,36);
type = Stem;
},
{
place = (79,36);
type = Stem;
},
{
place = (570,36);
type = Stem;
}
);
layerId = "322D7814-E247-4B41-B6CA-DFE314F8ECB2";
shapes = (
{
closed = 1;
nodes = (
(79,0,l),
(115,0,l),
(115,267,l),
(351,267,l),
(538,0,l),
(582,0,l),
(394,268,l),
(511,278,o),
(606,354,o),
(606,477,cs),
(606,612,o),
(494,687,o),
(368,687,cs),
(79,687,l)
);
},
{
closed = 1;
nodes = (
(115,303,l),
(115,651,l),
(361,651,ls),
(466,651,o),
(570,593,o),
(570,477,cs),
(570,361,o),
(466,303,o),
(361,303,cs)
);
}
);
width = 639;
}
);
leftKerningGroup = R;
rightKerningGroup = R;
unicode = 82;
},
{
color = 1;
glyphname = S;
layers = (
{
anchors = (
{
name = bottom;
position = "{323, 0}";
},
{
name = top;
position = "{323, 687}";
}
);
layerId = "40701DA0-09EF-4B99-B0D1-EC8472DC3E62";
associatedMasterId = "0E22ADE5-BDA2-4C31-BFE7-5758CE7315CD";
name = bubble;
shapes = (
{
closed = 1;
nodes = (
(-9,74,l),
(82,-6,o),
(207,-50,o),
(343,-50,cs),
(539,-50,o),
(649,54,o),
(649,218,cs),
(649,325,o),
(607,389,o),
(485,433,c),
(629,637,l),
(545,704,o),
(441,737,o),
(319,737,cs),
(135,737,o),
(0,631,o),
(0,473,cs),
(0,363,o),
(64,303,o),
(150,266,c)
);
}
);
width = 649;
},
{
anchors = (
{
name = bottom;
position = "{323, 0}";
},
{
name = top;
position = "{323, 687}";
}
);
layerId = "0E22ADE5-BDA2-4C31-BFE7-5758CE7315CD";
shapes = (
{
closed = 1;
nodes = (
(515,-12,o),
(626,73,o),
(626,218,cs),
(626,349,o),
(526,392,o),
(366,426,cs),
(268,447,o),
(244,458,o),
(244,493,cs),
(244,519,o),
(267,538,o),
(314,538,cs),
(376,538,o),
(446,515,o),
(510,469,c),
(607,606,l),
(531,667,o),
(438,699,o),
(319,699,cs),
(156,699,o),
(48,610,o),
(48,473,cs),
(48,330,o),
(163,291,o),
(312,257,cs),
(407,235,o),
(431,230,o),
(431,197,cs),
(431,167,o),
(403,149,o),
(350,149,cs),
(269,149,o),
(193,178,o),
(123,233,c),
(15,104,l),
(102,27,o),
(219,-12,o),
(343,-12,cs)
);
}
);
width = 649;
},
{
anchors = (
{
name = bottom;
position = "{310, 0}";
},
{
name = top;
position = "{309, 687}";
}
);
layerId = "1C1B13CA-6905-46B8-93A6-CEC184E43E2C";
associatedMasterId = "350FB24F-9799-4386-8190-3779153A0BBC";
name = bubble;
shapes = (
{
closed = 1;
nodes = (
(15,58,l),
(98,-22,o),
(201,-63,o),
(319,-63,cs),
(495,-63,o),
(613,38,o),
(613,187,cs),
(613,304,o),
(547,377,o),
(402,422,c),
(575,643,l),
(495,716,o),
(405,752,o),
(302,752,cs),
(143,752,o),
(17,645,o),
(17,504,cs),
(17,396,o),
(73,329,o),
(198,284,c)
);
}
);
width = 613;
},
{
anchors = (
{
name = bottom;
position = "{310, 0}";
},
{
name = top;
position = "{309, 687}";
}
);
layerId = "350FB24F-9799-4386-8190-3779153A0BBC";
shapes = (
{
closed = 1;
nodes = (
(479,-11,o),
(561,78,o),
(561,187,cs),
(561,308,o),
(467,355,o),
(336,386,cs),
(219,414,o),
(151,439,o),
(151,510,cs),
(151,573,o),
(213,629,o),
(298,629,cs),
(370,629,o),
(438,596,o),
(495,541,c),
(543,602,l),
(480,660,o),
(404,700,o),
(302,700,cs),
(170,700,o),
(72,614,o),
(72,504,cs),
(72,385,o),
(159,342,o),
(297,310,cs),
(417,282,o),
(482,253,o),
(482,180,cs),
(482,118,o),
(428,60,o),
(322,60,cs),
(226,60,o),
(155,101,o),
(97,159,c),
(48,98,l),
(117,30,o),
(206,-11,o),
(319,-11,cs)
);
}
);
width = 613;
},
{
anchors = (
{
name = bottom;
position = "{338, 0}";
},
{
name = top;
position = "{338, 687}";
}
);
layerId = "8CCB427F-D0B4-43D7-A922-FB400ACA0E33";
associatedMasterId = "322D7814-E247-4B41-B6CA-DFE314F8ECB2";
name = bubble;
shapes = (
{
closed = 1;
nodes = (
(25,36,l),
(108,-43,o),
(225,-90,o),
(344,-90,cs),
(523,-90,o),
(653,22,o),
(653,177,cs),
(653,300,o),
(581,378,o),
(426,426,c),
(613,664,l),
(532,737,o),
(427,779,o),
(327,779,cs),
(155,779,o),
(28,663,o),
(28,504,cs),
(28,395,o),
(93,327,o),
(218,283,c)
);
}
);
width = 653;
},
{
anchors = (
{
name = bottom;
position = "{338, 0}";
},
{
name = top;
position = "{338, 687}";
}
);
layerId = "322D7814-E247-4B41-B6CA-DFE314F8ECB2";
shapes = (
{
closed = 1;
nodes = (
(480,-11,o),
(576,67,o),
(576,177,cs),
(576,273,o),
(511,327,o),
(350,365,cs),
(202,401,o),
(143,441,o),
(143,507,cs),
(143,599,o),
(218,664,o),
(325,664,cs),
(405,664,o),
(483,631,o),
(542,574,c),
(564,602,l),
(497,664,o),
(411,700,o),
(327,700,cs),
(198,700,o),
(107,619,o),
(107,504,cs),
(107,418,o),
(171,369,o),
(332,332,cs),
(481,297,o),
(540,252,o),
(540,174,cs),
(540,87,o),
(459,25,o),
(345,25,cs),
(251,25,o),
(158,63,o),
(95,126,c),
(73,98,l),
(143,29,o),
(243,-11,o),
(344,-11,cs)
);
}
);
width = 653;
}
);
leftKerningGroup = S;
rightKerningGroup = S;
unicode = 83;
},
{
color = 1;
glyphname = T;
layers = (
{
anchors = (
{
name = bottom;
position = "{320, 0}";
},
{
name = top;
position = "{320, 687}";
}
);
layerId = "40701DA0-09EF-4B99-B0D1-EC8472DC3E62";
associatedMasterId = "0E22ADE5-BDA2-4C31-BFE7-5758CE7315CD";
name = bubble;
shapes = (
{
closed = 1;
nodes = (
(558,0,l),
(558,438,l),
(640,438,l),
(640,687,l),
(0,687,l),
(0,438,l),
(82,438,l),
(82,0,l)
);
}
);
width = 640;
},
{
anchors = (
{
name = bottom;
position = "{320, 0}";
},
{
name = top;
position = "{320, 687}";
}
);
layerId = "0E22ADE5-BDA2-4C31-BFE7-5758CE7315CD";
shapes = (
{
closed = 1;
nodes = (
(417,0,l),
(417,514,l),
(620,514,l),
(620,687,l),
(20,687,l),
(20,514,l),
(223,514,l),
(223,0,l)
);
}
);
width = 640;
},
{
anchors = (
{
name = bottom;
position = "{319, 0}";
},
{
name = top;
position = "{319, 687}";
}
);
layerId = "1C1B13CA-6905-46B8-93A6-CEC184E43E2C";
associatedMasterId = "350FB24F-9799-4386-8190-3779153A0BBC";
name = bubble;
shapes = (
{
closed = 1;
nodes = (
(526,0,l),
(526,545,l),
(638,545,l),
(638,687,l),
(0,687,l),
(0,545,l),
(112,545,l),
(112,0,l)
);
}
);
width = 638;
},
{
anchors = (
{
name = bottom;
position = "{319, 0}";
},
{
name = top;
position = "{319, 687}";
}
);
layerId = "350FB24F-9799-4386-8190-3779153A0BBC";
shapes = (
{
closed = 1;
nodes = (
(358,0,l),
(358,613,l),
(589,613,l),
(589,687,l),
(49,687,l),
(49,613,l),
(280,613,l),
(280,0,l)
);
}
);
width = 638;
},
{
anchors = (
{
name = bottom;
position = "{344, 0}";
},
{
name = top;
position = "{344, 687}";
}
);
layerId = "8CCB427F-D0B4-43D7-A922-FB400ACA0E33";
associatedMasterId = "322D7814-E247-4B41-B6CA-DFE314F8ECB2";
name = bubble;
shapes = (
{
closed = 1;
nodes = (
(573,0,l),
(573,560,l),
(688,560,l),
(688,687,l),
(0,687,l),
(0,560,l),
(115,560,l),
(115,0,l)
);
}
);
width = 688;
},
{
anchors = (
{
name = bottom;
position = "{344, 0}";
},
{
name = top;
position = "{344, 687}";
}
);
layerId = "322D7814-E247-4B41-B6CA-DFE314F8ECB2";
shapes = (
{
closed = 1;
nodes = (
(362,0,l),
(362,651,l),
(614,651,l),
(614,687,l),
(74,687,l),
(74,651,l),
(326,651,l),
(326,0,l)
);
}
);
width = 688;
}
);
leftKerningGroup = T;
rightKerningGroup = T;
unicode = 84;
},
{
color = 1;
glyphname = U;
layers = (
{
anchors = (
{
name = bottom;
position = "{375, -12}";
},
{
name = top;
position = "{375, 687}";
}
);
layerId = "40701DA0-09EF-4B99-B0D1-EC8472DC3E62";
associatedMasterId = "0E22ADE5-BDA2-4C31-BFE7-5758CE7315CD";
name = bubble;
shapes = (
{
closed = 1;
nodes = (
(593,-60,o),
(750,92,o),
(750,305,cs),
(750,687,l),
(0,687,l),
(0,305,ls),
(0,92,o),
(157,-60,o),
(375,-60,cs)
);
}
);
width = 750;
},
{
anchors = (
{
name = bottom;
position = "{375, -12}";
},
{
name = top;
position = "{375, 687}";
}
);
layerId = "0E22ADE5-BDA2-4C31-BFE7-5758CE7315CD";
shapes = (
{
closed = 1;
nodes = (
(567,-12,o),
(702,119,o),
(702,305,cs),
(702,687,l),
(508,687,l),
(508,315,ls),
(508,227,o),
(453,164,o),
(375,164,cs),
(297,164,o),
(242,227,o),
(242,315,cs),
(242,687,l),
(48,687,l),
(48,305,ls),
(48,119,o),
(183,-12,o),
(375,-12,cs)
);
}
);
width = 750;
},
{
anchors = (
{
name = bottom;
position = "{355, -12}";
}
);
layerId = "1C1B13CA-6905-46B8-93A6-CEC184E43E2C";
associatedMasterId = "350FB24F-9799-4386-8190-3779153A0BBC";
name = bubble;
shapes = (
{
closed = 1;
nodes = (
(561,-80,o),
(710,74,o),
(710,285,cs),
(710,687,l),
(0,687,l),
(0,285,ls),
(0,74,o),
(149,-80,o),
(355,-80,cs)
);
}
);
width = 710;
},
{
anchors = (
{
name = bottom;
position = "{355, -12}";
},
{
name = top;
position = "{355, 687}";
}
);
layerId = "350FB24F-9799-4386-8190-3779153A0BBC";
shapes = (
{
closed = 1;
nodes = (
(523,-12,o),
(642,111,o),
(642,285,cs),
(642,687,l),
(564,687,l),
(564,285,ls),
(564,153,o),
(477,59,o),
(355,59,cs),
(233,59,o),
(146,153,o),
(146,285,cs),
(146,687,l),
(68,687,l),
(68,285,ls),
(68,111,o),
(187,-12,o),
(355,-12,cs)
);
}
);
width = 710;
},
{
anchors = (
{
name = bottom;
position = "{357, -12}";
}
);
layerId = "8CCB427F-D0B4-43D7-A922-FB400ACA0E33";
associatedMasterId = "322D7814-E247-4B41-B6CA-DFE314F8ECB2";
name = bubble;
shapes = (
{
closed = 1;
nodes = (
(563,-103,o),
(714,53,o),
(714,265,cs),
(714,687,l),
(0,687,l),
(0,265,ls),
(0,53,o),
(151,-103,o),
(357,-103,cs)
);
}
);
width = 714;
},
{
anchors = (
{
name = bottom;
position = "{357, -12}";
},
{
name = top;
position = "{357, 687}";
}
);
layerId = "322D7814-E247-4B41-B6CA-DFE314F8ECB2";
shapes = (
{
closed = 1;
nodes = (
(513,-12,o),
(623,103,o),
(623,265,cs),
(623,687,l),
(587,687,l),
(587,265,ls),
(587,124,o),
(492,24,o),
(357,24,cs),
(222,24,o),
(127,124,o),
(127,265,cs),
(127,687,l),
(91,687,l),
(91,265,ls),
(91,103,o),
(201,-12,o),
(357,-12,cs)
);
}
);
width = 714;
}
);
leftKerningGroup = U;
rightKerningGroup = U;
unicode = 85;
},
{
color = 1;
glyphname = W;
layers = (
{
anchors = (
{
name = top;
position = "{545, 687}";
}
);
layerId = "40701DA0-09EF-4B99-B0D1-EC8472DC3E62";
associatedMasterId = "0E22ADE5-BDA2-4C31-BFE7-5758CE7315CD";
name = bubble;
shapes = (
{
closed = 1;
nodes = (
(1010,0,l),
(1088,687,l),
(0,687,l),
(80,0,l)
);
}
);
width = 1088;
},
{
anchors = (
{
name = top;
position = "{545, 687}";
}
);
layerId = "0E22ADE5-BDA2-4C31-BFE7-5758CE7315CD";
shapes = (
{
closed = 1;
nodes = (
(401,0,l),
(545,397,l),
(688,0,l),
(884,0,l),
(1074,687,l),
(865,687,l),
(781,290,l),
(649,687,l),
(440,687,l),
(307,290,l),
(223,687,l),
(14,687,l),
(205,0,l)
);
}
);
width = 1088;
},
{
anchors = (
{
name = top;
position = "{551, 687}";
}
);
layerId = "1C1B13CA-6905-46B8-93A6-CEC184E43E2C";
associatedMasterId = "350FB24F-9799-4386-8190-3779153A0BBC";
name = bubble;
shapes = (
{
closed = 1;
nodes = (
(973,0,l),
(1101,687,l),
(0,687,l),
(128,0,l)
);
}
);
width = 1101;
},
{
anchors = (
{
name = top;
position = "{551, 687}";
}
);
layerId = "350FB24F-9799-4386-8190-3779153A0BBC";
shapes = (
{
closed = 1;
nodes = (
(359,0,l),
(551,585,l),
(742,0,l),
(819,0,l),
(1054,687,l),
(966,687,l),
(776,131,l),
(594,687,l),
(507,687,l),
(325,131,l),
(135,687,l),
(47,687,l),
(282,0,l)
);
}
);
width = 1101;
},
{
anchors = (
{
name = top;
position = "{554, 687}";
}
);
layerId = "8CCB427F-D0B4-43D7-A922-FB400ACA0E33";
associatedMasterId = "322D7814-E247-4B41-B6CA-DFE314F8ECB2";
name = bubble;
shapes = (
{
closed = 1;
nodes = (
(971,0,l),
(1107,687,l),
(0,687,l),
(136,0,l)
);
}
);
width = 1107;
},
{
anchors = (
{
name = top;
position = "{554, 687}";
}
);
layerId = "322D7814-E247-4B41-B6CA-DFE314F8ECB2";
shapes = (
{
closed = 1;
nodes = (
(343,0,l),
(554,629,l),
(764,0,l),
(803,0,l),
(1033,687,l),
(994,687,l),
(784,58,l),
(573,687,l),
(534,687,l),
(324,58,l),
(113,687,l),
(74,687,l),
(304,0,l)
);
}
);
width = 1107;
}
);
leftKerningGroup = W;
rightKerningGroup = W;
unicode = 87;
},
{
color = 1;
glyphname = X;
layers = (
{
layerId = "40701DA0-09EF-4B99-B0D1-EC8472DC3E62";
associatedMasterId = "0E22ADE5-BDA2-4C31-BFE7-5758CE7315CD";
name = bubble;
shapes = (
{
closed = 1;
nodes = (
(741,0,l),
(665,345,l),
(741,687,l),
(0,687,l),
(76,342,l),
(0,0,l)
);
}
);
width = 741;
},
{
layerId = "0E22ADE5-BDA2-4C31-BFE7-5758CE7315CD";
shapes = (
{
closed = 1;
nodes = (
(727,0,l),
(241,687,l),
(14,687,l),
(500,0,l)
);
},
{
closed = 1;
nodes = (
(237,0,l),
(727,687,l),
(504,687,l),
(14,0,l)
);
}
);
width = 741;
},
{
layerId = "1C1B13CA-6905-46B8-93A6-CEC184E43E2C";
associatedMasterId = "350FB24F-9799-4386-8190-3779153A0BBC";
name = bubble;
shapes = (
{
closed = 1;
nodes = (
(717,0,l),
(616,344,l),
(717,687,l),
(0,687,l),
(101,343,l),
(0,0,l)
);
}
);
width = 717;
},
{
layerId = "350FB24F-9799-4386-8190-3779153A0BBC";
shapes = (
{
closed = 1;
nodes = (
(669,0,l),
(144,687,l),
(48,687,l),
(573,0,l)
);
},
{
closed = 1;
nodes = (
(143,0,l),
(669,687,l),
(574,687,l),
(48,0,l)
);
}
);
width = 717;
},
{
layerId = "8CCB427F-D0B4-43D7-A922-FB400ACA0E33";
associatedMasterId = "322D7814-E247-4B41-B6CA-DFE314F8ECB2";
name = bubble;
shapes = (
{
closed = 1;
nodes = (
(719,0,l),
(623,343,l),
(720,687,l),
(0,687,l),
(97,343,l),
(0,0,l)
);
}
);
width = 720;
},
{
layerId = "322D7814-E247-4B41-B6CA-DFE314F8ECB2";
shapes = (
{
closed = 1;
nodes = (
(645,0,l),
(120,687,l),
(74,687,l),
(599,0,l)
);
},
{
closed = 1;
nodes = (
(120,0,l),
(646,687,l),
(600,687,l),
(74,0,l)
);
}
);
width = 720;
}
);
leftKerningGroup = X;
rightKerningGroup = X;
unicode = 88;
},
{
color = 1;
glyphname = Y;
layers = (
{
layerId = "40701DA0-09EF-4B99-B0D1-EC8472DC3E62";
associatedMasterId = "0E22ADE5-BDA2-4C31-BFE7-5758CE7315CD";
name = bubble;
shapes = (
{
closed = 1;
nodes = (
(655,0,l),
(655,226,l),
(735,687,l),
(0,687,l),
(81,226,l),
(81,0,l)
);
}
);
width = 735;
},
{
anchors = (
{
name = top;
position = "{368, 687}";
}
);
layerId = "0E22ADE5-BDA2-4C31-BFE7-5758CE7315CD";
shapes = (
{
closed = 1;
nodes = (
(465,0,l),
(465,226,l),
(728,687,l),
(515,687,l),
(368,408,l),
(229,687,l),
(7,687,l),
(271,226,l),
(271,0,l)
);
}
);
width = 735;
},
{
layerId = "1C1B13CA-6905-46B8-93A6-CEC184E43E2C";
associatedMasterId = "350FB24F-9799-4386-8190-3779153A0BBC";
name = bubble;
shapes = (
{
closed = 1;
nodes = (
(618,0,l),
(618,280,l),
(727,687,l),
(0,687,l),
(110,280,l),
(110,0,l)
);
}
);
width = 727;
},
{
anchors = (
{
name = top;
position = "{364, 687}";
}
);
layerId = "350FB24F-9799-4386-8190-3779153A0BBC";
shapes = (
{
closed = 1;
nodes = (
(405,0,l),
(405,280,l),
(681,687,l),
(587,687,l),
(364,354,l),
(143,687,l),
(46,687,l),
(323,280,l),
(323,0,l)
);
}
);
width = 727;
},
{
layerId = "8CCB427F-D0B4-43D7-A922-FB400ACA0E33";
associatedMasterId = "322D7814-E247-4B41-B6CA-DFE314F8ECB2";
name = bubble;
shapes = (
{
closed = 1;
nodes = (
(620,0,l),
(620,251,l),
(742,687,l),
(0,687,l),
(122,251,l),
(122,0,l)
);
}
);
width = 742;
},
{
anchors = (
{
name = top;
position = "{371, 687}";
}
);
layerId = "322D7814-E247-4B41-B6CA-DFE314F8ECB2";
shapes = (
{
closed = 1;
nodes = (
(389,0,l),
(389,279,l),
(669,687,l),
(623,687,l),
(371,320,l),
(119,687,l),
(73,687,l),
(353,279,l),
(353,0,l)
);
}
);
width = 742;
}
);
leftKerningGroup = Y;
rightKerningGroup = Y;
unicode = 89;
},
{
color = 1;
glyphname = Z;
layers = (
{
layerId = "40701DA0-09EF-4B99-B0D1-EC8472DC3E62";
associatedMasterId = "0E22ADE5-BDA2-4C31-BFE7-5758CE7315CD";
name = bubble;
shapes = (
{
closed = 1;
nodes = (
(674,687,l),
(674,0,l),
(0,0,l),
(0,687,l)
);
}
);
width = 674;
},
{
anchors = (
{
name = top;
position = "{341, 687}";
}
);
layerId = "0E22ADE5-BDA2-4C31-BFE7-5758CE7315CD";
shapes = (
{
closed = 1;
nodes = (
(635,0,l),
(635,173,l),
(306,173,l),
(630,542,l),
(630,687,l),
(46,687,l),
(46,514,l),
(364,514,l),
(38,145,l),
(39,0,l)
);
}
);
width = 674;
},
{
layerId = "1C1B13CA-6905-46B8-93A6-CEC184E43E2C";
associatedMasterId = "350FB24F-9799-4386-8190-3779153A0BBC";
name = bubble;
shapes = (
{
closed = 1;
nodes = (
(631,0,l),
(631,687,l),
(0,687,l),
(0,0,l)
);
}
);
width = 631;
},
{
anchors = (
{
name = top;
position = "{317, 687}";
}
);
layerId = "350FB24F-9799-4386-8190-3779153A0BBC";
shapes = (
{
closed = 1;
nodes = (
(578,0,l),
(578,74,l),
(159,74,l),
(574,625,l),
(574,687,l),
(60,687,l),
(60,613,l),
(467,613,l),
(53,62,l),
(53,0,l)
);
}
);
width = 631;
},
{
anchors = (
{
name = top;
position = "{328, 687}";
}
);
layerId = "8CCB427F-D0B4-43D7-A922-FB400ACA0E33";
associatedMasterId = "322D7814-E247-4B41-B6CA-DFE314F8ECB2";
name = bubble;
shapes = (
{
closed = 1;
nodes = (
(656,0,l),
(656,687,l),
(0,687,l),
(0,0,l)
);
}
);
width = 656;
},
{
anchors = (
{
name = top;
position = "{328, 687}";
}
);
layerId = "322D7814-E247-4B41-B6CA-DFE314F8ECB2";
shapes = (
{
closed = 1;
nodes = (
(580,0,l),
(580,36,l),
(119,36,l),
(576,657,l),
(576,687,l),
(82,687,l),
(82,651,l),
(532,651,l),
(75,30,l),
(75,0,l)
);
}
);
width = 656;
}
);
leftKerningGroup = Z;
rightKerningGroup = Z;
unicode = 90;
},
{
color = 1;
glyphname = a;
layers = (
{
anchors = (
{
name = bottom;
position = "{530, 0}";
},
{
name = top;
position = "{291, 517}";
}
);
layerId = "40701DA0-09EF-4B99-B0D1-EC8472DC3E62";
associatedMasterId = "0E22ADE5-BDA2-4C31-BFE7-5758CE7315CD";
name = bubble;
shapes = (
{
closed = 1;
nodes = (
(0,50,o),
(90,-27,o),
(212,-27,cs),
(251,-27,o),
(287,-17,o),
(318,0,c),
(572,0,l),
(572,305,ls),
(572,461,o),
(454,571,o),
(291,571,cs),
(208,571,o),
(124,549,o),
(36,506,c),
(129,321,l),
(51,292,o),
(0,230,o),
(0,153,cs)
);
}
);
width = 572;
},
{
anchors = (
{
name = bottom;
position = "{530, 0}";
},
{
name = top;
position = "{301, 517}";
}
);
layerId = "0E22ADE5-BDA2-4C31-BFE7-5758CE7315CD";
shapes = (
{
closed = 1;
nodes = (
(530,0,l),
(530,305,ls),
(530,446,o),
(422,529,o),
(291,529,cs),
(204,529,o),
(127,504,o),
(55,468,c),
(116,347,l),
(154,366,o),
(194,376,o),
(239,376,cs),
(306,376,o),
(345,350,o),
(345,305,cs),
(345,0,l)
);
},
{
closed = 1;
nodes = (
(292,-12,o),
(371,34,o),
(391,113,c),
(345,163,l),
(341,133,o),
(306,112,o),
(259,112,cs),
(224,112,o),
(198,131,o),
(198,158,cs),
(198,187,o),
(226,208,o),
(263,208,cs),
(293,208,o),
(323,201,o),
(346,188,c),
(397,274,l),
(346,308,o),
(286,325,o),
(236,325,cs),
(111,325,o),
(15,254,o),
(15,153,cs),
(15,56,o),
(101,-12,o),
(212,-12,cs)
);
}
);
width = 572;
},
{
anchors = (
{
name = bottom;
position = "{479, 0}";
},
{
name = top;
position = "{269, 517}";
}
);
layerId = "1C1B13CA-6905-46B8-93A6-CEC184E43E2C";
associatedMasterId = "350FB24F-9799-4386-8190-3779153A0BBC";
name = bubble;
shapes = (
{
closed = 1;
nodes = (
(0,36,o),
(92,-45,o),
(222,-45,cs),
(277,-45,o),
(329,-28,o),
(370,0,c),
(529,0,l),
(529,315,ls),
(529,477,o),
(429,579,o),
(269,579,cs),
(205,579,o),
(132,560,o),
(60,524,c),
(135,372,l),
(193,403,o),
(231,415,o),
(264,415,cs),
(316,415,o),
(345,393,o),
(352,344,c),
(312,353,o),
(273,358,o),
(236,358,cs),
(102,358,o),
(0,270,o),
(0,153,cs)
);
}
);
width = 529;
},
{
anchors = (
{
name = bottom;
position = "{479, 0}";
},
{
name = top;
position = "{287, 517}";
}
);
layerId = "350FB24F-9799-4386-8190-3779153A0BBC";
shapes = (
{
closed = 1;
nodes = (
(479,0,l),
(479,315,ls),
(479,440,o),
(410,529,o),
(269,529,cs),
(219,529,o),
(157,516,o),
(83,479,c),
(113,418,l),
(160,442,o),
(212,465,o),
(264,465,cs),
(376,465,o),
(404,385,o),
(404,315,cs),
(404,0,l)
);
},
{
closed = 1;
nodes = (
(304,-12,o),
(400,35,o),
(421,123,c),
(404,162,l),
(384,89,o),
(303,54,o),
(235,54,cs),
(162,54,o),
(106,92,o),
(106,156,cs),
(106,218,o),
(171,262,o),
(248,262,cs),
(318,262,o),
(382,250,o),
(437,230,c),
(437,284,l),
(376,308,o),
(304,325,o),
(236,325,cs),
(125,325,o),
(33,256,o),
(33,153,cs),
(33,51,o),
(113,-12,o),
(222,-12,cs)
);
}
);
width = 529;
},
{
anchors = (
{
name = bottom;
position = "{475, 0}";
},
{
name = top;
position = "{276, 517}";
}
);
layerId = "8CCB427F-D0B4-43D7-A922-FB400ACA0E33";
associatedMasterId = "322D7814-E247-4B41-B6CA-DFE314F8ECB2";
name = bubble;
shapes = (
{
closed = 1;
nodes = (
(0,30,o),
(100,-60,o),
(234,-60,cs),
(305,-60,o),
(373,-37,o),
(424,0,c),
(537,0,l),
(537,315,ls),
(537,478,o),
(431,591,o),
(276,591,cs),
(211,591,o),
(132,570,o),
(71,536,c),
(140,392,l),
(180,417,o),
(226,431,o),
(271,431,cs),
(325,431,o),
(360,406,o),
(372,359,c),
(331,368,o),
(291,373,o),
(256,373,cs),
(106,373,o),
(0,283,o),
(0,154,cs)
);
}
);
width = 537;
},
{
anchors = (
{
name = bottom;
position = "{475, 0}";
},
{
name = top;
position = "{293, 517}";
}
);
layerId = "322D7814-E247-4B41-B6CA-DFE314F8ECB2";
shapes = (
{
closed = 1;
nodes = (
(475,0,l),
(475,315,ls),
(475,440,o),
(400,529,o),
(276,529,cs),
(222,529,o),
(155,512,o),
(98,479,c),
(113,448,l),
(161,477,o),
(219,493,o),
(271,493,cs),
(394,493,o),
(439,402,o),
(439,315,cs),
(439,0,l)
);
},
{
closed = 1;
nodes = (
(323,-12,o),
(435,36,o),
(456,123,c),
(439,162,l),
(419,69,o),
(317,24,o),
(238,24,cs),
(152,24,o),
(84,78,o),
(84,155,cs),
(84,233,o),
(155,289,o),
(260,289,cs),
(325,289,o),
(397,268,o),
(452,248,c),
(452,284,l),
(391,308,o),
(317,325,o),
(256,325,cs),
(131,325,o),
(48,254,o),
(48,154,cs),
(48,56,o),
(127,-12,o),
(234,-12,cs)
);
}
);
width = 537;
}
);
leftKerningGroup = a;
rightKerningGroup = a;
unicode = 97;
},
{
color = 1;
glyphname = ae;
layers = (
{
anchors = (
{
name = bottom;
position = "{632, -12}";
},
{
name = top;
position = "{624, 517}";
}
);
layerId = "40701DA0-09EF-4B99-B0D1-EC8472DC3E62";
associatedMasterId = "0E22ADE5-BDA2-4C31-BFE7-5758CE7315CD";
name = bubble;
shapes = (
{
closed = 1;
nodes = (
(0,48,o),
(101,-26,o),
(243,-26,cs),
(326,-26,o),
(393,-4,o),
(436,38,c),
(488,-3,o),
(557,-26,o),
(632,-26,cs),
(715,-26,o),
(807,9,o),
(855,58,c),
(729,185,l),
(697,160,o),
(659,146,o),
(624,146,cs),
(589,146,o),
(561,166,o),
(547,199,c),
(907,199,l),
(912,412,o),
(804,543,o),
(624,543,cs),
(554,543,o),
(489,522,o),
(437,483,c),
(397,521,o),
(338,543,o),
(272,543,cs),
(182,543,o),
(122,517,o),
(49,480,c),
(124,335,l),
(161,353,o),
(199,362,o),
(240,362,cs),
(289,362,o),
(320,348,o),
(329,323,c),
(298,333,o),
(266,339,o),
(237,339,cs),
(101,339,o),
(0,260,o),
(0,153,cs)
);
}
);
width = 907;
},
{
anchors = (
{
name = bottom;
position = "{632, -12}";
},
{
name = top;
position = "{624, 517}";
}
);
layerId = "0E22ADE5-BDA2-4C31-BFE7-5758CE7315CD";
shapes = (
{
closed = 1;
nodes = (
(329,-12,o),
(395,12,o),
(435,57,c),
(485,13,o),
(554,-12,o),
(632,-12,cs),
(711,-12,o),
(799,21,o),
(845,68,c),
(739,175,l),
(705,148,o),
(663,132,o),
(624,132,cs),
(561,132,o),
(521,185,o),
(521,259,cs),
(521,333,o),
(561,385,o),
(624,385,cs),
(686,385,o),
(721,325,o),
(712,246,c),
(791,314,l),
(405,314,l),
(405,213,l),
(893,213,l),
(893,412,o),
(790,529,o),
(624,529,cs),
(550,529,o),
(485,505,o),
(436,464,c),
(399,505,o),
(341,529,o),
(272,529,cs),
(185,529,o),
(128,504,o),
(56,468,c),
(117,347,l),
(155,366,o),
(195,376,o),
(240,376,cs),
(307,376,o),
(346,350,o),
(346,305,cs),
(346,302,l),
(309,317,o),
(271,325,o),
(237,325,cs),
(112,325,o),
(14,254,o),
(14,153,cs),
(14,56,o),
(109,-12,o),
(243,-12,cs)
);
},
{
closed = 1;
nodes = (
(223,112,o),
(197,131,o),
(197,158,cs),
(197,187,o),
(225,208,o),
(262,208,cs),
(292,208,o),
(321,201,o),
(344,189,c),
(344,163,l),
(340,133,o),
(305,112,o),
(258,112,cs)
);
}
);
width = 907;
},
{
anchors = (
{
name = bottom;
position = "{636, -12}";
},
{
name = top;
position = "{659, 517}";
}
);
layerId = "1C1B13CA-6905-46B8-93A6-CEC184E43E2C";
associatedMasterId = "350FB24F-9799-4386-8190-3779153A0BBC";
name = bubble;
shapes = (
{
closed = 1;
nodes = (
(0,30,o),
(89,-45,o),
(232,-45,cs),
(316,-45,o),
(396,-8,o),
(449,52,c),
(505,-9,o),
(584,-45,o),
(666,-45,cs),
(751,-45,o),
(848,-8,o),
(897,44,c),
(805,141,l),
(780,112,o),
(718,88,o),
(665,88,cs),
(595,88,o),
(541,130,o),
(521,197,c),
(936,197,l),
(944,420,o),
(839,562,o),
(659,562,cs),
(585,562,o),
(513,532,o),
(460,480,c),
(418,533,o),
(352,562,o),
(269,562,cs),
(208,562,o),
(139,543,o),
(69,508,c),
(127,388,l),
(188,419,o),
(228,432,o),
(264,432,cs),
(327,432,o),
(362,401,o),
(370,340,c),
(323,352,o),
(277,358,o),
(236,358,cs),
(102,358,o),
(0,270,o),
(0,153,cs)
);
}
);
width = 936;
},
{
anchors = (
{
name = bottom;
position = "{636, -12}";
},
{
name = top;
position = "{659, 517}";
}
);
layerId = "350FB24F-9799-4386-8190-3779153A0BBC";
shapes = (
{
closed = 1;
nodes = (
(324,-12,o),
(406,37,o),
(449,107,c),
(497,33,o),
(579,-12,o),
(666,-12,cs),
(738,-12,o),
(829,19,o),
(874,68,c),
(828,117,l),
(796,82,o),
(726,55,o),
(665,55,cs),
(553,55,o),
(479,144,o),
(479,260,cs),
(479,380,o),
(559,462,o),
(662,462,cs),
(774,462,o),
(829,377,o),
(832,273,c),
(864,297,l),
(455,297,l),
(455,230,l),
(904,230,l),
(904,411,o),
(815,529,o),
(659,529,cs),
(577,529,o),
(503,489,o),
(456,425,c),
(426,489,o),
(364,529,o),
(269,529,cs),
(219,529,o),
(157,516,o),
(83,479,c),
(113,418,l),
(160,442,o),
(212,465,o),
(264,465,cs),
(376,465,o),
(404,385,o),
(404,315,cs),
(404,296,l),
(351,313,o),
(292,325,o),
(236,325,cs),
(125,325,o),
(33,256,o),
(33,153,cs),
(33,49,o),
(107,-12,o),
(232,-12,cs)
);
},
{
closed = 1;
nodes = (
(162,54,o),
(106,92,o),
(106,156,cs),
(106,218,o),
(171,262,o),
(248,262,cs),
(304,262,o),
(357,254,o),
(404,241,c),
(404,162,l),
(384,89,o),
(303,54,o),
(235,54,cs)
);
}
);
width = 936;
},
{
anchors = (
{
name = bottom;
position = "{693, -12}";
},
{
name = top;
position = "{693, 517}";
}
);
layerId = "8CCB427F-D0B4-43D7-A922-FB400ACA0E33";
associatedMasterId = "322D7814-E247-4B41-B6CA-DFE314F8ECB2";
name = bubble;
shapes = (
{
closed = 1;
nodes = (
(0,29,o),
(103,-60,o),
(244,-60,cs),
(338,-60,o),
(419,-20,o),
(469,47,c),
(526,-20,o),
(607,-60,o),
(693,-60,cs),
(787,-60,o),
(889,-22,o),
(941,33,c),
(852,130,l),
(820,94,o),
(761,72,o),
(693,72,cs),
(623,72,o),
(559,123,o),
(534,194,c),
(985,194,l),
(1000,418,o),
(882,577,o),
(693,577,cs),
(608,577,o),
(530,541,o),
(474,480,c),
(430,542,o),
(360,577,o),
(276,577,cs),
(212,577,o),
(136,556,o),
(76,523,c),
(134,405,l),
(176,431,o),
(225,445,o),
(271,445,cs),
(335,445,o),
(375,413,o),
(387,355,c),
(341,367,o),
(295,373,o),
(256,373,cs),
(106,373,o),
(0,283,o),
(0,154,cs)
);
}
);
width = 986;
},
{
anchors = (
{
name = bottom;
position = "{693, -12}";
},
{
name = top;
position = "{693, 517}";
}
);
layerId = "322D7814-E247-4B41-B6CA-DFE314F8ECB2";
shapes = (
{
closed = 1;
nodes = (
(353,-12,o),
(436,49,o),
(465,143,c),
(506,52,o),
(594,-12,o),
(693,-12,cs),
(776,-12,o),
(866,21,o),
(909,68,c),
(884,95,l),
(841,48,o),
(767,24,o),
(693,24,cs),
(575,24,o),
(475,132,o),
(475,260,cs),
(475,390,o),
(571,493,o),
(693,493,cs),
(819,493,o),
(902,401,o),
(903,265,c),
(919,278,l),
(460,278,l),
(460,242,l),
(939,242,l),
(939,414,o),
(841,529,o),
(693,529,cs),
(593,529,o),
(508,471,o),
(467,384,c),
(444,471,o),
(376,529,o),
(276,529,cs),
(222,529,o),
(155,512,o),
(98,479,c),
(113,448,l),
(161,477,o),
(219,493,o),
(271,493,cs),
(394,493,o),
(439,402,o),
(439,315,cs),
(439,289,l),
(381,310,o),
(313,325,o),
(256,325,cs),
(131,325,o),
(48,254,o),
(48,154,cs),
(48,57,o),
(129,-12,o),
(244,-12,cs)
);
},
{
closed = 1;
nodes = (
(153,24,o),
(85,78,o),
(85,155,cs),
(85,233,o),
(156,289,o),
(261,289,cs),
(321,289,o),
(387,271,o),
(440,253,c),
(440,162,l),
(420,69,o),
(318,24,o),
(239,24,cs)
);
}
);
width = 986;
}
);
leftKerningGroup = a;
rightKerningGroup = e;
unicode = 230;
},
{
color = 1;
glyphname = b;
layers = (
{
layerId = "40701DA0-09EF-4B99-B0D1-EC8472DC3E62";
associatedMasterId = "0E22ADE5-BDA2-4C31-BFE7-5758CE7315CD";
name = bubble;
shapes = (
{
closed = 1;
nodes = (
(574,-34,o),
(682,88,o),
(682,259,cs),
(682,430,o),
(574,551,o),
(422,551,cs),
(382,551,o),
(346,542,o),
(313,526,c),
(313,699,l),
(0,699,l),
(0,0,l),
(296,0,l),
(333,-22,o),
(375,-34,o),
(422,-34,cs)
);
}
);
width = 682;
},
{
layerId = "0E22ADE5-BDA2-4C31-BFE7-5758CE7315CD";
shapes = (
{
closed = 1;
nodes = (
(561,-12,o),
(659,100,o),
(659,259,cs),
(659,417,o),
(561,529,o),
(422,529,cs),
(286,529,o),
(189,417,o),
(189,259,cs),
(189,100,o),
(286,-12,o),
(422,-12,cs)
);
},
{
closed = 1;
nodes = (
(300,148,o),
(257,194,o),
(257,259,cs),
(257,323,o),
(300,369,o),
(361,369,cs),
(428,369,o),
(475,323,o),
(475,259,cs),
(475,194,o),
(428,148,o),
(361,148,cs)
);
},
{
closed = 1;
nodes = (
(257,0,l),
(257,699,l),
(64,699,l),
(64,0,l)
);
}
);
width = 682;
},
{
layerId = "1C1B13CA-6905-46B8-93A6-CEC184E43E2C";
associatedMasterId = "350FB24F-9799-4386-8190-3779153A0BBC";
name = bubble;
shapes = (
{
closed = 1;
nodes = (
(481,-49,o),
(596,82,o),
(596,259,cs),
(596,435,o),
(480,566,o),
(322,566,cs),
(273,566,o),
(229,554,o),
(191,531,c),
(191,699,l),
(0,699,l),
(0,0,l),
(171,0,l),
(213,-31,o),
(264,-49,o),
(322,-49,cs)
);
}
);
width = 596;
},
{
layerId = "350FB24F-9799-4386-8190-3779153A0BBC";
shapes = (
{
closed = 1;
nodes = (
(458,-12,o),
(560,100,o),
(560,259,cs),
(560,417,o),
(458,529,o),
(322,529,cs),
(185,529,o),
(95,417,o),
(95,259,cs),
(95,100,o),
(185,-12,o),
(322,-12,cs)
);
},
{
closed = 1;
nodes = (
(206,55,o),
(134,140,o),
(134,259,cs),
(134,378,o),
(206,462,o),
(308,462,cs),
(409,462,o),
(481,378,o),
(481,259,cs),
(481,140,o),
(409,55,o),
(308,55,cs)
);
},
{
closed = 1;
nodes = (
(134,0,l),
(134,699,l),
(59,699,l),
(59,0,l)
);
}
);
width = 596;
},
{
layerId = "8CCB427F-D0B4-43D7-A922-FB400ACA0E33";
associatedMasterId = "322D7814-E247-4B41-B6CA-DFE314F8ECB2";
name = bubble;
shapes = (
{
closed = 1;
nodes = (
(462,-62,o),
(590,85,o),
(590,259,cs),
(590,433,o),
(463,579,o),
(308,579,cs),
(258,579,o),
(212,567,o),
(172,545,c),
(172,699,l),
(0,699,l),
(0,0,l),
(130,0,l),
(178,-39,o),
(239,-62,o),
(308,-62,cs)
);
}
);
width = 590;
},
{
layerId = "322D7814-E247-4B41-B6CA-DFE314F8ECB2";
shapes = (
{
closed = 1;
nodes = (
(434,-12,o),
(540,112,o),
(540,259,cs),
(540,406,o),
(434,529,o),
(308,529,cs),
(167,529,o),
(68,417,o),
(68,259,cs),
(68,100,o),
(167,-12,o),
(308,-12,cs)
);
},
{
closed = 1;
nodes = (
(186,24,o),
(104,121,o),
(104,259,cs),
(104,396,o),
(186,493,o),
(301,493,cs),
(411,493,o),
(504,386,o),
(504,259,cs),
(504,131,o),
(411,24,o),
(301,24,cs)
);
},
{
closed = 1;
nodes = (
(104,0,l),
(104,699,l),
(68,699,l),
(68,0,l)
);
}
);
width = 590;
}
);
leftKerningGroup = b;
rightKerningGroup = b;
unicode = 98;
},
{
color = 1;
glyphname = c;
layers = (
{
anchors = (
{
name = bottom;
position = "{299, 0}";
},
{
name = top;
position = "{289, 517}";
}
);
layerId = "40701DA0-09EF-4B99-B0D1-EC8472DC3E62";
associatedMasterId = "0E22ADE5-BDA2-4C31-BFE7-5758CE7315CD";
name = bubble;
shapes = (
{
closed = 1;
nodes = (
(399,-30,o),
(478,4,o),
(537,69,c),
(537,447,l),
(481,512,o),
(400,547,o),
(311,547,cs),
(142,547,o),
(0,416,o),
(0,259,cs),
(0,102,o),
(141,-30,o),
(308,-30,cs)
);
}
);
width = 537;
},
{
anchors = (
{
name = bottom;
position = "{299, 0}";
},
{
name = top;
position = "{289, 517}";
}
);
layerId = "0E22ADE5-BDA2-4C31-BFE7-5758CE7315CD";
shapes = (
{
closed = 1;
nodes = (
(404,-12,o),
(477,27,o),
(529,87,c),
(402,189,l),
(381,165,o),
(343,148,o),
(310,148,cs),
(251,148,o),
(202,199,o),
(202,260,cs),
(202,319,o),
(251,369,o),
(309,369,cs),
(342,369,o),
(379,352,o),
(399,329,c),
(526,433,l),
(476,491,o),
(403,529,o),
(311,529,cs),
(152,529,o),
(18,406,o),
(18,259,cs),
(18,112,o),
(151,-12,o),
(308,-12,cs)
);
}
);
width = 537;
},
{
anchors = (
{
name = bottom;
position = "{293, 0}";
},
{
name = top;
position = "{283, 517}";
}
);
layerId = "1C1B13CA-6905-46B8-93A6-CEC184E43E2C";
associatedMasterId = "350FB24F-9799-4386-8190-3779153A0BBC";
name = bubble;
shapes = (
{
closed = 1;
nodes = (
(383,-47,o),
(462,-13,o),
(519,47,c),
(519,473,l),
(461,531,o),
(381,564,o),
(303,564,cs),
(138,564,o),
(0,425,o),
(0,259,cs),
(0,93,o),
(139,-47,o),
(303,-47,cs)
);
}
);
width = 519;
},
{
anchors = (
{
name = bottom;
position = "{293, 0}";
},
{
name = top;
position = "{283, 517}";
}
);
layerId = "350FB24F-9799-4386-8190-3779153A0BBC";
shapes = (
{
closed = 1;
nodes = (
(375,-12,o),
(441,18,o),
(490,67,c),
(438,118,l),
(403,79,o),
(355,55,o),
(303,55,cs),
(200,55,o),
(114,148,o),
(114,259,cs),
(114,369,o),
(200,462,o),
(303,462,cs),
(354,462,o),
(401,439,o),
(435,402,c),
(487,453,l),
(438,500,o),
(373,529,o),
(303,529,cs),
(158,529,o),
(35,406,o),
(35,259,cs),
(35,112,o),
(158,-12,o),
(303,-12,cs)
);
}
);
width = 519;
},
{
anchors = (
{
name = bottom;
position = "{301, 0}";
},
{
name = top;
position = "{291, 517}";
}
);
layerId = "8CCB427F-D0B4-43D7-A922-FB400ACA0E33";
associatedMasterId = "322D7814-E247-4B41-B6CA-DFE314F8ECB2";
name = bubble;
shapes = (
{
closed = 1;
nodes = (
(393,-63,o),
(475,-26,o),
(531,38,c),
(531,479,l),
(475,543,o),
(393,580,o),
(309,580,cs),
(130,580,o),
(0,445,o),
(0,259,cs),
(0,72,o),
(129,-63,o),
(309,-63,cs)
);
}
);
width = 531;
},
{
anchors = (
{
name = bottom;
position = "{301, 0}";
},
{
name = top;
position = "{291, 517}";
}
);
layerId = "322D7814-E247-4B41-B6CA-DFE314F8ECB2";
shapes = (
{
closed = 1;
nodes = (
(377,-12,o),
(440,17,o),
(486,64,c),
(461,89,l),
(421,49,o),
(367,24,o),
(309,24,cs),
(179,24,o),
(87,121,o),
(87,259,cs),
(87,396,o),
(179,493,o),
(309,493,cs),
(367,493,o),
(421,468,o),
(460,428,c),
(486,453,l),
(440,500,o),
(377,529,o),
(309,529,cs),
(158,529,o),
(51,417,o),
(51,259,cs),
(51,100,o),
(158,-12,o),
(309,-12,cs)
);
}
);
width = 531;
}
);
leftKerningGroup = c;
rightKerningGroup = c;
unicode = 99;
},
{
color = 1;
glyphname = d;
layers = (
{
layerId = "40701DA0-09EF-4B99-B0D1-EC8472DC3E62";
associatedMasterId = "0E22ADE5-BDA2-4C31-BFE7-5758CE7315CD";
name = bubble;
shapes = (
{
closed = 1;
nodes = (
(307,-34,o),
(349,-22,o),
(386,0,c),
(682,0,l),
(682,699,l),
(369,699,l),
(369,526,l),
(336,542,o),
(300,551,o),
(260,551,cs),
(108,551,o),
(0,430,o),
(0,259,cs),
(0,88,o),
(108,-34,o),
(260,-34,cs)
);
}
);
width = 682;
},
{
layerId = "0E22ADE5-BDA2-4C31-BFE7-5758CE7315CD";
shapes = (
{
closed = 1;
nodes = (
(396,-12,o),
(493,100,o),
(493,259,cs),
(493,417,o),
(396,529,o),
(260,529,cs),
(121,529,o),
(23,417,o),
(23,259,cs),
(23,100,o),
(121,-12,o),
(260,-12,cs)
);
},
{
closed = 1;
nodes = (
(254,148,o),
(207,194,o),
(207,259,cs),
(207,323,o),
(254,369,o),
(321,369,cs),
(382,369,o),
(425,323,o),
(425,259,cs),
(425,194,o),
(382,148,o),
(321,148,cs)
);
},
{
closed = 1;
nodes = (
(618,0,l),
(618,699,l),
(425,699,l),
(425,0,l)
);
}
);
width = 682;
},
{
layerId = "1C1B13CA-6905-46B8-93A6-CEC184E43E2C";
associatedMasterId = "350FB24F-9799-4386-8190-3779153A0BBC";
name = bubble;
shapes = (
{
closed = 1;
nodes = (
(333,-49,o),
(384,-31,o),
(426,0,c),
(597,0,l),
(597,699,l),
(406,699,l),
(406,531,l),
(368,554,o),
(324,566,o),
(275,566,cs),
(117,566,o),
(0,435,o),
(0,259,cs),
(0,82,o),
(116,-49,o),
(275,-49,cs)
);
}
);
width = 597;
},
{
layerId = "350FB24F-9799-4386-8190-3779153A0BBC";
shapes = (
{
closed = 1;
nodes = (
(412,-12,o),
(502,100,o),
(502,259,cs),
(502,417,o),
(412,529,o),
(275,529,cs),
(139,529,o),
(37,417,o),
(37,259,cs),
(37,100,o),
(139,-12,o),
(275,-12,cs)
);
},
{
closed = 1;
nodes = (
(188,55,o),
(116,140,o),
(116,259,cs),
(116,378,o),
(188,462,o),
(289,462,cs),
(391,462,o),
(463,378,o),
(463,259,cs),
(463,140,o),
(391,55,o),
(289,55,cs)
);
},
{
closed = 1;
nodes = (
(538,0,l),
(538,699,l),
(463,699,l),
(463,0,l)
);
}
);
width = 597;
},
{
layerId = "8CCB427F-D0B4-43D7-A922-FB400ACA0E33";
associatedMasterId = "322D7814-E247-4B41-B6CA-DFE314F8ECB2";
name = bubble;
shapes = (
{
closed = 1;
nodes = (
(351,-62,o),
(412,-39,o),
(460,0,c),
(590,0,l),
(590,699,l),
(418,699,l),
(418,545,l),
(378,567,o),
(332,579,o),
(282,579,cs),
(127,579,o),
(0,433,o),
(0,259,cs),
(0,85,o),
(128,-62,o),
(282,-62,cs)
);
}
);
width = 590;
},
{
layerId = "322D7814-E247-4B41-B6CA-DFE314F8ECB2";
shapes = (
{
closed = 1;
nodes = (
(423,-12,o),
(522,100,o),
(522,259,cs),
(522,417,o),
(423,529,o),
(282,529,cs),
(156,529,o),
(50,406,o),
(50,259,cs),
(50,112,o),
(156,-12,o),
(282,-12,cs)
);
},
{
closed = 1;
nodes = (
(179,24,o),
(86,131,o),
(86,259,cs),
(86,386,o),
(179,493,o),
(289,493,cs),
(404,493,o),
(486,396,o),
(486,259,cs),
(486,121,o),
(404,24,o),
(289,24,cs)
);
},
{
closed = 1;
nodes = (
(522,0,l),
(522,699,l),
(486,699,l),
(486,0,l)
);
}
);
width = 590;
}
);
leftKerningGroup = d;
rightKerningGroup = d;
unicode = 100;
},
{
color = 1;
glyphname = eth;
layers = (
{
layerId = "40701DA0-09EF-4B99-B0D1-EC8472DC3E62";
associatedMasterId = "0E22ADE5-BDA2-4C31-BFE7-5758CE7315CD";
name = bubble;
shapes = (
{
closed = 1;
nodes = (
(0,85,o),
(126,-34,o),
(304,-34,cs),
(483,-34,o),
(614,100,o),
(614,288,cs),
(614,408,o),
(571,502,o),
(460,612,c),
(473,618,l),
(416,746,l),
(344,714,l),
(309,742,l),
(94,649,l),
(137,622,l),
(131,619,l),
(181,507,l),
(72,481,o),
(0,382,o),
(0,251,cs)
);
}
);
width = 614;
},
{
layerId = "0E22ADE5-BDA2-4C31-BFE7-5758CE7315CD";
shapes = (
{
closed = 1;
nodes = (
(246,149,o),
(204,188,o),
(204,244,cs),
(204,299,o),
(245,338,o),
(304,338,cs),
(365,338,o),
(405,297,o),
(405,243,cs),
(405,188,o),
(364,149,o),
(305,149,cs)
);
},
{
closed = 1;
nodes = (
(118,660,l),
(237,584,o),
(340,513,o),
(383,425,c),
(347,466,o),
(303,492,o),
(240,492,cs),
(111,492,o),
(20,392,o),
(20,251,cs),
(20,97,o),
(138,-12,o),
(304,-12,cs),
(471,-12,o),
(589,112,o),
(589,288,cs),
(589,460,o),
(492,573,o),
(286,732,c)
);
},
{
closed = 1;
nodes = (
(464,638,l),
(425,726,l),
(140,599,l),
(179,511,l)
);
}
);
width = 614;
},
{
layerId = "1C1B13CA-6905-46B8-93A6-CEC184E43E2C";
associatedMasterId = "350FB24F-9799-4386-8190-3779153A0BBC";
name = bubble;
shapes = (
{
closed = 1;
nodes = (
(0,76,o),
(122,-49,o),
(291,-49,cs),
(460,-49,o),
(580,84,o),
(580,269,cs),
(580,388,o),
(537,486,o),
(431,597,c),
(452,606,l),
(395,736,l),
(316,701,l),
(278,732,l),
(120,668,l),
(137,657,o),
(153,646,o),
(169,635,c),
(137,621,l),
(181,521,l),
(72,485,o),
(0,381,o),
(0,248,cs)
);
}
);
width = 580;
},
{
layerId = "350FB24F-9799-4386-8190-3779153A0BBC";
shapes = (
{
closed = 1;
nodes = (
(187,56,o),
(114,135,o),
(114,247,cs),
(114,355,o),
(186,432,o),
(288,432,cs),
(396,432,o),
(464,348,o),
(464,245,cs),
(464,134,o),
(392,56,o),
(291,56,cs)
);
},
{
closed = 1;
nodes = (
(162,685,l),
(275,609,o),
(383,519,o),
(436,417,c),
(393,468,o),
(339,498,o),
(269,498,cs),
(133,498,o),
(36,394,o),
(36,248,cs),
(36,96,o),
(142,-12,o),
(291,-12,cs),
(439,-12,o),
(543,104,o),
(543,269,cs),
(543,441,o),
(437,562,o),
(238,716,c)
);
},
{
closed = 1;
nodes = (
(437,640,l),
(410,702,l),
(152,587,l),
(179,525,l)
);
}
);
width = 580;
},
{
layerId = "8CCB427F-D0B4-43D7-A922-FB400ACA0E33";
associatedMasterId = "322D7814-E247-4B41-B6CA-DFE314F8ECB2";
name = bubble;
shapes = (
{
closed = 1;
nodes = (
(0,67,o),
(125,-63,o),
(297,-63,cs),
(469,-63,o),
(593,71,o),
(593,255,cs),
(593,373,o),
(538,495,o),
(442,600,c),
(452,605,l),
(395,732,l),
(329,702,l),
(311,715,o),
(293,728,o),
(274,740,c),
(137,669,l),
(154,659,o),
(170,649,o),
(186,639,c),
(155,625,l),
(194,537,l),
(77,497,o),
(0,387,o),
(0,246,cs)
);
}
);
width = 593;
},
{
layerId = "322D7814-E247-4B41-B6CA-DFE314F8ECB2";
shapes = (
{
closed = 1;
nodes = (
(174,24,o),
(87,116,o),
(87,245,cs),
(87,375,o),
(174,467,o),
(297,467,cs),
(423,467,o),
(506,377,o),
(506,249,cs),
(506,117,o),
(419,24,o),
(296,24,cs)
);
},
{
closed = 1;
nodes = (
(188,696,l),
(307,622,o),
(417,524,o),
(475,414,c),
(427,479,o),
(362,503,o),
(297,503,cs),
(153,503,o),
(51,397,o),
(51,246,cs),
(51,95,o),
(153,-12,o),
(297,-12,cs),
(441,-12,o),
(542,99,o),
(542,255,cs),
(542,440,o),
(390,613,o),
(221,713,c)
);
},
{
closed = 1;
nodes = (
(431,652,l),
(416,685,l),
(176,578,l),
(191,545,l)
);
}
);
width = 593;
}
);
leftKerningGroup = eth;
rightKerningGroup = eth;
unicode = 240;
},
{
color = 1;
glyphname = dcaron;
layers = (
{
layerId = "40701DA0-09EF-4B99-B0D1-EC8472DC3E62";
associatedMasterId = "0E22ADE5-BDA2-4C31-BFE7-5758CE7315CD";
name = bubble;
shapes = (
{
closed = 1;
nodes = (
(0,87,o),
(108,-35,o),
(260,-35,cs),
(308,-35,o),
(351,-23,o),
(388,0,c),
(774,0,l),
(774,407,l),
(831,455,o),
(871,528,o),
(871,585,cs),
(871,665,o),
(826,722,o),
(761,722,cs),
(729,722,o),
(701,709,o),
(682,688,c),
(682,699,l),
(361,699,l),
(361,531,l),
(330,545,o),
(297,552,o),
(260,552,cs),
(108,552,o),
(0,429,o),
(0,259,cs)
);
}
);
width = 854;
},
{
layerId = "0E22ADE5-BDA2-4C31-BFE7-5758CE7315CD";
shapes = (
{
closed = 1;
nodes = (
(396,-12,o),
(493,100,o),
(493,259,cs),
(493,417,o),
(396,529,o),
(260,529,cs),
(121,529,o),
(23,417,o),
(23,259,cs),
(23,100,o),
(121,-12,o),
(260,-12,cs)
);
},
{
closed = 1;
nodes = (
(254,148,o),
(207,194,o),
(207,259,cs),
(207,323,o),
(254,369,o),
(321,369,cs),
(382,369,o),
(425,323,o),
(425,259,cs),
(425,194,o),
(382,148,o),
(321,148,cs)
);
},
{
closed = 1;
nodes = (
(618,0,l),
(618,699,l),
(425,699,l),
(425,0,l)
);
},
{
closed = 1;
nodes = (
(755,421,l),
(810,466,o),
(848,534,o),
(848,585,cs),
(848,652,o),
(812,699,o),
(761,699,cs),
(712,699,o),
(677,663,o),
(677,612,cs),
(677,562,o),
(710,527,o),
(758,527,c),
(752,504,o),
(732,476,o),
(709,457,c)
);
}
);
width = 854;
},
{
layerId = "1C1B13CA-6905-46B8-93A6-CEC184E43E2C";
associatedMasterId = "350FB24F-9799-4386-8190-3779153A0BBC";
name = bubble;
shapes = (
{
closed = 1;
nodes = (
(0,82,o),
(116,-49,o),
(275,-49,cs),
(333,-49,o),
(384,-31,o),
(426,0,c),
(667,0,l),
(667,484,l),
(722,554,o),
(739,590,o),
(739,631,cs),
(739,691,o),
(704,736,o),
(650,736,cs),
(621,736,o),
(595,721,o),
(581,699,c),
(403,699,l),
(403,533,l),
(366,554,o),
(323,566,o),
(275,566,cs),
(117,566,o),
(0,435,o),
(0,259,cs)
);
}
);
width = 704;
},
{
layerId = "350FB24F-9799-4386-8190-3779153A0BBC";
shapes = (
{
closed = 1;
nodes = (
(412,-12,o),
(502,100,o),
(502,259,cs),
(502,417,o),
(412,529,o),
(275,529,cs),
(139,529,o),
(37,417,o),
(37,259,cs),
(37,100,o),
(139,-12,o),
(275,-12,cs)
);
},
{
closed = 1;
nodes = (
(188,55,o),
(116,140,o),
(116,259,cs),
(116,378,o),
(188,462,o),
(289,462,cs),
(391,462,o),
(463,378,o),
(463,259,cs),
(463,140,o),
(391,55,o),
(289,55,cs)
);
},
{
closed = 1;
nodes = (
(538,0,l),
(538,699,l),
(463,699,l),
(463,0,l)
);
},
{
closed = 1;
nodes = (
(637,506,l),
(687,570,o),
(702,598,o),
(702,631,cs),
(702,671,o),
(682,699,o),
(650,699,cs),
(624,699,o),
(604,678,o),
(604,654,cs),
(604,629,o),
(624,608,o),
(649,608,c),
(643,581,o),
(628,555,o),
(605,529,c)
);
}
);
width = 704;
},
{
layerId = "8CCB427F-D0B4-43D7-A922-FB400ACA0E33";
associatedMasterId = "322D7814-E247-4B41-B6CA-DFE314F8ECB2";
name = bubble;
shapes = (
{
closed = 1;
nodes = (
(0,85,o),
(128,-62,o),
(282,-62,cs),
(351,-62,o),
(412,-39,o),
(460,0,c),
(590,0,l),
(590,533,l),
(637,499,l),
(680,556,o),
(704,610,o),
(704,657,cs),
(704,708,o),
(672,749,o),
(622,749,cs),
(587,749,o),
(558,728,o),
(547,699,c),
(418,699,l),
(418,545,l),
(378,567,o),
(332,579,o),
(282,579,cs),
(127,579,o),
(0,433,o),
(0,259,cs)
);
}
);
width = 590;
},
{
layerId = "322D7814-E247-4B41-B6CA-DFE314F8ECB2";
shapes = (
{
closed = 1;
nodes = (
(423,-12,o),
(522,100,o),
(522,259,cs),
(522,417,o),
(423,529,o),
(282,529,cs),
(156,529,o),
(50,406,o),
(50,259,cs),
(50,112,o),
(156,-12,o),
(282,-12,cs)
);
},
{
closed = 1;
nodes = (
(179,24,o),
(86,131,o),
(86,259,cs),
(86,386,o),
(179,493,o),
(289,493,cs),
(404,493,o),
(486,396,o),
(486,259,cs),
(486,121,o),
(404,24,o),
(289,24,cs)
);
},
{
closed = 1;
nodes = (
(522,0,l),
(522,699,l),
(486,699,l),
(486,0,l)
);
},
{
closed = 1;
nodes = (
(596,528,l),
(633,579,o),
(654,622,o),
(654,657,cs),
(654,684,o),
(641,699,o),
(622,699,cs),
(604,699,o),
(591,686,o),
(591,669,cs),
(591,652,o),
(603,639,o),
(622,639,c),
(615,611,o),
(596,577,o),
(570,547,c)
);
}
);
width = 590;
}
);
leftKerningGroup = dcaron;
rightKerningGroup = dcaron;
unicode = 271;
},
{
color = 1;
glyphname = dcroat;
layers = (
{
layerId = "40701DA0-09EF-4B99-B0D1-EC8472DC3E62";
associatedMasterId = "0E22ADE5-BDA2-4C31-BFE7-5758CE7315CD";
name = bubble;
shapes = (
{
closed = 1;
nodes = (
(0,87,o),
(108,-35,o),
(260,-35,cs),
(308,-35,o),
(351,-23,o),
(388,0,c),
(695,0,l),
(695,699,l),
(348,699,l),
(348,690,l),
(290,690,l),
(290,550,l),
(280,551,o),
(270,552,o),
(260,552,cs),
(108,552,o),
(0,429,o),
(0,259,cs)
);
}
);
width = 695;
},
{
layerId = "0E22ADE5-BDA2-4C31-BFE7-5758CE7315CD";
shapes = (
{
closed = 1;
nodes = (
(680,565,l),
(680,655,l),
(290,655,l),
(290,565,l)
);
},
{
closed = 1;
nodes = (
(396,-12,o),
(493,100,o),
(493,259,cs),
(493,417,o),
(396,529,o),
(260,529,cs),
(121,529,o),
(23,417,o),
(23,259,cs),
(23,100,o),
(121,-12,o),
(260,-12,cs)
);
},
{
closed = 1;
nodes = (
(254,148,o),
(207,194,o),
(207,259,cs),
(207,323,o),
(254,369,o),
(321,369,cs),
(382,369,o),
(425,323,o),
(425,259,cs),
(425,194,o),
(382,148,o),
(321,148,cs)
);
},
{
closed = 1;
nodes = (
(618,0,l),
(618,699,l),
(425,699,l),
(425,0,l)
);
}
);
width = 695;
},
{
layerId = "1C1B13CA-6905-46B8-93A6-CEC184E43E2C";
associatedMasterId = "350FB24F-9799-4386-8190-3779153A0BBC";
name = bubble;
shapes = (
{
closed = 1;
nodes = (
(0,82,o),
(116,-49,o),
(275,-49,cs),
(333,-49,o),
(384,-31,o),
(426,0,c),
(597,0,l),
(597,535,l),
(620,535,l),
(620,685,l),
(597,685,l),
(597,699,l),
(402,699,l),
(402,685,l),
(310,685,l),
(310,564,l),
(299,565,o),
(287,566,o),
(275,566,cs),
(117,566,o),
(0,435,o),
(0,259,cs)
);
}
);
width = 597;
},
{
layerId = "350FB24F-9799-4386-8190-3779153A0BBC";
shapes = (
{
closed = 1;
nodes = (
(620,585,l),
(620,635,l),
(310,635,l),
(310,585,l)
);
},
{
closed = 1;
nodes = (
(412,-12,o),
(502,100,o),
(502,259,cs),
(502,417,o),
(412,529,o),
(275,529,cs),
(139,529,o),
(37,417,o),
(37,259,cs),
(37,100,o),
(139,-12,o),
(275,-12,cs)
);
},
{
closed = 1;
nodes = (
(188,55,o),
(116,140,o),
(116,259,cs),
(116,378,o),
(188,462,o),
(289,462,cs),
(391,462,o),
(463,378,o),
(463,259,cs),
(463,140,o),
(391,55,o),
(289,55,cs)
);
},
{
closed = 1;
nodes = (
(538,0,l),
(538,699,l),
(463,699,l),
(463,0,l)
);
}
);
width = 597;
},
{
layerId = "8CCB427F-D0B4-43D7-A922-FB400ACA0E33";
associatedMasterId = "322D7814-E247-4B41-B6CA-DFE314F8ECB2";
name = bubble;
shapes = (
{
closed = 1;
nodes = (
(0,85,o),
(128,-62,o),
(282,-62,cs),
(351,-62,o),
(412,-39,o),
(460,0,c),
(590,0,l),
(590,699,l),
(418,699,l),
(418,683,l),
(300,683,l),
(300,578,l),
(282,579,l),
(127,579,o),
(0,433,o),
(0,259,cs)
);
}
);
width = 590;
},
{
layerId = "322D7814-E247-4B41-B6CA-DFE314F8ECB2";
shapes = (
{
closed = 1;
nodes = (
(590,592,l),
(590,628,l),
(300,628,l),
(300,592,l)
);
},
{
closed = 1;
nodes = (
(423,-12,o),
(522,100,o),
(522,259,cs),
(522,417,o),
(423,529,o),
(282,529,cs),
(156,529,o),
(50,406,o),
(50,259,cs),
(50,112,o),
(156,-12,o),
(282,-12,cs)
);
},
{
closed = 1;
nodes = (
(179,24,o),
(86,131,o),
(86,259,cs),
(86,386,o),
(179,493,o),
(289,493,cs),
(404,493,o),
(486,396,o),
(486,259,cs),
(486,121,o),
(404,24,o),
(289,24,cs)
);
},
{
closed = 1;
nodes = (
(522,0,l),
(522,699,l),
(486,699,l),
(486,0,l)
);
}
);
width = 590;
}
);
leftKerningGroup = dcroat;
rightKerningGroup = dcroat;
unicode = 273;
},
{
color = 1;
glyphname = e;
layers = (
{
anchors = (
{
name = bottom;
position = "{306, -12}";
},
{
name = top;
position = "{298, 517}";
}
);
layerId = "40701DA0-09EF-4B99-B0D1-EC8472DC3E62";
associatedMasterId = "0E22ADE5-BDA2-4C31-BFE7-5758CE7315CD";
name = bubble;
shapes = (
{
closed = 1;
nodes = (
(0,91,o),
(129,-32,o),
(306,-32,cs),
(390,-32,o),
(483,4,o),
(533,54,c),
(399,190,l),
(368,165,o),
(332,152,o),
(298,152,cs),
(268,152,o),
(244,167,o),
(230,193,c),
(581,193,l),
(588,412,o),
(483,549,o),
(298,549,cs),
(125,549,o),
(0,427,o),
(0,260,cs)
);
}
);
width = 581;
},
{
anchors = (
{
name = bottom;
position = "{306, -12}";
},
{
name = top;
position = "{298, 517}";
}
);
layerId = "0E22ADE5-BDA2-4C31-BFE7-5758CE7315CD";
shapes = (
{
closed = 1;
nodes = (
(385,-12,o),
(473,21,o),
(519,68,c),
(413,175,l),
(379,148,o),
(337,132,o),
(298,132,cs),
(235,132,o),
(195,185,o),
(195,259,cs),
(195,333,o),
(235,385,o),
(298,385,cs),
(354,385,o),
(389,335,o),
(389,265,c),
(436,314,l),
(79,314,l),
(79,213,l),
(567,213,l),
(567,412,o),
(464,529,o),
(298,529,cs),
(138,529,o),
(20,418,o),
(20,260,cs),
(20,101,o),
(141,-12,o),
(306,-12,cs)
);
}
);
width = 581;
},
{
anchors = (
{
name = bottom;
position = "{268, -12}";
},
{
name = top;
position = "{291, 517}";
}
);
layerId = "1C1B13CA-6905-46B8-93A6-CEC184E43E2C";
associatedMasterId = "350FB24F-9799-4386-8190-3779153A0BBC";
name = bubble;
shapes = (
{
closed = 1;
nodes = (
(0,89,o),
(133,-48,o),
(298,-48,cs),
(384,-48,o),
(481,-11,o),
(531,42,c),
(435,144,l),
(412,114,o),
(350,91,o),
(297,91,cs),
(230,91,o),
(178,131,o),
(157,194,c),
(567,194,l),
(580,420,o),
(474,565,o),
(291,565,cs),
(128,565,o),
(0,430,o),
(0,260,cs)
);
}
);
width = 568;
},
{
anchors = (
{
name = bottom;
position = "{268, -12}";
},
{
name = top;
position = "{291, 517}";
}
);
layerId = "350FB24F-9799-4386-8190-3779153A0BBC";
shapes = (
{
closed = 1;
nodes = (
(370,-12,o),
(461,19,o),
(506,68,c),
(460,117,l),
(428,82,o),
(358,55,o),
(297,55,cs),
(185,55,o),
(111,144,o),
(111,260,cs),
(111,380,o),
(191,462,o),
(294,462,cs),
(407,462,o),
(463,374,o),
(463,268,c),
(506,297,l),
(87,297,l),
(87,230,l),
(536,230,l),
(536,411,o),
(447,529,o),
(291,529,cs),
(152,529,o),
(36,414,o),
(36,260,cs),
(36,101,o),
(160,-12,o),
(298,-12,cs)
);
}
);
width = 568;
},
{
anchors = (
{
name = bottom;
position = "{304, -12}";
},
{
name = top;
position = "{304, 517}";
}
);
layerId = "8CCB427F-D0B4-43D7-A922-FB400ACA0E33";
associatedMasterId = "322D7814-E247-4B41-B6CA-DFE314F8ECB2";
name = bubble;
shapes = (
{
closed = 1;
nodes = (
(0,85,o),
(138,-62,o),
(304,-62,cs),
(399,-62,o),
(501,-25,o),
(554,31,c),
(461,132,l),
(430,96,o),
(371,74,o),
(304,74,cs),
(235,74,o),
(174,124,o),
(148,192,c),
(595,192,l),
(614,418,o),
(495,579,o),
(304,579,cs),
(134,579,o),
(0,438,o),
(0,260,cs)
);
}
);
width = 597;
},
{
anchors = (
{
name = bottom;
position = "{304, -12}";
},
{
name = top;
position = "{304, 517}";
}
);
layerId = "322D7814-E247-4B41-B6CA-DFE314F8ECB2";
shapes = (
{
closed = 1;
nodes = (
(387,-12,o),
(477,21,o),
(520,68,c),
(495,95,l),
(452,48,o),
(378,24,o),
(304,24,cs),
(186,24,o),
(86,132,o),
(86,260,cs),
(86,390,o),
(182,493,o),
(304,493,cs),
(430,493,o),
(514,401,o),
(514,264,c),
(520,278,l),
(71,278,l),
(71,242,l),
(550,242,l),
(550,414,o),
(452,529,o),
(304,529,cs),
(162,529,o),
(50,411,o),
(50,260,cs),
(50,112,o),
(166,-12,o),
(304,-12,cs)
);
}
);
width = 597;
}
);
leftKerningGroup = e;
rightKerningGroup = e;
unicode = 101;
},
{
color = 1;
glyphname = f;
layers = (
{
layerId = "40701DA0-09EF-4B99-B0D1-EC8472DC3E62";
associatedMasterId = "0E22ADE5-BDA2-4C31-BFE7-5758CE7315CD";
name = bubble;
shapes = (
{
closed = 1;
nodes = (
(322,0,l),
(322,499,ls),
(322,516,o),
(336,520,o),
(342,520,cs),
(345,520,o),
(349,519,o),
(352,518,c),
(411,719,l),
(370,750,o),
(313,770,o),
(263,770,cs),
(132,770,o),
(38,676,o),
(38,545,cs),
(38,0,l)
);
},
{
closed = 1;
nodes = (
(403,315,l),
(403,517,l),
(0,517,l),
(0,315,l)
);
}
);
width = 403;
},
{
layerId = "0E22ADE5-BDA2-4C31-BFE7-5758CE7315CD";
shapes = (
{
closed = 1;
nodes = (
(272,0,l),
(272,517,ls),
(272,548,o),
(290,570,o),
(316,570,cs),
(334,570,o),
(353,564,o),
(363,555,c),
(396,667,l),
(364,698,o),
(309,720,o),
(263,720,cs),
(160,720,o),
(88,648,o),
(88,545,cs),
(88,0,l)
);
},
{
closed = 1;
nodes = (
(374,365,l),
(374,517,l),
(23,517,l),
(23,365,l)
);
}
);
width = 403;
},
{
layerId = "1C1B13CA-6905-46B8-93A6-CEC184E43E2C";
associatedMasterId = "350FB24F-9799-4386-8190-3779153A0BBC";
name = bubble;
shapes = (
{
closed = 1;
nodes = (
(239,0,l),
(239,577,ls),
(239,590,o),
(250,600,o),
(264,600,cs),
(267,600,o),
(271,600,o),
(274,599,c),
(362,731,l),
(327,758,o),
(281,773,o),
(237,773,cs),
(134,773,o),
(58,694,o),
(58,588,cs),
(58,0,l)
);
},
{
closed = 1;
nodes = (
(344,397,l),
(344,517,l),
(0,517,l),
(0,397,l)
);
}
);
width = 344;
},
{
layerId = "350FB24F-9799-4386-8190-3779153A0BBC";
shapes = (
{
closed = 1;
nodes = (
(186,0,l),
(186,588,ls),
(186,626,o),
(212,653,o),
(242,653,cs),
(265,653,o),
(285,644,o),
(296,632,c),
(333,687,l),
(306,708,o),
(272,720,o),
(237,720,cs),
(163,720,o),
(111,665,o),
(111,588,cs),
(111,0,l)
);
},
{
closed = 1;
nodes = (
(313,450,l),
(313,517,l),
(30,517,l),
(30,450,l)
);
}
);
width = 344;
},
{
layerId = "8CCB427F-D0B4-43D7-A922-FB400ACA0E33";
associatedMasterId = "322D7814-E247-4B41-B6CA-DFE314F8ECB2";
name = bubble;
shapes = (
{
closed = 1;
nodes = (
(228,0,l),
(228,588,ls),
(228,614,o),
(238,628,o),
(253,628,cs),
(265,628,o),
(274,624,o),
(285,613,c),
(371,733,l),
(333,761,o),
(289,776,o),
(242,776,cs),
(147,776,o),
(80,694,o),
(80,588,cs),
(80,0,l)
);
},
{
closed = 1;
nodes = (
(363,425,l),
(363,517,l),
(0,517,l),
(0,425,l)
);
}
);
width = 363;
},
{
layerId = "322D7814-E247-4B41-B6CA-DFE314F8ECB2";
shapes = (
{
closed = 1;
nodes = (
(172,0,l),
(172,588,ls),
(172,644,o),
(202,684,o),
(244,684,cs),
(274,684,o),
(298,676,o),
(318,659,c),
(338,687,l),
(310,709,o),
(278,720,o),
(242,720,cs),
(180,720,o),
(136,665,o),
(136,588,cs),
(136,0,l)
);
},
{
closed = 1;
nodes = (
(317,481,l),
(317,517,l),
(45,517,l),
(45,481,l)
);
}
);
width = 363;
}
);
leftKerningGroup = f;
rightKerningGroup = f;
unicode = 102;
},
{
color = 1;
glyphname = g;
layers = (
{
anchors = (
{
name = bottom;
position = "{307, -172}";
},
{
name = top;
position = "{314, 517}";
}
);
layerId = "40701DA0-09EF-4B99-B0D1-EC8472DC3E62";
associatedMasterId = "0E22ADE5-BDA2-4C31-BFE7-5758CE7315CD";
name = bubble;
shapes = (
{
closed = 1;
nodes = (
(0,175,o),
(54,85,o),
(135,42,c),
(41,-157,l),
(109,-202,o),
(210,-230,o),
(307,-230,cs),
(511,-230,o),
(659,-112,o),
(659,55,cs),
(659,517,l),
(373,517,l),
(337,539,o),
(291,552,o),
(247,552,cs),
(106,552,o),
(0,437,o),
(0,284,cs)
);
}
);
width = 659;
},
{
anchors = (
{
name = bottom;
position = "{307, -172}";
},
{
name = top;
position = "{314, 517}";
}
);
layerId = "0E22ADE5-BDA2-4C31-BFE7-5758CE7315CD";
shapes = (
{
closed = 1;
nodes = (
(479,-172,o),
(601,-78,o),
(601,55,cs),
(601,517,l),
(407,517,l),
(407,65,ls),
(407,21,o),
(353,-12,o),
(276,-12,cs),
(219,-12,o),
(159,5,o),
(129,30,c),
(66,-103,l),
(121,-143,o),
(211,-172,o),
(307,-172,cs)
);
},
{
closed = 1;
nodes = (
(317,38,o),
(386,72,o),
(426,129,c),
(420,439,l),
(397,489,o),
(319,529,o),
(247,529,cs),
(122,529,o),
(23,428,o),
(23,284,cs),
(23,140,o),
(122,38,o),
(247,38,cs)
);
},
{
closed = 1;
nodes = (
(260,198,o),
(221,234,o),
(221,284,cs),
(221,334,o),
(260,369,o),
(314,369,cs),
(368,369,o),
(407,334,o),
(407,284,cs),
(407,234,o),
(368,198,o),
(314,198,cs)
);
}
);
width = 659;
},
{
anchors = (
{
name = bottom;
position = "{283, -172}";
},
{
name = top;
position = "{292, 517}";
}
);
layerId = "1C1B13CA-6905-46B8-93A6-CEC184E43E2C";
associatedMasterId = "350FB24F-9799-4386-8190-3779153A0BBC";
name = bubble;
shapes = (
{
closed = 1;
nodes = (
(0,120,o),
(115,2,o),
(274,2,cs),
(322,2,o),
(366,13,o),
(404,35,c),
(395,-19,o),
(353,-48,o),
(273,-48,cs),
(217,-48,o),
(165,-27,o),
(136,8,c),
(46,-153,l),
(105,-200,o),
(196,-229,o),
(283,-229,cs),
(463,-229,o),
(594,-110,o),
(594,55,cs),
(594,517,l),
(427,517,l),
(385,548,o),
(332,565,o),
(274,565,cs),
(115,565,o),
(0,447,o),
(0,284,cs)
);
}
);
width = 594;
},
{
anchors = (
{
name = bottom;
position = "{283, -172}";
},
{
name = top;
position = "{292, 517}";
}
);
layerId = "350FB24F-9799-4386-8190-3779153A0BBC";
shapes = (
{
closed = 1;
nodes = (
(432,-172,o),
(537,-78,o),
(537,55,cs),
(537,517,l),
(462,517,l),
(462,55,ls),
(462,-46,o),
(392,-105,o),
(273,-105,cs),
(209,-105,o),
(147,-82,o),
(107,-44,c),
(74,-103,l),
(121,-143,o),
(199,-172,o),
(283,-172,cs)
);
},
{
closed = 1;
nodes = (
(367,38,o),
(439,87,o),
(477,166,c),
(477,401,l),
(439,480,o),
(367,529,o),
(274,529,cs),
(135,529,o),
(36,428,o),
(36,284,cs),
(36,140,o),
(135,38,o),
(274,38,cs)
);
},
{
closed = 1;
nodes = (
(187,105,o),
(115,179,o),
(115,284,cs),
(115,388,o),
(187,462,o),
(288,462,cs),
(390,462,o),
(462,388,o),
(462,284,cs),
(462,179,o),
(390,105,o),
(288,105,cs)
);
}
);
width = 594;
},
{
anchors = (
{
name = bottom;
position = "{293, -172}";
},
{
name = top;
position = "{296, 517}";
}
);
layerId = "8CCB427F-D0B4-43D7-A922-FB400ACA0E33";
associatedMasterId = "322D7814-E247-4B41-B6CA-DFE314F8ECB2";
name = bubble;
shapes = (
{
closed = 1;
nodes = (
(0,123,o),
(125,-12,o),
(276,-12,cs),
(329,-12,o),
(378,1,o),
(421,24,c),
(408,-32,o),
(359,-68,o),
(290,-68,cs),
(234,-68,o),
(164,-42,o),
(137,-9,c),
(50,-163,l),
(111,-209,o),
(208,-240,o),
(293,-240,cs),
(468,-240,o),
(596,-116,o),
(596,55,cs),
(596,517,l),
(462,517,l),
(413,557,o),
(349,579,o),
(276,579,cs),
(125,579,o),
(0,444,o),
(0,284,cs)
);
}
);
width = 596;
},
{
anchors = (
{
name = bottom;
position = "{293, -172}";
},
{
name = top;
position = "{296, 517}";
}
);
layerId = "322D7814-E247-4B41-B6CA-DFE314F8ECB2";
shapes = (
{
closed = 1;
nodes = (
(431,-172,o),
(528,-78,o),
(528,55,cs),
(528,517,l),
(492,517,l),
(492,55,ls),
(492,-57,o),
(408,-136,o),
(290,-136,cs),
(225,-136,o),
(147,-109,o),
(102,-71,c),
(84,-103,l),
(131,-143,o),
(218,-172,o),
(293,-172,cs)
);
},
{
closed = 1;
nodes = (
(375,38,o),
(462,89,o),
(497,186,c),
(497,382,l),
(462,479,o),
(379,529,o),
(276,529,cs),
(153,529,o),
(50,417,o),
(50,284,cs),
(50,150,o),
(153,38,o),
(276,38,cs)
);
},
{
closed = 1;
nodes = (
(176,74,o),
(86,170,o),
(86,284,cs),
(86,397,o),
(176,493,o),
(283,493,cs),
(401,493,o),
(492,406,o),
(492,284,cs),
(492,161,o),
(401,74,o),
(283,74,cs)
);
}
);
width = 596;
}
);
leftKerningGroup = g;
rightKerningGroup = g;
unicode = 103;
},
{
color = 1;
glyphname = h;
layers = (
{
layerId = "40701DA0-09EF-4B99-B0D1-EC8472DC3E62";
associatedMasterId = "0E22ADE5-BDA2-4C31-BFE7-5758CE7315CD";
name = bubble;
shapes = (
{
closed = 1;
nodes = (
(637,0,l),
(637,329,ls),
(637,470,o),
(539,573,o),
(403,573,cs),
(366,573,o),
(331,566,o),
(301,552,c),
(301,699,l),
(0,699,l),
(0,0,l)
);
}
);
width = 637;
},
{
layerId = "0E22ADE5-BDA2-4C31-BFE7-5758CE7315CD";
shapes = (
{
closed = 1;
nodes = (
(593,0,l),
(593,329,ls),
(593,446,o),
(514,529,o),
(403,529,cs),
(304,529,o),
(230,467,o),
(225,379,c),
(257,290,l),
(257,336,o),
(288,369,o),
(331,369,cs),
(377,369,o),
(409,334,o),
(409,284,cs),
(409,0,l)
);
},
{
closed = 1;
nodes = (
(257,0,l),
(257,699,l),
(64,699,l),
(64,0,l)
);
}
);
width = 637;
},
{
layerId = "1C1B13CA-6905-46B8-93A6-CEC184E43E2C";
associatedMasterId = "350FB24F-9799-4386-8190-3779153A0BBC";
name = bubble;
shapes = (
{
closed = 1;
nodes = (
(548,0,l),
(548,329,ls),
(548,475,o),
(447,579,o),
(304,579,cs),
(261,579,o),
(220,568,o),
(184,549,c),
(184,699,l),
(0,699,l),
(0,0,l)
);
}
);
width = 548;
},
{
layerId = "350FB24F-9799-4386-8190-3779153A0BBC";
shapes = (
{
closed = 1;
nodes = (
(498,0,l),
(498,329,ls),
(498,448,o),
(419,529,o),
(304,529,cs),
(207,529,o),
(123,462,o),
(118,379,c),
(134,329,l),
(134,402,o),
(206,462,o),
(294,462,cs),
(370,462,o),
(423,404,o),
(423,319,cs),
(423,0,l)
);
},
{
closed = 1;
nodes = (
(134,0,l),
(134,699,l),
(59,699,l),
(59,0,l)
);
}
);
width = 548;
},
{
layerId = "8CCB427F-D0B4-43D7-A922-FB400ACA0E33";
associatedMasterId = "322D7814-E247-4B41-B6CA-DFE314F8ECB2";
name = bubble;
shapes = (
{
closed = 1;
nodes = (
(529,0,l),
(529,339,ls),
(529,484,o),
(421,591,o),
(274,591,cs),
(235,591,o),
(198,583,o),
(166,570,c),
(166,699,l),
(0,699,l),
(0,0,l)
);
}
);
width = 529;
},
{
layerId = "322D7814-E247-4B41-B6CA-DFE314F8ECB2";
shapes = (
{
closed = 1;
nodes = (
(467,0,l),
(467,339,ls),
(467,450,o),
(387,529,o),
(274,529,cs),
(167,529,o),
(91,459,o),
(91,360,c),
(104,330,l),
(104,425,o),
(172,493,o),
(269,493,cs),
(364,493,o),
(431,427,o),
(431,334,cs),
(431,0,l)
);
},
{
closed = 1;
nodes = (
(104,0,l),
(104,699,l),
(68,699,l),
(68,0,l)
);
}
);
width = 529;
}
);
leftKerningGroup = h;
rightKerningGroup = h;
unicode = 104;
},
{
color = 1;
glyphname = dotlessi;
layers = (
{
anchors = (
{
name = bottom;
position = "{249, 0}";
},
{
name = loop_left;
position = "{56, 259}";
},
{
name = r_shoulder;
position = "{249, 219}";
},
{
name = shoulder;
position = "{249, 290}";
},
{
name = top;
position = "{153, 517}";
}
);
layerId = "40701DA0-09EF-4B99-B0D1-EC8472DC3E62";
associatedMasterId = "0E22ADE5-BDA2-4C31-BFE7-5758CE7315CD";
name = bubble;
shapes = (
{
closed = 1;
nodes = (
(305,0,l),
(305,517,l),
(0,517,l),
(0,0,l)
);
}
);
width = 305;
},
{
anchors = (
{
name = bottom;
position = "{249, 0}";
},
{
name = top;
position = "{153, 517}";
}
);
layerId = "0E22ADE5-BDA2-4C31-BFE7-5758CE7315CD";
shapes = (
{
closed = 1;
nodes = (
(249,0,l),
(249,517,l),
(56,517,l),
(56,0,l)
);
}
);
width = 305;
},
{
anchors = (
{
name = bottom;
position = "{132, 0}";
},
{
name = loop_left;
position = "{57, 259}";
},
{
name = r_shoulder;
position = "{132, 291}";
},
{
name = shoulder;
position = "{132, 329}";
},
{
name = top;
position = "{95, 517}";
}
);
layerId = "1C1B13CA-6905-46B8-93A6-CEC184E43E2C";
associatedMasterId = "350FB24F-9799-4386-8190-3779153A0BBC";
name = bubble;
shapes = (
{
closed = 1;
nodes = (
(189,0,l),
(189,517,l),
(0,517,l),
(0,0,l)
);
}
);
width = 189;
},
{
anchors = (
{
name = bottom;
position = "{132, 0}";
},
{
name = top;
position = "{95, 517}";
}
);
layerId = "350FB24F-9799-4386-8190-3779153A0BBC";
shapes = (
{
closed = 1;
nodes = (
(132,0,l),
(132,517,l),
(57,517,l),
(57,0,l)
);
}
);
width = 189;
},
{
anchors = (
{
name = bottom;
position = "{104, 0}";
},
{
name = loop_left;
position = "{68, 259}";
},
{
name = r_shoulder;
position = "{104, 289}";
},
{
name = shoulder;
position = "{104, 330}";
},
{
name = top;
position = "{86, 517}";
}
);
layerId = "8CCB427F-D0B4-43D7-A922-FB400ACA0E33";
associatedMasterId = "322D7814-E247-4B41-B6CA-DFE314F8ECB2";
name = bubble;
shapes = (
{
closed = 1;
nodes = (
(172,0,l),
(172,517,l),
(0,517,l),
(0,0,l)
);
}
);
width = 172;
},
{
anchors = (
{
name = bottom;
position = "{104, 0}";
},
{
name = top;
position = "{86, 517}";
}
);
layerId = "322D7814-E247-4B41-B6CA-DFE314F8ECB2";
shapes = (
{
closed = 1;
nodes = (
(104,0,l),
(104,517,l),
(68,517,l),
(68,0,l)
);
}
);
width = 172;
}
);
leftKerningGroup = i;
rightKerningGroup = i;
unicode = 305;
},
{
color = 1;
glyphname = dotlessj;
layers = (
{
anchors = (
{
name = top;
position = "{156, 517}";
}
);
layerId = "40701DA0-09EF-4B99-B0D1-EC8472DC3E62";
associatedMasterId = "0E22ADE5-BDA2-4C31-BFE7-5758CE7315CD";
name = bubble;
shapes = (
{
closed = 1;
nodes = (
(213,-240,o),
(317,-136,o),
(317,6,cs),
(317,517,l),
(0,517,l),
(0,0,ls),
(0,-3,o),
(-8,-6,o),
(-14,-6,cs),
(-19,-6,o),
(-24,-4,o),
(-27,-1,c),
(-55,-218,l),
(-19,-231,o),
(30,-240,o),
(71,-240,cs)
);
}
);
width = 317;
},
{
anchors = (
{
name = top;
position = "{156, 517}";
}
);
layerId = "0E22ADE5-BDA2-4C31-BFE7-5758CE7315CD";
shapes = (
{
closed = 1;
nodes = (
(179,-178,o),
(255,-102,o),
(255,6,cs),
(255,517,l),
(62,517,l),
(62,30,ls),
(62,-1,o),
(44,-23,o),
(18,-23,cs),
(2,-23,o),
(-17,-20,o),
(-29,-15,c),
(-47,-154,l),
(-19,-168,o),
(30,-178,o),
(71,-178,cs)
);
}
);
width = 317;
},
{
anchors = (
{
name = top;
position = "{97, 517}";
}
);
layerId = "1C1B13CA-6905-46B8-93A6-CEC184E43E2C";
associatedMasterId = "350FB24F-9799-4386-8190-3779153A0BBC";
name = bubble;
shapes = (
{
closed = 1;
nodes = (
(115,-237,o),
(193,-156,o),
(193,-46,cs),
(193,517,l),
(0,517,l),
(0,-40,ls),
(0,-46,o),
(-8,-52,o),
(-17,-52,cs),
(-28,-52,o),
(-40,-50,o),
(-50,-43,c),
(-85,-221,l),
(-58,-230,o),
(-21,-237,o),
(8,-237,cs)
);
}
);
width = 193;
},
{
anchors = (
{
name = top;
position = "{97, 517}";
}
);
layerId = "350FB24F-9799-4386-8190-3779153A0BBC";
shapes = (
{
closed = 1;
nodes = (
(82,-178,o),
(134,-123,o),
(134,-46,cs),
(134,517,l),
(59,517,l),
(59,-46,ls),
(59,-84,o),
(36,-111,o),
(3,-111,cs),
(-18,-111,o),
(-45,-106,o),
(-61,-100,c),
(-73,-162,l),
(-53,-171,o),
(-20,-178,o),
(8,-178,cs)
);
}
);
width = 193;
},
{
anchors = (
{
name = top;
position = "{85, 517}";
}
);
layerId = "8CCB427F-D0B4-43D7-A922-FB400ACA0E33";
associatedMasterId = "322D7814-E247-4B41-B6CA-DFE314F8ECB2";
name = bubble;
shapes = (
{
closed = 1;
nodes = (
(99,-246,o),
(172,-164,o),
(172,-56,cs),
(172,517,l),
(0,517,l),
(0,-56,ls),
(0,-68,o),
(-13,-74,o),
(-23,-74,cs),
(-38,-74,o),
(-51,-67,o),
(-62,-57,c),
(-98,-230,l),
(-69,-239,o),
(-31,-246,o),
(-3,-246,cs)
);
}
);
width = 172;
},
{
anchors = (
{
name = top;
position = "{85, 517}";
}
);
layerId = "322D7814-E247-4B41-B6CA-DFE314F8ECB2";
shapes = (
{
closed = 1;
nodes = (
(60,-178,o),
(104,-127,o),
(104,-56,cs),
(104,517,l),
(68,517,l),
(68,-56,ls),
(68,-106,o),
(38,-142,o),
(-5,-142,cs),
(-29,-142,o),
(-59,-136,o),
(-77,-128,c),
(-84,-162,l),
(-63,-171,o),
(-30,-178,o),
(-3,-178,cs)
);
}
);
width = 172;
}
);
leftKerningGroup = j;
rightKerningGroup = j;
unicode = 567;
},
{
color = 1;
glyphname = k;
layers = (
{
anchors = (
{
name = bottom;
position = "{321, 0}";
}
);
layerId = "40701DA0-09EF-4B99-B0D1-EC8472DC3E62";
associatedMasterId = "0E22ADE5-BDA2-4C31-BFE7-5758CE7315CD";
name = bubble;
shapes = (
{
closed = 1;
nodes = (
(620,0,l),
(574,329,l),
(620,517,l),
(321,517,l),
(321,699,l),
(0,699,l),
(0,0,l)
);
}
);
width = 620;
},
{
anchors = (
{
name = bottom;
position = "{321, 0}";
}
);
layerId = "0E22ADE5-BDA2-4C31-BFE7-5758CE7315CD";
shapes = (
{
closed = 1;
nodes = (
(257,0,l),
(257,119,l),
(299,171,l),
(394,0,l),
(610,0,l),
(425,294,l),
(606,517,l),
(390,517,l),
(257,335,l),
(257,699,l),
(64,699,l),
(64,0,l)
);
}
);
width = 620;
},
{
anchors = (
{
name = bottom;
position = "{246, 0}";
}
);
layerId = "1C1B13CA-6905-46B8-93A6-CEC184E43E2C";
associatedMasterId = "350FB24F-9799-4386-8190-3779153A0BBC";
name = bubble;
shapes = (
{
closed = 1;
nodes = (
(541,0,l),
(461,296,l),
(541,517,l),
(193,517,l),
(193,699,l),
(0,699,l),
(0,0,l)
);
}
);
width = 541;
},
{
anchors = (
{
name = bottom;
position = "{246, 0}";
}
);
layerId = "350FB24F-9799-4386-8190-3779153A0BBC";
shapes = (
{
closed = 1;
nodes = (
(134,0,l),
(134,137,l),
(227,229,l),
(406,0,l),
(500,0,l),
(280,280,l),
(513,517,l),
(417,517,l),
(134,231,l),
(134,699,l),
(59,699,l),
(59,0,l)
);
}
);
width = 541;
},
{
anchors = (
{
name = bottom;
position = "{248, 0}";
}
);
layerId = "8CCB427F-D0B4-43D7-A922-FB400ACA0E33";
associatedMasterId = "322D7814-E247-4B41-B6CA-DFE314F8ECB2";
name = bubble;
shapes = (
{
closed = 1;
nodes = (
(523,0,l),
(464,306,l),
(523,517,l),
(172,517,l),
(172,699,l),
(0,699,l),
(0,0,l)
);
}
);
width = 523;
},
{
anchors = (
{
name = bottom;
position = "{248, 0}";
}
);
layerId = "322D7814-E247-4B41-B6CA-DFE314F8ECB2";
shapes = (
{
closed = 1;
nodes = (
(104,0,l),
(104,134,l),
(222,255,l),
(421,0,l),
(467,0,l),
(247,280,l),
(479,517,l),
(429,517,l),
(104,186,l),
(104,699,l),
(68,699,l),
(68,0,l)
);
}
);
width = 523;
}
);
leftKerningGroup = k;
rightKerningGroup = k;
unicode = 107;
},
{
color = 1;
glyphname = l;
layers = (
{
layerId = "40701DA0-09EF-4B99-B0D1-EC8472DC3E62";
associatedMasterId = "0E22ADE5-BDA2-4C31-BFE7-5758CE7315CD";
name = bubble;
shapes = (
{
closed = 1;
nodes = (
(321,0,l),
(321,699,l),
(0,699,l),
(0,0,l)
);
}
);
width = 321;
},
{
anchors = (
{
name = bottom;
position = "{160, 0}";
},
{
name = top;
position = "{160, 699}";
}
);
layerId = "0E22ADE5-BDA2-4C31-BFE7-5758CE7315CD";
shapes = (
{
closed = 1;
nodes = (
(257,0,l),
(257,699,l),
(64,699,l),
(64,0,l)
);
}
);
width = 321;
},
{
anchors = (
{
name = bottom;
position = "{97, 0}";
},
{
name = top;
position = "{97, 699}";
}
);
layerId = "1C1B13CA-6905-46B8-93A6-CEC184E43E2C";
associatedMasterId = "350FB24F-9799-4386-8190-3779153A0BBC";
name = bubble;
shapes = (
{
closed = 1;
nodes = (
(193,0,l),
(193,699,l),
(0,699,l),
(0,0,l)
);
}
);
width = 193;
},
{
anchors = (
{
name = bottom;
position = "{97, 0}";
},
{
name = top;
position = "{97, 699}";
}
);
layerId = "350FB24F-9799-4386-8190-3779153A0BBC";
shapes = (
{
closed = 1;
nodes = (
(134,0,l),
(134,699,l),
(59,699,l),
(59,0,l)
);
}
);
width = 193;
},
{
anchors = (
{
name = bottom;
position = "{86, 0}";
},
{
name = top;
position = "{86, 699}";
}
);
layerId = "8CCB427F-D0B4-43D7-A922-FB400ACA0E33";
associatedMasterId = "322D7814-E247-4B41-B6CA-DFE314F8ECB2";
name = bubble;
shapes = (
{
closed = 1;
nodes = (
(172,0,l),
(172,699,l),
(0,699,l),
(0,0,l)
);
}
);
width = 172;
},
{
anchors = (
{
name = bottom;
position = "{86, 0}";
},
{
name = top;
position = "{86, 699}";
}
);
layerId = "322D7814-E247-4B41-B6CA-DFE314F8ECB2";
shapes = (
{
closed = 1;
nodes = (
(104,0,l),
(104,699,l),
(68,699,l),
(68,0,l)
);
}
);
width = 172;
}
);
leftKerningGroup = l;
rightKerningGroup = l;
unicode = 108;
},
{
color = 1;
glyphname = lcaron;
layers = (
{
anchors = (
{
name = bottom;
position = "{160, 0}";
},
{
name = top;
position = "{160, 699}";
}
);
layerId = "40701DA0-09EF-4B99-B0D1-EC8472DC3E62";
associatedMasterId = "0E22ADE5-BDA2-4C31-BFE7-5758CE7315CD";
name = bubble;
shapes = (
{
closed = 1;
nodes = (
(431,0,l),
(431,381,l),
(495,437,o),
(537,518,o),
(537,585,cs),
(537,685,o),
(476,763,o),
(386,763,cs),
(334,763,o),
(289,738,o),
(263,699,c),
(0,699,l),
(0,0,l)
);
}
);
width = 479;
},
{
anchors = (
{
name = bottom;
position = "{160, 0}";
},
{
name = top;
position = "{160, 699}";
}
);
layerId = "0E22ADE5-BDA2-4C31-BFE7-5758CE7315CD";
shapes = (
{
closed = 1;
nodes = (
(257,0,l),
(257,699,l),
(64,699,l),
(64,0,l)
);
},
{
closed = 1;
nodes = (
(380,421,l),
(435,466,o),
(473,534,o),
(473,585,cs),
(473,652,o),
(437,699,o),
(386,699,cs),
(337,699,o),
(302,663,o),
(302,612,cs),
(302,562,o),
(335,527,o),
(383,527,c),
(377,504,o),
(357,476,o),
(334,457,c)
);
}
);
width = 479;
},
{
anchors = (
{
name = bottom;
position = "{97, 0}";
},
{
name = top;
position = "{97, 699}";
}
);
layerId = "1C1B13CA-6905-46B8-93A6-CEC184E43E2C";
associatedMasterId = "350FB24F-9799-4386-8190-3779153A0BBC";
name = bubble;
shapes = (
{
closed = 1;
nodes = (
(285,0,l),
(285,472,l),
(339,540,o),
(362,581,o),
(362,631,cs),
(362,702,o),
(318,758,o),
(251,758,cs),
(209,758,o),
(173,734,o),
(156,699,c),
(0,699,l),
(0,0,l)
);
}
);
width = 303;
},
{
anchors = (
{
name = bottom;
position = "{97, 0}";
},
{
name = top;
position = "{97, 699}";
}
);
layerId = "350FB24F-9799-4386-8190-3779153A0BBC";
shapes = (
{
closed = 1;
nodes = (
(134,0,l),
(134,699,l),
(59,699,l),
(59,0,l)
);
},
{
closed = 1;
nodes = (
(238,506,l),
(288,570,o),
(303,598,o),
(303,631,cs),
(303,671,o),
(283,699,o),
(251,699,cs),
(225,699,o),
(205,678,o),
(205,654,cs),
(205,629,o),
(225,608,o),
(250,608,c),
(244,581,o),
(229,555,o),
(206,529,c)
);
}
);
width = 303;
},
{
anchors = (
{
name = bottom;
position = "{86, 0}";
},
{
name = top;
position = "{86, 699}";
}
);
layerId = "8CCB427F-D0B4-43D7-A922-FB400ACA0E33";
associatedMasterId = "322D7814-E247-4B41-B6CA-DFE314F8ECB2";
name = bubble;
shapes = (
{
closed = 1;
nodes = (
(172,0,l),
(172,541,l),
(244,488,l),
(290,548,o),
(315,606,o),
(315,657,cs),
(315,718,o),
(275,767,o),
(215,767,cs),
(171,767,o),
(133,739,o),
(121,699,c),
(0,699,l),
(0,0,l)
);
}
);
width = 172;
},
{
anchors = (
{
name = bottom;
position = "{86, 0}";
},
{
name = top;
position = "{86, 699}";
}
);
layerId = "322D7814-E247-4B41-B6CA-DFE314F8ECB2";
shapes = (
{
closed = 1;
nodes = (
(104,0,l),
(104,699,l),
(68,699,l),
(68,0,l)
);
},
{
closed = 1;
nodes = (
(189,528,l),
(228,579,o),
(247,622,o),
(247,657,cs),
(247,684,o),
(234,699,o),
(215,699,cs),
(197,699,o),
(184,686,o),
(184,669,cs),
(184,652,o),
(196,639,o),
(215,639,c),
(208,611,o),
(189,577,o),
(163,547,c)
);
}
);
width = 172;
}
);
leftKerningGroup = lcaron;
rightKerningGroup = lcaron;
unicode = 318;
},
{
color = 1;
glyphname = lslash;
layers = (
{
anchors = (
{
name = bottom;
position = "{193, 0}";
},
{
name = top;
position = "{193, 699}";
}
);
layerId = "40701DA0-09EF-4B99-B0D1-EC8472DC3E62";
associatedMasterId = "0E22ADE5-BDA2-4C31-BFE7-5758CE7315CD";
name = bubble;
shapes = (
{
closed = 1;
nodes = (
(387,0,l),
(387,699,l),
(0,699,l),
(0,0,l)
);
}
);
width = 387;
},
{
anchors = (
{
name = bottom;
position = "{193, 0}";
},
{
name = top;
position = "{193, 699}";
}
);
layerId = "0E22ADE5-BDA2-4C31-BFE7-5758CE7315CD";
shapes = (
{
closed = 1;
nodes = (
(367,350,l),
(367,517,l),
(19,345,l),
(19,178,l)
);
},
{
closed = 1;
nodes = (
(290,0,l),
(290,699,l),
(97,699,l),
(97,0,l)
);
}
);
width = 387;
},
{
anchors = (
{
name = bottom;
position = "{148, 0}";
},
{
name = top;
position = "{148, 699}";
}
);
layerId = "1C1B13CA-6905-46B8-93A6-CEC184E43E2C";
associatedMasterId = "350FB24F-9799-4386-8190-3779153A0BBC";
name = bubble;
shapes = (
{
closed = 1;
nodes = (
(295,0,l),
(295,699,l),
(0,699,l),
(0,0,l)
);
}
);
width = 295;
},
{
anchors = (
{
name = bottom;
position = "{148, 0}";
},
{
name = top;
position = "{148, 699}";
}
);
layerId = "350FB24F-9799-4386-8190-3779153A0BBC";
shapes = (
{
closed = 1;
nodes = (
(264,354,l),
(264,429,l),
(31,309,l),
(31,234,l)
);
},
{
closed = 1;
nodes = (
(185,0,l),
(185,699,l),
(110,699,l),
(110,0,l)
);
}
);
width = 295;
},
{
anchors = (
{
name = bottom;
position = "{143, 0}";
},
{
name = top;
position = "{143, 699}";
}
);
layerId = "8CCB427F-D0B4-43D7-A922-FB400ACA0E33";
associatedMasterId = "322D7814-E247-4B41-B6CA-DFE314F8ECB2";
name = bubble;
shapes = (
{
closed = 1;
nodes = (
(287,0,l),
(287,699,l),
(0,699,l),
(0,0,l)
);
}
);
width = 287;
},
{
anchors = (
{
name = bottom;
position = "{143, 0}";
},
{
name = top;
position = "{143, 699}";
}
);
layerId = "322D7814-E247-4B41-B6CA-DFE314F8ECB2";
shapes = (
{
closed = 1;
nodes = (
(241,349,l),
(241,390,l),
(46,290,l),
(46,249,l)
);
},
{
closed = 1;
nodes = (
(161,0,l),
(161,699,l),
(125,699,l),
(125,0,l)
);
}
);
width = 287;
}
);
leftKerningGroup = lslash;
rightKerningGroup = lslash;
unicode = 322;
},
{
color = 1;
glyphname = m;
layers = (
{
layerId = "40701DA0-09EF-4B99-B0D1-EC8472DC3E62";
associatedMasterId = "0E22ADE5-BDA2-4C31-BFE7-5758CE7315CD";
name = bubble;
shapes = (
{
closed = 1;
nodes = (
(953,0,l),
(953,329,ls),
(953,467,o),
(849,573,o),
(713,573,cs),
(645,573,o),
(587,549,o),
(548,509,c),
(505,549,o),
(448,573,o),
(383,573,cs),
(326,573,o),
(276,552,o),
(241,517,c),
(0,517,l),
(0,1,l)
);
}
);
width = 953;
},
{
layerId = "0E22ADE5-BDA2-4C31-BFE7-5758CE7315CD";
shapes = (
{
closed = 1;
nodes = (
(579,1,l),
(579,329,ls),
(579,446,o),
(491,529,o),
(383,529,cs),
(294,529,o),
(231,467,o),
(231,379,c),
(249,300,l),
(249,340,o),
(279,369,o),
(322,369,cs),
(365,369,o),
(395,338,o),
(395,294,cs),
(395,1,l)
);
},
{
closed = 1;
nodes = (
(249,1,l),
(249,517,l),
(56,517,l),
(56,1,l)
);
},
{
closed = 1;
nodes = (
(909,1,l),
(909,329,ls),
(909,446,o),
(821,529,o),
(713,529,cs),
(612,529,o),
(541,467,o),
(541,379,c),
(579,300,l),
(579,340,o),
(609,369,o),
(652,369,cs),
(695,369,o),
(725,338,o),
(725,294,cs),
(725,1,l)
);
}
);
width = 953;
},
{
layerId = "1C1B13CA-6905-46B8-93A6-CEC184E43E2C";
associatedMasterId = "350FB24F-9799-4386-8190-3779153A0BBC";
name = bubble;
shapes = (
{
closed = 1;
nodes = (
(850,0,l),
(850,329,ls),
(850,473,o),
(752,579,o),
(616,579,cs),
(547,579,o),
(486,557,o),
(439,519,c),
(398,557,o),
(344,579,o),
(282,579,cs),
(219,579,o),
(164,556,o),
(125,517,c),
(0,517,l),
(0,0,l)
);
}
);
width = 850;
},
{
layerId = "350FB24F-9799-4386-8190-3779153A0BBC";
shapes = (
{
closed = 1;
nodes = (
(466,0,l),
(466,329,ls),
(466,446,o),
(390,529,o),
(282,529,cs),
(190,529,o),
(121,467,o),
(116,379,c),
(132,329,l),
(132,407,o),
(190,462,o),
(272,462,cs),
(342,462,o),
(391,403,o),
(391,319,cs),
(391,0,l)
);
},
{
closed = 1;
nodes = (
(132,0,l),
(132,517,l),
(57,517,l),
(57,0,l)
);
},
{
closed = 1;
nodes = (
(800,0,l),
(800,329,ls),
(800,446,o),
(724,529,o),
(616,529,cs),
(493,529,o),
(402,447,o),
(395,329,c),
(466,329,l),
(466,407,o),
(524,462,o),
(606,462,cs),
(676,462,o),
(725,403,o),
(725,319,cs),
(725,0,l)
);
}
);
width = 850;
},
{
layerId = "8CCB427F-D0B4-43D7-A922-FB400ACA0E33";
associatedMasterId = "322D7814-E247-4B41-B6CA-DFE314F8ECB2";
name = bubble;
shapes = (
{
closed = 1;
nodes = (
(837,0,l),
(837,339,ls),
(837,484,o),
(737,592,o),
(599,592,cs),
(530,592,o),
(469,569,o),
(424,530,c),
(383,569,o),
(328,592,o),
(264,592,cs),
(187,592,o),
(121,564,o),
(80,517,c),
(0,517,l),
(0,-1,l)
);
}
);
width = 837;
},
{
layerId = "322D7814-E247-4B41-B6CA-DFE314F8ECB2";
shapes = (
{
closed = 1;
nodes = (
(439,-1,l),
(439,339,ls),
(439,450,o),
(367,529,o),
(264,529,cs),
(165,529,o),
(95,472,o),
(95,391,c),
(104,339,l),
(104,429,o),
(168,493,o),
(259,493,cs),
(343,493,o),
(403,427,o),
(403,334,cs),
(403,-1,l)
);
},
{
closed = 1;
nodes = (
(104,-1,l),
(104,517,l),
(68,517,l),
(68,-1,l)
);
},
{
closed = 1;
nodes = (
(774,-1,l),
(774,339,ls),
(774,450,o),
(702,529,o),
(599,529,cs),
(484,529,o),
(404,451,o),
(404,339,c),
(439,339,l),
(439,429,o),
(503,493,o),
(594,493,cs),
(678,493,o),
(738,427,o),
(738,334,cs),
(738,-1,l)
);
}
);
width = 837;
}
);
leftKerningGroup = m;
rightKerningGroup = m;
unicode = 109;
},
{
color = 1;
glyphname = n;
layers = (
{
anchors = (
{
name = bottom;
position = "{314, 0}";
},
{
name = top;
position = "{314, 517}";
}
);
layerId = "40701DA0-09EF-4B99-B0D1-EC8472DC3E62";
associatedMasterId = "0E22ADE5-BDA2-4C31-BFE7-5758CE7315CD";
name = bubble;
shapes = (
{
closed = 1;
nodes = (
(629,0,l),
(629,329,ls),
(629,470,o),
(531,573,o),
(395,573,cs),
(333,573,o),
(278,552,o),
(238,517,c),
(0,517,l),
(0,0,l)
);
}
);
width = 629;
},
{
anchors = (
{
name = bottom;
position = "{314, 0}";
},
{
name = top;
position = "{314, 517}";
}
);
layerId = "0E22ADE5-BDA2-4C31-BFE7-5758CE7315CD";
shapes = (
{
closed = 1;
nodes = (
(585,0,l),
(585,329,ls),
(585,446,o),
(506,529,o),
(395,529,cs),
(296,529,o),
(222,467,o),
(217,379,c),
(249,290,l),
(249,336,o),
(280,369,o),
(323,369,cs),
(369,369,o),
(401,334,o),
(401,284,cs),
(401,0,l)
);
},
{
closed = 1;
nodes = (
(249,0,l),
(249,517,l),
(56,517,l),
(56,0,l)
);
}
);
width = 629;
},
{
anchors = (
{
name = bottom;
position = "{276, 0}";
},
{
name = top;
position = "{276, 517}";
}
);
layerId = "1C1B13CA-6905-46B8-93A6-CEC184E43E2C";
associatedMasterId = "350FB24F-9799-4386-8190-3779153A0BBC";
name = bubble;
shapes = (
{
closed = 1;
nodes = (
(546,0,l),
(546,329,ls),
(546,475,o),
(445,579,o),
(302,579,cs),
(236,579,o),
(175,554,o),
(132,514,c),
(132,517,l),
(0,517,l),
(0,0,l)
);
}
);
width = 546;
},
{
anchors = (
{
name = bottom;
position = "{276, 0}";
},
{
name = top;
position = "{276, 517}";
}
);
layerId = "350FB24F-9799-4386-8190-3779153A0BBC";
shapes = (
{
closed = 1;
nodes = (
(496,0,l),
(496,329,ls),
(496,448,o),
(417,529,o),
(302,529,cs),
(205,529,o),
(121,462,o),
(116,379,c),
(132,329,l),
(132,402,o),
(204,462,o),
(292,462,cs),
(368,462,o),
(421,404,o),
(421,319,cs),
(421,0,l)
);
},
{
closed = 1;
nodes = (
(132,0,l),
(132,517,l),
(57,517,l),
(57,0,l)
);
}
);
width = 546;
},
{
anchors = (
{
name = bottom;
position = "{268, 0}";
},
{
name = top;
position = "{268, 517}";
}
);
layerId = "8CCB427F-D0B4-43D7-A922-FB400ACA0E33";
associatedMasterId = "322D7814-E247-4B41-B6CA-DFE314F8ECB2";
name = bubble;
shapes = (
{
closed = 1;
nodes = (
(529,0,l),
(529,339,ls),
(529,484,o),
(421,591,o),
(274,591,cs),
(199,591,o),
(134,563,o),
(90,517,c),
(0,517,l),
(0,0,l)
);
}
);
width = 529;
},
{
anchors = (
{
name = bottom;
position = "{268, 0}";
},
{
name = top;
position = "{268, 517}";
}
);
layerId = "322D7814-E247-4B41-B6CA-DFE314F8ECB2";
shapes = (
{
closed = 1;
nodes = (
(467,0,l),
(467,339,ls),
(467,450,o),
(387,529,o),
(274,529,cs),
(167,529,o),
(91,459,o),
(91,360,c),
(104,330,l),
(104,425,o),
(172,493,o),
(269,493,cs),
(364,493,o),
(431,427,o),
(431,334,cs),
(431,0,l)
);
},
{
closed = 1;
nodes = (
(104,0,l),
(104,517,l),
(68,517,l),
(68,0,l)
);
}
);
width = 529;
}
);
leftKerningGroup = n;
rightKerningGroup = n;
unicode = 110;
},
{
color = 1;
glyphname = o;
layers = (
{
anchors = (
{
name = top;
position = "{311, 517}";
}
);
layerId = "40701DA0-09EF-4B99-B0D1-EC8472DC3E62";
associatedMasterId = "0E22ADE5-BDA2-4C31-BFE7-5758CE7315CD";
name = bubble;
shapes = (
{
closed = 1;
nodes = (
(481,-30,o),
(621,100,o),
(621,259,cs),
(621,418,o),
(481,547,o),
(311,547,cs),
(140,547,o),
(0,418,o),
(0,259,cs),
(0,100,o),
(141,-30,o),
(311,-30,cs)
);
}
);
width = 621;
},
{
anchors = (
{
name = top;
position = "{311, 517}";
}
);
layerId = "0E22ADE5-BDA2-4C31-BFE7-5758CE7315CD";
shapes = (
{
closed = 1;
nodes = (
(472,-12,o),
(603,110,o),
(603,259,cs),
(603,408,o),
(472,529,o),
(311,529,cs),
(150,529,o),
(18,408,o),
(18,259,cs),
(18,110,o),
(150,-12,o),
(311,-12,cs)
);
},
{
closed = 1;
nodes = (
(250,148,o),
(200,198,o),
(200,259,cs),
(200,320,o),
(250,369,o),
(311,369,cs),
(372,369,o),
(421,320,o),
(421,259,cs),
(421,198,o),
(372,148,o),
(311,148,cs)
);
}
);
width = 621;
},
{
anchors = (
{
name = top;
position = "{302, 517}";
}
);
layerId = "1C1B13CA-6905-46B8-93A6-CEC184E43E2C";
associatedMasterId = "350FB24F-9799-4386-8190-3779153A0BBC";
name = bubble;
shapes = (
{
closed = 1;
nodes = (
(467,-47,o),
(603,91,o),
(603,259,cs),
(603,427,o),
(468,564,o),
(302,564,cs),
(136,564,o),
(0,427,o),
(0,259,cs),
(0,91,o),
(136,-47,o),
(302,-47,cs)
);
}
);
width = 603;
},
{
anchors = (
{
name = top;
position = "{302, 517}";
}
);
layerId = "350FB24F-9799-4386-8190-3779153A0BBC";
shapes = (
{
closed = 1;
nodes = (
(448,-12,o),
(568,110,o),
(568,259,cs),
(568,408,o),
(448,529,o),
(302,529,cs),
(155,529,o),
(35,408,o),
(35,259,cs),
(35,110,o),
(155,-12,o),
(302,-12,cs)
);
},
{
closed = 1;
nodes = (
(198,55,o),
(113,147,o),
(113,259,cs),
(113,371,o),
(198,462,o),
(302,462,cs),
(405,462,o),
(490,371,o),
(490,259,cs),
(490,147,o),
(405,55,o),
(302,55,cs)
);
}
);
width = 603;
},
{
anchors = (
{
name = top;
position = "{318, 517}";
}
);
layerId = "8CCB427F-D0B4-43D7-A922-FB400ACA0E33";
associatedMasterId = "322D7814-E247-4B41-B6CA-DFE314F8ECB2";
name = bubble;
shapes = (
{
closed = 1;
nodes = (
(490,-62,o),
(635,84,o),
(635,259,cs),
(635,433,o),
(491,579,o),
(318,579,cs),
(145,579,o),
(0,433,o),
(0,259,cs),
(0,85,o),
(145,-62,o),
(318,-62,cs)
);
}
);
width = 635;
},
{
anchors = (
{
name = top;
position = "{318, 517}";
}
);
layerId = "322D7814-E247-4B41-B6CA-DFE314F8ECB2";
shapes = (
{
closed = 1;
nodes = (
(463,-12,o),
(585,112,o),
(585,259,cs),
(585,406,o),
(463,529,o),
(318,529,cs),
(173,529,o),
(50,406,o),
(50,259,cs),
(50,112,o),
(173,-12,o),
(318,-12,cs)
);
},
{
closed = 1;
nodes = (
(192,24,o),
(86,131,o),
(86,259,cs),
(86,386,o),
(192,493,o),
(318,493,cs),
(443,493,o),
(549,386,o),
(549,259,cs),
(549,131,o),
(443,24,o),
(318,24,cs)
);
}
);
width = 635;
}
);
leftKerningGroup = o;
rightKerningGroup = o;
unicode = 111;
},
{
color = 1;
glyphname = oslash;
layers = (
{
anchors = (
{
name = top;
position = "{319, 517}";
}
);
layerId = "40701DA0-09EF-4B99-B0D1-EC8472DC3E62";
associatedMasterId = "0E22ADE5-BDA2-4C31-BFE7-5758CE7315CD";
name = bubble;
shapes = (
{
closed = 1;
nodes = (
(165,0,l),
(211,-24,o),
(263,-37,o),
(319,-37,cs),
(493,-37,o),
(636,96,o),
(636,259,cs),
(636,327,o),
(611,390,o),
(569,440,c),
(636,517,l),
(473,517,l),
(427,541,o),
(375,554,o),
(319,554,cs),
(144,554,o),
(0,422,o),
(0,259,cs),
(0,191,o),
(25,128,o),
(67,78,c),
(0,0,l)
);
}
);
width = 636;
},
{
anchors = (
{
name = top;
position = "{319, 517}";
}
);
layerId = "0E22ADE5-BDA2-4C31-BFE7-5758CE7315CD";
shapes = (
{
closed = 1;
nodes = (
(152,0,l),
(602,517,l),
(482,517,l),
(32,0,l)
);
},
{
closed = 1;
nodes = (
(480,-12,o),
(611,110,o),
(611,259,cs),
(611,408,o),
(480,529,o),
(319,529,cs),
(158,529,o),
(26,408,o),
(26,259,cs),
(26,110,o),
(158,-12,o),
(319,-12,cs)
);
},
{
closed = 1;
nodes = (
(258,148,o),
(208,198,o),
(208,259,cs),
(208,320,o),
(258,369,o),
(319,369,cs),
(380,369,o),
(429,320,o),
(429,259,cs),
(429,198,o),
(380,148,o),
(319,148,cs)
);
}
);
width = 636;
},
{
anchors = (
{
name = top;
position = "{303, 517}";
}
);
layerId = "1C1B13CA-6905-46B8-93A6-CEC184E43E2C";
associatedMasterId = "350FB24F-9799-4386-8190-3779153A0BBC";
name = bubble;
shapes = (
{
closed = 1;
nodes = (
(141,0,l),
(188,-30,o),
(243,-48,o),
(303,-48,cs),
(469,-48,o),
(605,90,o),
(605,259,cs),
(605,327,o),
(583,390,o),
(546,441,c),
(611,517,l),
(465,517,l),
(418,547,o),
(363,565,o),
(303,565,cs),
(136,565,o),
(0,428,o),
(0,259,cs),
(0,189,o),
(23,125,o),
(62,73,c),
(0,0,l)
);
}
);
width = 611;
},
{
anchors = (
{
name = top;
position = "{303, 517}";
}
);
layerId = "350FB24F-9799-4386-8190-3779153A0BBC";
shapes = (
{
closed = 1;
nodes = (
(133,0,l),
(574,517,l),
(489,517,l),
(48,0,l)
);
},
{
closed = 1;
nodes = (
(449,-12,o),
(569,110,o),
(569,259,cs),
(569,408,o),
(449,529,o),
(303,529,cs),
(156,529,o),
(36,408,o),
(36,259,cs),
(36,110,o),
(156,-12,o),
(303,-12,cs)
);
},
{
closed = 1;
nodes = (
(199,55,o),
(114,147,o),
(114,259,cs),
(114,371,o),
(199,462,o),
(303,462,cs),
(406,462,o),
(491,371,o),
(491,259,cs),
(491,147,o),
(406,55,o),
(303,55,cs)
);
}
);
width = 611;
},
{
anchors = (
{
name = top;
position = "{318, 517}";
}
);
layerId = "8CCB427F-D0B4-43D7-A922-FB400ACA0E33";
associatedMasterId = "322D7814-E247-4B41-B6CA-DFE314F8ECB2";
name = bubble;
shapes = (
{
closed = 1;
nodes = (
(0,181,o),
(29,109,o),
(76,53,c),
(31,0,l),
(133,0,l),
(185,-39,o),
(249,-62,o),
(318,-62,cs),
(490,-62,o),
(635,84,o),
(635,259,cs),
(635,332,o),
(610,400,o),
(567,455,c),
(620,517,l),
(504,517,l),
(451,556,o),
(387,579,o),
(318,579,cs),
(145,579,o),
(0,433,o),
(0,259,cs)
);
}
);
width = 635;
},
{
anchors = (
{
name = top;
position = "{318, 517}";
}
);
layerId = "322D7814-E247-4B41-B6CA-DFE314F8ECB2";
shapes = (
{
closed = 1;
nodes = (
(129,0,l),
(570,517,l),
(522,517,l),
(81,0,l)
);
},
{
closed = 1;
nodes = (
(463,-12,o),
(585,112,o),
(585,259,cs),
(585,406,o),
(463,529,o),
(318,529,cs),
(173,529,o),
(50,406,o),
(50,259,cs),
(50,112,o),
(173,-12,o),
(318,-12,cs)
);
},
{
closed = 1;
nodes = (
(192,24,o),
(86,131,o),
(86,259,cs),
(86,386,o),
(192,493,o),
(318,493,cs),
(443,493,o),
(549,386,o),
(549,259,cs),
(549,131,o),
(443,24,o),
(318,24,cs)
);
}
);
width = 635;
}
);
leftKerningGroup = oslash;
rightKerningGroup = oslash;
unicode = 248;
},
{
color = 1;
glyphname = oe;
layers = (
{
anchors = (
{
name = bottom;
position = "{712, -12}";
},
{
name = top;
position = "{311, 517}";
}
);
layerId = "40701DA0-09EF-4B99-B0D1-EC8472DC3E62";
associatedMasterId = "0E22ADE5-BDA2-4C31-BFE7-5758CE7315CD";
name = bubble;
shapes = (
{
closed = 1;
nodes = (
(0,102,o),
(141,-28,o),
(311,-28,cs),
(383,-28,o),
(453,-4,o),
(507,39,c),
(560,-4,o),
(631,-28,o),
(707,-28,cs),
(789,-28,o),
(882,7,o),
(931,57,c),
(802,186,l),
(771,162,o),
(733,148,o),
(699,148,cs),
(666,148,o),
(641,166,o),
(627,197,c),
(982,197,l),
(988,412,o),
(880,545,o),
(699,545,cs),
(626,545,o),
(558,522,o),
(506,480,c),
(452,522,o),
(383,545,o),
(311,545,cs),
(140,545,o),
(0,417,o),
(0,260,cs)
);
}
);
width = 982;
},
{
anchors = (
{
name = bottom;
position = "{712, -12}";
},
{
name = top;
position = "{311, 517}";
}
);
layerId = "0E22ADE5-BDA2-4C31-BFE7-5758CE7315CD";
shapes = (
{
closed = 1;
nodes = (
(387,-12,o),
(456,15,o),
(507,60,c),
(557,15,o),
(627,-12,o),
(707,-12,cs),
(786,-12,o),
(874,21,o),
(920,68,c),
(814,175,l),
(780,148,o),
(738,132,o),
(699,132,cs),
(636,132,o),
(600,186,o),
(600,260,cs),
(600,334,o),
(636,385,o),
(699,385,cs),
(755,385,o),
(790,335,o),
(790,265,c),
(837,314,l),
(580,314,l),
(580,213,l),
(968,213,l),
(968,412,o),
(865,529,o),
(699,529,cs),
(622,529,o),
(555,503,o),
(506,459,c),
(455,503,o),
(386,529,o),
(311,529,cs),
(150,529,o),
(18,409,o),
(18,260,cs),
(18,111,o),
(150,-12,o),
(311,-12,cs)
);
},
{
closed = 1;
nodes = (
(250,148,o),
(200,199,o),
(200,260,cs),
(200,321,o),
(250,369,o),
(311,369,cs),
(372,369,o),
(421,321,o),
(421,260,cs),
(421,199,o),
(372,148,o),
(311,148,cs)
);
}
);
width = 982;
},
{
anchors = (
{
name = bottom;
position = "{725, -12}";
},
{
name = top;
position = "{302, 517}";
}
);
layerId = "1C1B13CA-6905-46B8-93A6-CEC184E43E2C";
associatedMasterId = "350FB24F-9799-4386-8190-3779153A0BBC";
name = bubble;
shapes = (
{
closed = 1;
nodes = (
(0,92,o),
(137,-45,o),
(302,-45,cs),
(389,-45,o),
(471,-6,o),
(528,61,c),
(583,-5,o),
(665,-45,o),
(752,-45,cs),
(837,-45,o),
(934,-7,o),
(983,44,c),
(891,141,l),
(866,112,o),
(804,88,o),
(751,88,cs),
(682,88,o),
(629,130,o),
(609,197,c),
(1022,197,l),
(1028,420,o),
(925,562,o),
(745,562,cs),
(660,562,o),
(581,523,o),
(526,458,c),
(470,524,o),
(389,562,o),
(302,562,cs),
(136,562,o),
(0,427,o),
(0,260,cs)
);
}
);
width = 1022;
},
{
anchors = (
{
name = bottom;
position = "{725, -12}";
},
{
name = top;
position = "{302, 517}";
}
);
layerId = "350FB24F-9799-4386-8190-3779153A0BBC";
shapes = (
{
closed = 1;
nodes = (
(397,-12,o),
(481,40,o),
(528,118,c),
(575,38,o),
(660,-12,o),
(752,-12,cs),
(824,-12,o),
(915,19,o),
(960,68,c),
(914,117,l),
(882,82,o),
(812,55,o),
(751,55,cs),
(639,55,o),
(567,144,o),
(567,260,cs),
(567,380,o),
(645,462,o),
(748,462,cs),
(861,462,o),
(917,374,o),
(917,268,c),
(960,297,l),
(541,297,l),
(541,230,l),
(990,230,l),
(990,411,o),
(901,529,o),
(745,529,cs),
(654,529,o),
(572,479,o),
(527,402,c),
(480,478,o),
(397,529,o),
(302,529,cs),
(155,529,o),
(35,409,o),
(35,260,cs),
(35,111,o),
(155,-12,o),
(302,-12,cs)
);
},
{
closed = 1;
nodes = (
(198,55,o),
(113,148,o),
(113,260,cs),
(113,372,o),
(198,462,o),
(302,462,cs),
(405,462,o),
(490,372,o),
(490,260,cs),
(490,148,o),
(405,55,o),
(302,55,cs)
);
}
);
width = 1022;
},
{
anchors = (
{
name = bottom;
position = "{805, -12}";
},
{
name = top;
position = "{318, 517}";
}
);
layerId = "8CCB427F-D0B4-43D7-A922-FB400ACA0E33";
associatedMasterId = "322D7814-E247-4B41-B6CA-DFE314F8ECB2";
name = bubble;
shapes = (
{
closed = 1;
nodes = (
(0,86,o),
(146,-60,o),
(318,-60,cs),
(414,-60,o),
(506,-12,o),
(565,64,c),
(622,-12,o),
(710,-60,o),
(803,-60,cs),
(897,-60,o),
(999,-22,o),
(1051,33,c),
(962,130,l),
(930,94,o),
(871,72,o),
(803,72,cs),
(733,72,o),
(669,123,o),
(644,194,c),
(1095,194,l),
(1110,418,o),
(992,577,o),
(803,577,cs),
(707,577,o),
(620,531,o),
(564,456,c),
(505,531,o),
(415,577,o),
(318,577,cs),
(146,577,o),
(0,433,o),
(0,260,cs)
);
}
);
width = 1096;
},
{
anchors = (
{
name = bottom;
position = "{805, -12}";
},
{
name = top;
position = "{318, 517}";
}
);
layerId = "322D7814-E247-4B41-B6CA-DFE314F8ECB2";
shapes = (
{
closed = 1;
nodes = (
(429,-12,o),
(527,62,o),
(566,162,c),
(604,61,o),
(697,-12,o),
(803,-12,cs),
(886,-12,o),
(976,21,o),
(1019,68,c),
(994,95,l),
(951,48,o),
(877,24,o),
(803,24,cs),
(685,24,o),
(585,132,o),
(585,260,cs),
(585,390,o),
(681,493,o),
(803,493,cs),
(929,493,o),
(1013,401,o),
(1013,264,c),
(1029,278,l),
(570,278,l),
(570,242,l),
(1049,242,l),
(1049,414,o),
(951,529,o),
(803,529,cs),
(694,529,o),
(602,459,o),
(566,358,c),
(526,458,o),
(429,529,o),
(318,529,cs),
(173,529,o),
(50,407,o),
(50,260,cs),
(50,113,o),
(173,-12,o),
(318,-12,cs)
);
},
{
closed = 1;
nodes = (
(192,24,o),
(86,132,o),
(86,260,cs),
(86,387,o),
(192,493,o),
(318,493,cs),
(443,493,o),
(549,387,o),
(549,260,cs),
(549,132,o),
(443,24,o),
(318,24,cs)
);
}
);
width = 1096;
}
);
leftKerningGroup = o;
rightKerningGroup = e;
unicode = 339;
},
{
color = 1;
glyphname = p;
layers = (
{
layerId = "40701DA0-09EF-4B99-B0D1-EC8472DC3E62";
associatedMasterId = "0E22ADE5-BDA2-4C31-BFE7-5758CE7315CD";
name = bubble;
shapes = (
{
closed = 1;
nodes = (
(313,-172,l),
(313,-9,l),
(346,-25,o),
(382,-34,o),
(422,-34,cs),
(574,-34,o),
(682,88,o),
(682,259,cs),
(682,430,o),
(574,551,o),
(422,551,cs),
(375,551,o),
(333,539,o),
(296,517,c),
(0,517,l),
(0,-172,l)
);
}
);
width = 682;
},
{
layerId = "0E22ADE5-BDA2-4C31-BFE7-5758CE7315CD";
shapes = (
{
closed = 1;
nodes = (
(561,-12,o),
(659,100,o),
(659,259,cs),
(659,417,o),
(561,529,o),
(422,529,cs),
(286,529,o),
(189,417,o),
(189,259,cs),
(189,100,o),
(286,-12,o),
(422,-12,cs)
);
},
{
closed = 1;
nodes = (
(300,148,o),
(257,194,o),
(257,259,cs),
(257,323,o),
(300,369,o),
(361,369,cs),
(428,369,o),
(475,323,o),
(475,259,cs),
(475,194,o),
(428,148,o),
(361,148,cs)
);
},
{
closed = 1;
nodes = (
(257,-172,l),
(257,517,l),
(64,517,l),
(64,-172,l)
);
}
);
width = 682;
},
{
layerId = "1C1B13CA-6905-46B8-93A6-CEC184E43E2C";
associatedMasterId = "350FB24F-9799-4386-8190-3779153A0BBC";
name = bubble;
shapes = (
{
closed = 1;
nodes = (
(191,-172,l),
(191,-13,l),
(229,-36,o),
(273,-49,o),
(322,-49,cs),
(481,-49,o),
(596,82,o),
(596,259,cs),
(596,435,o),
(480,566,o),
(322,566,cs),
(264,566,o),
(213,549,o),
(171,517,c),
(0,517,l),
(0,-172,l)
);
}
);
width = 596;
},
{
layerId = "350FB24F-9799-4386-8190-3779153A0BBC";
shapes = (
{
closed = 1;
nodes = (
(458,-12,o),
(560,100,o),
(560,259,cs),
(560,417,o),
(458,529,o),
(322,529,cs),
(185,529,o),
(95,417,o),
(95,259,cs),
(95,100,o),
(185,-12,o),
(322,-12,cs)
);
},
{
closed = 1;
nodes = (
(206,55,o),
(134,140,o),
(134,259,cs),
(134,378,o),
(206,462,o),
(308,462,cs),
(409,462,o),
(481,378,o),
(481,259,cs),
(481,140,o),
(409,55,o),
(308,55,cs)
);
},
{
closed = 1;
nodes = (
(134,-172,l),
(134,517,l),
(59,517,l),
(59,-172,l)
);
}
);
width = 596;
},
{
layerId = "8CCB427F-D0B4-43D7-A922-FB400ACA0E33";
associatedMasterId = "322D7814-E247-4B41-B6CA-DFE314F8ECB2";
name = bubble;
shapes = (
{
closed = 1;
nodes = (
(172,-172,l),
(172,-28,l),
(212,-50,o),
(258,-62,o),
(308,-62,cs),
(462,-62,o),
(590,85,o),
(590,259,cs),
(590,433,o),
(463,579,o),
(308,579,cs),
(239,579,o),
(178,557,o),
(129,517,c),
(0,517,l),
(0,-172,l)
);
}
);
width = 590;
},
{
layerId = "322D7814-E247-4B41-B6CA-DFE314F8ECB2";
shapes = (
{
closed = 1;
nodes = (
(434,-12,o),
(540,112,o),
(540,259,cs),
(540,406,o),
(434,529,o),
(308,529,cs),
(167,529,o),
(68,417,o),
(68,259,cs),
(68,100,o),
(167,-12,o),
(308,-12,cs)
);
},
{
closed = 1;
nodes = (
(186,24,o),
(104,121,o),
(104,259,cs),
(104,396,o),
(186,493,o),
(301,493,cs),
(411,493,o),
(504,386,o),
(504,259,cs),
(504,131,o),
(411,24,o),
(301,24,cs)
);
},
{
closed = 1;
nodes = (
(104,-172,l),
(104,517,l),
(68,517,l),
(68,-172,l)
);
}
);
width = 590;
}
);
leftKerningGroup = p;
rightKerningGroup = p;
unicode = 112;
},
{
color = 1;
glyphname = thorn;
layers = (
{
layerId = "40701DA0-09EF-4B99-B0D1-EC8472DC3E62";
associatedMasterId = "0E22ADE5-BDA2-4C31-BFE7-5758CE7315CD";
name = bubble;
shapes = (
{
closed = 1;
nodes = (
(582,-35,o),
(690,87,o),
(690,259,cs),
(690,429,o),
(582,552,o),
(430,552,cs),
(281,552,o),
(174,429,o),
(174,259,cs),
(174,88,o),
(280,-35,o),
(430,-35,cs)
);
},
{
closed = 1;
nodes = (
(337,-172,l),
(337,699,l),
(0,699,l),
(0,-172,l)
);
}
);
width = 690;
},
{
layerId = "0E22ADE5-BDA2-4C31-BFE7-5758CE7315CD";
shapes = (
{
closed = 1;
nodes = (
(569,-12,o),
(667,100,o),
(667,259,cs),
(667,417,o),
(569,529,o),
(430,529,cs),
(294,529,o),
(197,417,o),
(197,259,cs),
(197,100,o),
(294,-12,o),
(430,-12,cs)
);
},
{
closed = 1;
nodes = (
(308,148,o),
(265,194,o),
(265,259,cs),
(265,323,o),
(308,369,o),
(369,369,cs),
(436,369,o),
(483,323,o),
(483,259,cs),
(483,194,o),
(436,148,o),
(369,148,cs)
);
},
{
closed = 1;
nodes = (
(265,-172,l),
(265,699,l),
(72,699,l),
(72,-172,l)
);
}
);
width = 690;
},
{
layerId = "1C1B13CA-6905-46B8-93A6-CEC184E43E2C";
associatedMasterId = "350FB24F-9799-4386-8190-3779153A0BBC";
name = bubble;
shapes = (
{
closed = 1;
nodes = (
(195,-172,l),
(195,-15,l),
(232,-36,o),
(275,-48,o),
(323,-48,cs),
(481,-48,o),
(597,82,o),
(597,259,cs),
(597,435,o),
(481,565,o),
(323,565,cs),
(275,565,o),
(232,553,o),
(195,532,c),
(195,699,l),
(0,699,l),
(0,-172,l)
);
}
);
width = 597;
},
{
layerId = "350FB24F-9799-4386-8190-3779153A0BBC";
shapes = (
{
closed = 1;
nodes = (
(459,-12,o),
(561,100,o),
(561,259,cs),
(561,417,o),
(459,529,o),
(323,529,cs),
(186,529,o),
(96,417,o),
(96,259,cs),
(96,100,o),
(186,-12,o),
(323,-12,cs)
);
},
{
closed = 1;
nodes = (
(207,55,o),
(135,140,o),
(135,259,cs),
(135,378,o),
(207,462,o),
(309,462,cs),
(410,462,o),
(482,378,o),
(482,259,cs),
(482,140,o),
(410,55,o),
(309,55,cs)
);
},
{
closed = 1;
nodes = (
(135,-172,l),
(135,699,l),
(60,699,l),
(60,-172,l)
);
}
);
width = 597;
},
{
layerId = "8CCB427F-D0B4-43D7-A922-FB400ACA0E33";
associatedMasterId = "322D7814-E247-4B41-B6CA-DFE314F8ECB2";
name = bubble;
shapes = (
{
closed = 1;
nodes = (
(172,-172,l),
(172,-28,l),
(212,-50,o),
(258,-62,o),
(308,-62,cs),
(462,-62,o),
(590,85,o),
(590,259,cs),
(590,433,o),
(463,579,o),
(308,579,cs),
(258,579,o),
(212,567,o),
(172,545,c),
(172,699,l),
(0,699,l),
(0,-172,l)
);
}
);
width = 590;
},
{
layerId = "322D7814-E247-4B41-B6CA-DFE314F8ECB2";
shapes = (
{
closed = 1;
nodes = (
(434,-12,o),
(540,112,o),
(540,259,cs),
(540,406,o),
(434,529,o),
(308,529,cs),
(167,529,o),
(68,417,o),
(68,259,cs),
(68,100,o),
(167,-12,o),
(308,-12,cs)
);
},
{
closed = 1;
nodes = (
(186,24,o),
(104,121,o),
(104,259,cs),
(104,396,o),
(186,493,o),
(301,493,cs),
(411,493,o),
(504,386,o),
(504,259,cs),
(504,131,o),
(411,24,o),
(301,24,cs)
);
},
{
closed = 1;
nodes = (
(104,-172,l),
(104,699,l),
(68,699,l),
(68,-172,l)
);
}
);
width = 590;
}
);
leftKerningGroup = thorn;
rightKerningGroup = thorn;
unicode = 254;
},
{
color = 1;
glyphname = q;
layers = (
{
layerId = "40701DA0-09EF-4B99-B0D1-EC8472DC3E62";
associatedMasterId = "0E22ADE5-BDA2-4C31-BFE7-5758CE7315CD";
name = bubble;
shapes = (
{
closed = 1;
nodes = (
(682,-172,l),
(682,517,l),
(386,517,l),
(349,539,o),
(307,551,o),
(260,551,cs),
(108,551,o),
(0,430,o),
(0,259,cs),
(0,88,o),
(108,-34,o),
(260,-34,cs),
(300,-34,o),
(336,-25,o),
(369,-9,c),
(369,-172,l)
);
}
);
width = 682;
},
{
layerId = "0E22ADE5-BDA2-4C31-BFE7-5758CE7315CD";
shapes = (
{
closed = 1;
nodes = (
(618,-172,l),
(618,517,l),
(425,517,l),
(425,-172,l)
);
},
{
closed = 1;
nodes = (
(396,-12,o),
(493,100,o),
(493,259,cs),
(493,417,o),
(396,529,o),
(260,529,cs),
(121,529,o),
(23,417,o),
(23,259,cs),
(23,100,o),
(121,-12,o),
(260,-12,cs)
);
},
{
closed = 1;
nodes = (
(254,148,o),
(207,194,o),
(207,259,cs),
(207,323,o),
(254,369,o),
(321,369,cs),
(382,369,o),
(425,323,o),
(425,259,cs),
(425,194,o),
(382,148,o),
(321,148,cs)
);
}
);
width = 682;
},
{
layerId = "1C1B13CA-6905-46B8-93A6-CEC184E43E2C";
associatedMasterId = "350FB24F-9799-4386-8190-3779153A0BBC";
name = bubble;
shapes = (
{
closed = 1;
nodes = (
(597,-172,l),
(597,517,l),
(426,517,l),
(384,549,o),
(333,566,o),
(275,566,cs),
(117,566,o),
(0,435,o),
(0,259,cs),
(0,82,o),
(116,-49,o),
(275,-49,cs),
(324,-49,o),
(368,-36,o),
(406,-13,c),
(406,-172,l)
);
}
);
width = 597;
},
{
layerId = "350FB24F-9799-4386-8190-3779153A0BBC";
shapes = (
{
closed = 1;
nodes = (
(538,-172,l),
(538,517,l),
(463,517,l),
(463,-172,l)
);
},
{
closed = 1;
nodes = (
(412,-12,o),
(502,100,o),
(502,259,cs),
(502,417,o),
(412,529,o),
(275,529,cs),
(139,529,o),
(37,417,o),
(37,259,cs),
(37,100,o),
(139,-12,o),
(275,-12,cs)
);
},
{
closed = 1;
nodes = (
(188,55,o),
(116,140,o),
(116,259,cs),
(116,378,o),
(188,462,o),
(289,462,cs),
(391,462,o),
(463,378,o),
(463,259,cs),
(463,140,o),
(391,55,o),
(289,55,cs)
);
}
);
width = 597;
},
{
layerId = "8CCB427F-D0B4-43D7-A922-FB400ACA0E33";
associatedMasterId = "322D7814-E247-4B41-B6CA-DFE314F8ECB2";
name = bubble;
shapes = (
{
closed = 1;
nodes = (
(590,-172,l),
(590,517,l),
(461,517,l),
(412,557,o),
(351,579,o),
(282,579,cs),
(127,579,o),
(0,433,o),
(0,259,cs),
(0,85,o),
(128,-62,o),
(282,-62,cs),
(332,-62,o),
(378,-50,o),
(418,-28,c),
(418,-172,l)
);
}
);
width = 590;
},
{
layerId = "322D7814-E247-4B41-B6CA-DFE314F8ECB2";
shapes = (
{
closed = 1;
nodes = (
(522,-172,l),
(522,517,l),
(486,517,l),
(486,-172,l)
);
},
{
closed = 1;
nodes = (
(423,-12,o),
(522,100,o),
(522,259,cs),
(522,417,o),
(423,529,o),
(282,529,cs),
(156,529,o),
(50,406,o),
(50,259,cs),
(50,112,o),
(156,-12,o),
(282,-12,cs)
);
},
{
closed = 1;
nodes = (
(179,24,o),
(86,131,o),
(86,259,cs),
(86,386,o),
(179,493,o),
(289,493,cs),
(404,493,o),
(486,396,o),
(486,259,cs),
(486,121,o),
(404,24,o),
(289,24,cs)
);
}
);
width = 590;
}
);
leftKerningGroup = q;
rightKerningGroup = q;
unicode = 113;
},
{
color = 1;
glyphname = r;
layers = (
{
anchors = (
{
name = bottom;
position = "{235, 0}";
},
{
name = top;
position = "{235, 517}";
}
);
layerId = "40701DA0-09EF-4B99-B0D1-EC8472DC3E62";
associatedMasterId = "0E22ADE5-BDA2-4C31-BFE7-5758CE7315CD";
name = bubble;
shapes = (
{
closed = 1;
nodes = (
(305,0,l),
(305,219,ls),
(305,286,o),
(345,317,o),
(427,312,c),
(427,584,l),
(356,589,o),
(294,563,o),
(248,517,c),
(0,517,l),
(0,0,l)
);
}
);
width = 427;
},
{
anchors = (
{
name = bottom;
position = "{235, 0}";
},
{
name = top;
position = "{235, 517}";
}
);
layerId = "0E22ADE5-BDA2-4C31-BFE7-5758CE7315CD";
shapes = (
{
closed = 1;
nodes = (
(249,219,l),
(249,313,o),
(309,369,o),
(411,369,c),
(411,529,l),
(297,529,o),
(216,425,o),
(216,279,c)
);
},
{
closed = 1;
nodes = (
(249,0,l),
(249,517,l),
(56,517,l),
(56,0,l)
);
}
);
width = 427;
},
{
anchors = (
{
name = bottom;
position = "{197, 0}";
},
{
name = top;
position = "{197, 517}";
}
);
layerId = "1C1B13CA-6905-46B8-93A6-CEC184E43E2C";
associatedMasterId = "350FB24F-9799-4386-8190-3779153A0BBC";
name = bubble;
shapes = (
{
closed = 1;
nodes = (
(189,289,l),
(189,365,o),
(259,416,o),
(362,404,c),
(362,585,l),
(185,599,o),
(54,487,o),
(59,330,c),
(78,272,l)
);
},
{
closed = 1;
nodes = (
(189,0,l),
(189,517,l),
(0,517,l),
(0,0,l)
);
}
);
width = 362;
},
{
anchors = (
{
name = bottom;
position = "{197, 0}";
},
{
name = top;
position = "{197, 517}";
}
);
layerId = "350FB24F-9799-4386-8190-3779153A0BBC";
shapes = (
{
closed = 1;
nodes = (
(132,289,l),
(132,390,o),
(215,462,o),
(332,462,c),
(332,529,l),
(205,529,o),
(116,450,o),
(116,339,c)
);
},
{
closed = 1;
nodes = (
(132,0,l),
(132,517,l),
(57,517,l),
(57,0,l)
);
}
);
width = 362;
},
{
anchors = (
{
name = bottom;
position = "{180, 0}";
},
{
name = top;
position = "{180, 517}";
}
);
layerId = "8CCB427F-D0B4-43D7-A922-FB400ACA0E33";
associatedMasterId = "322D7814-E247-4B41-B6CA-DFE314F8ECB2";
name = bubble;
shapes = (
{
closed = 1;
nodes = (
(172,0,l),
(172,289,ls),
(172,379,o),
(258,435,o),
(349,424,c),
(349,596,l),
(260,603,o),
(170,571,o),
(108,517,c),
(0,517,l),
(0,0,l)
);
}
);
width = 349;
},
{
anchors = (
{
name = bottom;
position = "{180, 0}";
},
{
name = top;
position = "{180, 517}";
}
);
layerId = "322D7814-E247-4B41-B6CA-DFE314F8ECB2";
shapes = (
{
closed = 1;
nodes = (
(104,289,l),
(104,408,o),
(187,493,o),
(304,493,c),
(304,529,l),
(192,529,o),
(98,451,o),
(98,359,c)
);
},
{
closed = 1;
nodes = (
(104,0,l),
(104,517,l),
(68,517,l),
(68,0,l)
);
}
);
width = 349;
}
);
leftKerningGroup = r;
rightKerningGroup = r;
unicode = 114;
},
{
color = 1;
glyphname = s;
layers = (
{
anchors = (
{
name = bottom;
position = "{256, 0}";
},
{
name = top;
position = "{255, 517}";
}
);
layerId = "40701DA0-09EF-4B99-B0D1-EC8472DC3E62";
associatedMasterId = "0E22ADE5-BDA2-4C31-BFE7-5758CE7315CD";
name = bubble;
shapes = (
{
closed = 1;
nodes = (
(412,-33,o),
(508,43,o),
(508,163,cs),
(508,301,o),
(384,336,o),
(290,357,cs),
(264,363,o),
(245,369,o),
(245,373,cs),
(245,375,o),
(249,377,o),
(255,377,cs),
(293,377,o),
(346,357,o),
(396,325,c),
(481,479,l),
(412,525,o),
(330,550,o),
(255,550,cs),
(115,550,o),
(18,469,o),
(18,351,cs),
(18,212,o),
(140,185,o),
(234,165,cs),
(258,160,o),
(281,153,o),
(281,149,cs),
(281,146,o),
(275,143,o),
(267,143,cs),
(217,143,o),
(147,167,o),
(99,201,c),
(5,48,l),
(71,-3,o),
(168,-33,o),
(262,-33,cs)
);
}
);
width = 508;
},
{
anchors = (
{
name = bottom;
position = "{256, 0}";
},
{
name = top;
position = "{255, 517}";
}
);
layerId = "0E22ADE5-BDA2-4C31-BFE7-5758CE7315CD";
shapes = (
{
closed = 1;
nodes = (
(402,-12,o),
(487,56,o),
(487,163,cs),
(487,285,o),
(379,316,o),
(285,337,cs),
(233,349,o),
(210,352,o),
(210,369,cs),
(210,384,o),
(228,398,o),
(255,398,cs),
(304,398,o),
(363,371,o),
(406,343,c),
(471,461,l),
(412,500,o),
(335,529,o),
(255,529,cs),
(120,529,o),
(39,451,o),
(39,351,cs),
(39,229,o),
(144,206,o),
(238,186,cs),
(286,176,o),
(316,166,o),
(316,148,cs),
(316,131,o),
(303,122,o),
(267,122,cs),
(212,122,o),
(138,148,o),
(88,183,c),
(16,66,l),
(79,17,o),
(172,-12,o),
(262,-12,cs)
);
}
);
width = 508;
},
{
anchors = (
{
name = bottom;
position = "{232, 0}";
},
{
name = top;
position = "{235, 517}";
}
);
layerId = "1C1B13CA-6905-46B8-93A6-CEC184E43E2C";
associatedMasterId = "350FB24F-9799-4386-8190-3779153A0BBC";
name = bubble;
shapes = (
{
closed = 1;
nodes = (
(372,-45,o),
(465,33,o),
(465,144,cs),
(465,266,o),
(356,301,o),
(273,327,cs),
(174,360,o),
(162,368,o),
(162,386,cs),
(162,411,o),
(189,429,o),
(235,429,cs),
(277,429,o),
(320,414,o),
(367,385,c),
(438,499,l),
(377,539,o),
(302,562,o),
(235,562,cs),
(110,562,o),
(21,486,o),
(21,377,cs),
(21,287,o),
(77,239,o),
(218,198,cs),
(303,174,o),
(324,161,o),
(324,136,cs),
(324,108,o),
(294,88,o),
(243,88,cs),
(192,88,o),
(142,107,o),
(87,147,c),
(10,38,l),
(75,-14,o),
(163,-45,o),
(243,-45,cs)
);
}
);
width = 465;
},
{
anchors = (
{
name = bottom;
position = "{232, 0}";
},
{
name = top;
position = "{235, 517}";
}
);
layerId = "350FB24F-9799-4386-8190-3779153A0BBC";
shapes = (
{
closed = 1;
nodes = (
(350,-12,o),
(432,49,o),
(432,144,cs),
(432,242,o),
(346,270,o),
(263,296,cs),
(167,327,o),
(129,341,o),
(129,386,cs),
(129,436,o),
(177,462,o),
(235,462,cs),
(281,462,o),
(332,446,o),
(384,413,c),
(420,471,l),
(365,507,o),
(299,529,o),
(235,529,cs),
(132,529,o),
(54,471,o),
(54,377,cs),
(54,303,o),
(102,266,o),
(227,230,cs),
(297,210,o),
(357,192,o),
(357,136,cs),
(357,87,o),
(311,55,o),
(243,55,cs),
(186,55,o),
(127,77,o),
(68,120,c),
(29,65,l),
(91,15,o),
(171,-12,o),
(243,-12,cs)
);
}
);
width = 465;
},
{
anchors = (
{
name = bottom;
position = "{247, 0}";
},
{
name = top;
position = "{251, 517}";
}
);
layerId = "8CCB427F-D0B4-43D7-A922-FB400ACA0E33";
associatedMasterId = "322D7814-E247-4B41-B6CA-DFE314F8ECB2";
name = bubble;
shapes = (
{
closed = 1;
nodes = (
(382,-61,o),
(485,22,o),
(485,124,cs),
(485,221,o),
(423,282,o),
(284,326,cs),
(194,354,o),
(164,378,o),
(164,401,cs),
(164,420,o),
(204,444,o),
(250,444,cs),
(293,444,o),
(340,430,o),
(383,404,c),
(465,509,l),
(401,552,o),
(319,578,o),
(250,578,cs),
(130,578,o),
(30,497,o),
(30,397,cs),
(30,303,o),
(94,244,o),
(237,200,cs),
(326,173,o),
(352,150,o),
(352,120,cs),
(352,99,o),
(308,73,o),
(258,73,cs),
(208,73,o),
(149,95,o),
(97,132,c),
(14,26,l),
(83,-28,o),
(174,-61,o),
(258,-61,cs)
);
}
);
width = 485;
},
{
anchors = (
{
name = bottom;
position = "{247, 0}";
},
{
name = top;
position = "{251, 517}";
}
);
layerId = "322D7814-E247-4B41-B6CA-DFE314F8ECB2";
shapes = (
{
closed = 1;
nodes = (
(355,-12,o),
(437,50,o),
(437,124,cs),
(437,197,o),
(389,241,o),
(269,279,cs),
(159,314,o),
(115,349,o),
(115,401,cs),
(115,451,o),
(177,493,o),
(250,493,cs),
(303,493,o),
(363,474,o),
(413,443,c),
(435,471,l),
(379,507,o),
(311,529,o),
(250,529,cs),
(157,529,o),
(79,469,o),
(79,397,cs),
(79,328,o),
(128,285,o),
(251,247,cs),
(358,214,o),
(401,178,o),
(401,120,cs),
(401,68,o),
(336,24,o),
(258,24,cs),
(197,24,o),
(126,50,o),
(66,93,c),
(44,65,l),
(104,17,o),
(184,-12,o),
(258,-12,cs)
);
}
);
width = 485;
}
);
leftKerningGroup = s;
rightKerningGroup = s;
unicode = 115;
},
{
color = 1;
glyphname = germandbls;
layers = (
{
layerId = "40701DA0-09EF-4B99-B0D1-EC8472DC3E62";
associatedMasterId = "0E22ADE5-BDA2-4C31-BFE7-5758CE7315CD";
name = bubble;
shapes = (
{
closed = 1;
nodes = (
(324,0,l),
(324,-45,l),
(368,-45,ls),
(533,-45,o),
(653,50,o),
(653,185,cs),
(653,256,o),
(628,315,o),
(584,356,c),
(619,394,o),
(639,448,o),
(639,514,cs),
(639,663,o),
(509,769,o),
(328,769,cs),
(147,769,o),
(0,663,o),
(0,514,cs),
(0,0,l)
);
}
);
width = 653;
},
{
layerId = "0E22ADE5-BDA2-4C31-BFE7-5758CE7315CD";
shapes = (
{
closed = 1;
nodes = (
(255,0,l),
(255,463,ls),
(255,502,o),
(285,524,o),
(325,524,cs),
(368,524,o),
(394,502,o),
(394,472,cs),
(394,442,o),
(365,420,o),
(325,420,cs),
(324,420,l),
(324,273,l),
(354,273,ls),
(396,273,o),
(426,250,o),
(426,218,cs),
(426,186,o),
(396,163,o),
(354,163,cs),
(324,163,l),
(324,0,l),
(386,0,ls),
(526,0,o),
(626,75,o),
(626,185,cs),
(626,271,o),
(583,335,o),
(509,360,c),
(563,380,o),
(594,436,o),
(594,514,cs),
(594,637,o),
(484,724,o),
(328,724,cs),
(172,724,o),
(62,637,o),
(62,514,cs),
(62,0,l)
);
}
);
width = 653;
},
{
layerId = "1C1B13CA-6905-46B8-93A6-CEC184E43E2C";
associatedMasterId = "350FB24F-9799-4386-8190-3779153A0BBC";
name = bubble;
shapes = (
{
closed = 1;
nodes = (
(212,0,l),
(212,-48,l),
(286,-48,ls),
(432,-48,o),
(538,51,o),
(538,188,cs),
(538,262,o),
(513,321,o),
(461,363,c),
(503,404,o),
(524,457,o),
(524,526,cs),
(524,659,o),
(416,755,o),
(268,755,cs),
(119,755,o),
(0,659,o),
(0,526,cs),
(0,0,l)
);
}
);
width = 538;
},
{
layerId = "350FB24F-9799-4386-8190-3779153A0BBC";
shapes = (
{
closed = 1;
nodes = (
(137,0,l),
(137,513,ls),
(137,585,o),
(191,636,o),
(267,636,cs),
(343,636,o),
(397,586,o),
(397,516,cs),
(397,452,o),
(343,396,o),
(267,396,cs),
(212,396,l),
(212,325,l),
(279,325,ls),
(364,325,o),
(424,272,o),
(424,198,cs),
(424,124,o),
(364,71,o),
(279,71,cs),
(212,71,l),
(212,0,l),
(299,0,ls),
(418,0,o),
(503,78,o),
(503,188,cs),
(503,274,o),
(463,331,o),
(378,365,c),
(444,395,o),
(476,447,o),
(476,526,cs),
(476,632,o),
(390,707,o),
(268,707,cs),
(146,707,o),
(59,632,o),
(59,526,cs),
(59,0,l)
);
}
);
width = 538;
},
{
layerId = "8CCB427F-D0B4-43D7-A922-FB400ACA0E33";
associatedMasterId = "322D7814-E247-4B41-B6CA-DFE314F8ECB2";
name = bubble;
shapes = (
{
closed = 1;
nodes = (
(190,0,l),
(190,-60,l),
(276,-60,ls),
(409,-60,o),
(519,54,o),
(519,191,cs),
(519,255,o),
(493,318,o),
(448,364,c),
(482,406,o),
(503,464,o),
(503,524,cs),
(503,657,o),
(391,767,o),
(256,767,cs),
(121,767,o),
(0,656,o),
(0,523,cs),
(0,0,l)
);
}
);
width = 519;
},
{
layerId = "322D7814-E247-4B41-B6CA-DFE314F8ECB2";
shapes = (
{
closed = 1;
nodes = (
(104,0,l),
(104,517,ls),
(104,601,o),
(173,671,o),
(256,671,cs),
(338,671,o),
(407,602,o),
(407,519,cs),
(407,437,o),
(345,379,o),
(258,379,cs),
(190,379,l),
(190,343,l),
(264,343,ls),
(364,343,o),
(434,282,o),
(434,196,cs),
(434,109,o),
(358,36,o),
(267,36,cs),
(190,36,l),
(190,0,l),
(287,0,ls),
(386,0,o),
(470,87,o),
(470,191,cs),
(470,264,o),
(423,336,o),
(356,365,c),
(407,389,o),
(443,455,o),
(443,524,cs),
(443,623,o),
(358,707,o),
(256,707,cs),
(154,707,o),
(68,623,o),
(68,523,cs),
(68,0,l)
);
}
);
width = 519;
}
);
leftKerningGroup = germandbls;
rightKerningGroup = germandbls;
unicode = 223;
},
{
color = 1;
glyphname = t;
layers = (
{
anchors = (
{
name = bottom;
position = "{262, 0}";
}
);
layerId = "40701DA0-09EF-4B99-B0D1-EC8472DC3E62";
associatedMasterId = "0E22ADE5-BDA2-4C31-BFE7-5758CE7315CD";
name = bubble;
shapes = (
{
closed = 1;
nodes = (
(35,315,l),
(35,163,ls),
(35,32,o),
(129,-62,o),
(260,-62,cs),
(309,-62,o),
(366,-42,o),
(407,-12,c),
(351,197,l),
(347,197,o),
(344,196,o),
(340,196,cs),
(324,196,o),
(319,201,o),
(319,213,cs),
(319,315,l),
(417,315,l),
(417,517,l),
(319,517,l),
(319,659,l),
(35,659,l),
(35,517,l),
(0,517,l),
(0,315,l)
);
}
);
width = 417;
},
{
anchors = (
{
name = bottom;
position = "{262, 0}";
}
);
layerId = "0E22ADE5-BDA2-4C31-BFE7-5758CE7315CD";
shapes = (
{
closed = 1;
nodes = (
(306,-12,o),
(361,10,o),
(393,41,c),
(360,163,l),
(350,154,o),
(331,148,o),
(313,148,cs),
(287,148,o),
(269,170,o),
(269,201,cs),
(269,659,l),
(85,659,l),
(85,163,ls),
(85,60,o),
(157,-12,o),
(260,-12,cs)
);
},
{
closed = 1;
nodes = (
(371,365,l),
(371,517,l),
(20,517,l),
(20,365,l)
);
}
);
width = 417;
},
{
anchors = (
{
name = bottom;
position = "{239, 0}";
}
);
layerId = "1C1B13CA-6905-46B8-93A6-CEC184E43E2C";
associatedMasterId = "350FB24F-9799-4386-8190-3779153A0BBC";
name = bubble;
shapes = (
{
closed = 1;
nodes = (
(58,397,l),
(58,120,ls),
(58,14,o),
(134,-65,o),
(237,-65,cs),
(281,-65,o),
(327,-49,o),
(363,-23,c),
(268,118,l),
(265,111,o),
(260,108,o),
(253,108,cs),
(242,108,o),
(239,115,o),
(239,120,cs),
(239,397,l),
(362,397,l),
(362,517,l),
(239,517,l),
(239,659,l),
(58,659,l),
(58,517,l),
(0,517,l),
(0,397,l)
);
}
);
width = 362;
},
{
anchors = (
{
name = bottom;
position = "{239, 0}";
}
);
layerId = "350FB24F-9799-4386-8190-3779153A0BBC";
shapes = (
{
closed = 1;
nodes = (
(272,-12,o),
(306,0,o),
(333,21,c),
(296,76,l),
(285,64,o),
(265,55,o),
(242,55,cs),
(212,55,o),
(186,82,o),
(186,120,cs),
(186,659,l),
(111,659,l),
(111,120,ls),
(111,43,o),
(163,-12,o),
(237,-12,cs)
);
},
{
closed = 1;
nodes = (
(313,450,l),
(313,517,l),
(30,517,l),
(30,450,l)
);
}
);
width = 362;
},
{
anchors = (
{
name = bottom;
position = "{243, 0}";
}
);
layerId = "8CCB427F-D0B4-43D7-A922-FB400ACA0E33";
associatedMasterId = "322D7814-E247-4B41-B6CA-DFE314F8ECB2";
name = bubble;
shapes = (
{
closed = 1;
nodes = (
(80,425,l),
(80,120,ls),
(80,14,o),
(147,-68,o),
(242,-68,cs),
(287,-68,o),
(334,-52,o),
(370,-25,c),
(286,96,l),
(274,87,o),
(267,85,o),
(252,85,cs),
(241,85,o),
(228,94,o),
(228,120,cs),
(228,425,l),
(382,425,l),
(382,517,l),
(228,517,l),
(228,659,l),
(80,659,l),
(80,517,l),
(0,517,l),
(0,425,l)
);
}
);
width = 382;
},
{
anchors = (
{
name = bottom;
position = "{243, 0}";
}
);
layerId = "322D7814-E247-4B41-B6CA-DFE314F8ECB2";
shapes = (
{
closed = 1;
nodes = (
(276,-12,o),
(311,0,o),
(338,21,c),
(318,50,l),
(297,34,o),
(270,24,o),
(244,24,cs),
(202,24,o),
(172,64,o),
(172,120,cs),
(172,659,l),
(136,659,l),
(136,120,ls),
(136,43,o),
(180,-12,o),
(242,-12,cs)
);
},
{
closed = 1;
nodes = (
(308,481,l),
(308,517,l),
(45,517,l),
(45,481,l)
);
}
);
width = 382;
}
);
leftKerningGroup = t;
rightKerningGroup = t;
unicode = 116;
},
{
color = 1;
glyphname = tcaron;
layers = (
{
anchors = (
{
name = bottom;
position = "{262, 0}";
}
);
layerId = "40701DA0-09EF-4B99-B0D1-EC8472DC3E62";
associatedMasterId = "0E22ADE5-BDA2-4C31-BFE7-5758CE7315CD";
name = bubble;
shapes = (
{
closed = 1;
nodes = (
(306,-12,o),
(361,10,o),
(393,41,c),
(360,163,l),
(350,154,o),
(331,148,o),
(313,148,cs),
(287,148,o),
(269,170,o),
(269,201,cs),
(269,659,l),
(85,659,l),
(85,163,ls),
(85,60,o),
(157,-12,o),
(260,-12,cs)
);
},
{
closed = 1;
nodes = (
(371,365,l),
(371,517,l),
(20,517,l),
(20,365,l)
);
},
{
closed = 1;
nodes = (
(542,390,l),
(603,443,o),
(645,522,o),
(645,585,cs),
(645,678,o),
(589,749,o),
(508,749,cs),
(431,749,o),
(374,690,o),
(374,612,cs),
(374,564,o),
(395,524,o),
(429,500,c),
(429,499,o),
(423,495,o),
(415,490,c)
);
},
{
closed = 1;
nodes = (
(35,315,l),
(35,163,ls),
(35,32,o),
(129,-62,o),
(260,-62,cs),
(309,-62,o),
(366,-42,o),
(407,-12,c),
(351,197,l),
(347,197,o),
(344,196,o),
(340,196,cs),
(324,196,o),
(319,201,o),
(319,213,cs),
(319,315,l),
(417,315,l),
(417,517,l),
(319,517,l),
(319,659,l),
(35,659,l),
(35,517,l),
(0,517,l),
(0,315,l)
);
}
);
width = 601;
},
{
anchors = (
{
name = bottom;
position = "{262, 0}";
}
);
layerId = "0E22ADE5-BDA2-4C31-BFE7-5758CE7315CD";
shapes = (
{
closed = 1;
nodes = (
(306,-12,o),
(361,10,o),
(393,41,c),
(360,163,l),
(350,154,o),
(331,148,o),
(313,148,cs),
(287,148,o),
(269,170,o),
(269,201,cs),
(269,659,l),
(85,659,l),
(85,163,ls),
(85,60,o),
(157,-12,o),
(260,-12,cs)
);
},
{
closed = 1;
nodes = (
(371,365,l),
(371,517,l),
(20,517,l),
(20,365,l)
);
},
{
closed = 1;
nodes = (
(502,421,l),
(557,466,o),
(595,534,o),
(595,585,cs),
(595,652,o),
(559,699,o),
(508,699,cs),
(459,699,o),
(424,663,o),
(424,612,cs),
(424,562,o),
(457,527,o),
(505,527,c),
(499,504,o),
(479,476,o),
(456,457,c)
);
}
);
width = 601;
},
{
anchors = (
{
name = bottom;
position = "{239, 0}";
}
);
layerId = "1C1B13CA-6905-46B8-93A6-CEC184E43E2C";
associatedMasterId = "350FB24F-9799-4386-8190-3779153A0BBC";
name = bubble;
shapes = (
{
closed = 1;
nodes = (
(444,475,l),
(500,548,o),
(519,585,o),
(519,631,cs),
(519,698,o),
(478,752,o),
(414,752,cs),
(359,752,o),
(315,708,o),
(315,654,cs),
(315,627,o),
(326,601,o),
(345,583,c),
(339,576,o),
(333,569,o),
(325,560,c)
);
},
{
closed = 1;
nodes = (
(58,397,l),
(58,120,ls),
(58,14,o),
(134,-65,o),
(237,-65,cs),
(281,-65,o),
(327,-49,o),
(363,-23,c),
(268,118,l),
(265,111,o),
(260,108,o),
(253,108,cs),
(242,108,o),
(239,115,o),
(239,120,cs),
(239,397,l),
(362,397,l),
(362,517,l),
(239,517,l),
(239,659,l),
(58,659,l),
(58,517,l),
(0,517,l),
(0,397,l)
);
}
);
width = 468;
},
{
anchors = (
{
name = bottom;
position = "{239, 0}";
}
);
layerId = "350FB24F-9799-4386-8190-3779153A0BBC";
shapes = (
{
closed = 1;
nodes = (
(272,-12,o),
(306,0,o),
(333,21,c),
(296,76,l),
(285,64,o),
(265,55,o),
(242,55,cs),
(212,55,o),
(186,82,o),
(186,120,cs),
(186,659,l),
(111,659,l),
(111,120,ls),
(111,43,o),
(163,-12,o),
(237,-12,cs)
);
},
{
closed = 1;
nodes = (
(313,450,l),
(313,517,l),
(30,517,l),
(30,450,l)
);
},
{
closed = 1;
nodes = (
(401,506,l),
(451,570,o),
(466,598,o),
(466,631,cs),
(466,671,o),
(446,699,o),
(414,699,cs),
(388,699,o),
(368,678,o),
(368,654,cs),
(368,629,o),
(388,608,o),
(413,608,c),
(407,581,o),
(392,555,o),
(369,529,c)
);
}
);
width = 468;
},
{
anchors = (
{
name = bottom;
position = "{243, 0}";
}
);
layerId = "8CCB427F-D0B4-43D7-A922-FB400ACA0E33";
associatedMasterId = "322D7814-E247-4B41-B6CA-DFE314F8ECB2";
name = bubble;
shapes = (
{
closed = 1;
nodes = (
(414,495,l),
(459,555,o),
(483,609,o),
(483,657,cs),
(483,712,o),
(448,755,o),
(395,755,cs),
(346,755,o),
(308,717,o),
(308,669,cs),
(308,649,o),
(314,631,o),
(325,617,c),
(318,605,o),
(308,592,o),
(298,580,c)
);
},
{
closed = 1;
nodes = (
(80,425,l),
(80,120,ls),
(80,14,o),
(147,-68,o),
(242,-68,cs),
(287,-68,o),
(334,-52,o),
(370,-25,c),
(286,96,l),
(274,87,o),
(267,85,o),
(252,85,cs),
(241,85,o),
(228,94,o),
(228,120,cs),
(228,425,l),
(380,425,l),
(380,517,l),
(228,517,l),
(228,659,l),
(80,659,l),
(80,517,l),
(0,517,l),
(0,425,l)
);
}
);
width = 380;
},
{
anchors = (
{
name = bottom;
position = "{243, 0}";
}
);
layerId = "322D7814-E247-4B41-B6CA-DFE314F8ECB2";
shapes = (
{
closed = 1;
nodes = (
(276,-12,o),
(311,0,o),
(338,21,c),
(318,50,l),
(297,34,o),
(270,24,o),
(244,24,cs),
(202,24,o),
(172,64,o),
(172,120,cs),
(172,659,l),
(136,659,l),
(136,120,ls),
(136,43,o),
(180,-12,o),
(242,-12,cs)
);
},
{
closed = 1;
nodes = (
(308,481,l),
(308,517,l),
(45,517,l),
(45,481,l)
);
},
{
closed = 1;
nodes = (
(369,528,l),
(408,579,o),
(427,622,o),
(427,657,cs),
(427,684,o),
(414,699,o),
(395,699,cs),
(377,699,o),
(364,686,o),
(364,669,cs),
(364,652,o),
(376,639,o),
(395,639,c),
(388,611,o),
(369,577,o),
(343,547,c)
);
}
);
width = 380;
}
);
leftKerningGroup = tcaron;
rightKerningGroup = tcaron;
unicode = 357;
},
{
color = 1;
glyphname = u;
layers = (
{
anchors = (
{
name = bottom;
position = "{573, 0}";
},
{
name = top;
position = "{303, 517}";
}
);
layerId = "40701DA0-09EF-4B99-B0D1-EC8472DC3E62";
associatedMasterId = "0E22ADE5-BDA2-4C31-BFE7-5758CE7315CD";
name = bubble;
shapes = (
{
closed = 1;
nodes = (
(0,188,ls),
(0,47,o),
(98,-56,o),
(234,-56,cs),
(296,-56,o),
(351,-35,o),
(391,0,c),
(628,0,l),
(628,517,l),
(0,517,l)
);
}
);
width = 628;
},
{
anchors = (
{
name = bottom;
position = "{573, 0}";
},
{
name = top;
position = "{303, 517}";
}
);
layerId = "0E22ADE5-BDA2-4C31-BFE7-5758CE7315CD";
shapes = (
{
closed = 1;
nodes = (
(333,-12,o),
(407,50,o),
(412,138,c),
(380,227,l),
(380,181,o),
(349,148,o),
(306,148,cs),
(260,148,o),
(228,183,o),
(228,233,cs),
(228,517,l),
(44,517,l),
(44,188,ls),
(44,71,o),
(123,-12,o),
(234,-12,cs)
);
},
{
closed = 1;
nodes = (
(573,0,l),
(573,517,l),
(380,517,l),
(380,0,l)
);
}
);
width = 628;
},
{
anchors = (
{
name = bottom;
position = "{489, 0}";
},
{
name = top;
position = "{262, 517}";
}
);
layerId = "1C1B13CA-6905-46B8-93A6-CEC184E43E2C";
associatedMasterId = "350FB24F-9799-4386-8190-3779153A0BBC";
name = bubble;
shapes = (
{
closed = 1;
nodes = (
(0,188,ls),
(0,42,o),
(101,-62,o),
(244,-62,cs),
(308,-62,o),
(368,-38,o),
(411,0,c),
(546,0,l),
(546,517,l),
(0,517,l)
);
}
);
width = 546;
},
{
anchors = (
{
name = bottom;
position = "{489, 0}";
},
{
name = top;
position = "{262, 517}";
}
);
layerId = "350FB24F-9799-4386-8190-3779153A0BBC";
shapes = (
{
closed = 1;
nodes = (
(341,-12,o),
(425,55,o),
(430,138,c),
(414,188,l),
(414,115,o),
(342,55,o),
(254,55,cs),
(178,55,o),
(125,113,o),
(125,198,cs),
(125,517,l),
(50,517,l),
(50,188,ls),
(50,69,o),
(129,-12,o),
(244,-12,cs)
);
},
{
closed = 1;
nodes = (
(489,0,l),
(489,517,l),
(414,517,l),
(414,0,l)
);
}
);
width = 546;
},
{
anchors = (
{
name = bottom;
position = "{461, 0}";
},
{
name = top;
position = "{256, 517}";
}
);
layerId = "8CCB427F-D0B4-43D7-A922-FB400ACA0E33";
associatedMasterId = "322D7814-E247-4B41-B6CA-DFE314F8ECB2";
name = bubble;
shapes = (
{
closed = 1;
nodes = (
(0,178,ls),
(0,33,o),
(108,-74,o),
(255,-74,cs),
(330,-74,o),
(395,-46,o),
(439,0,c),
(529,0,l),
(529,517,l),
(0,517,l)
);
}
);
width = 529;
},
{
anchors = (
{
name = bottom;
position = "{461, 0}";
},
{
name = top;
position = "{256, 517}";
}
);
layerId = "322D7814-E247-4B41-B6CA-DFE314F8ECB2";
shapes = (
{
closed = 1;
nodes = (
(362,-12,o),
(438,58,o),
(438,157,c),
(425,187,l),
(425,92,o),
(357,24,o),
(260,24,cs),
(165,24,o),
(98,90,o),
(98,183,cs),
(98,517,l),
(62,517,l),
(62,178,ls),
(62,67,o),
(142,-12,o),
(255,-12,cs)
);
},
{
closed = 1;
nodes = (
(461,0,l),
(461,517,l),
(425,517,l),
(425,0,l)
);
}
);
width = 529;
}
);
leftKerningGroup = u;
rightKerningGroup = u;
unicode = 117;
},
{
color = 1;
glyphname = v;
layers = (
{
layerId = "40701DA0-09EF-4B99-B0D1-EC8472DC3E62";
associatedMasterId = "0E22ADE5-BDA2-4C31-BFE7-5758CE7315CD";
name = bubble;
shapes = (
{
closed = 1;
nodes = (
(589,0,l),
(637,517,l),
(0,517,l),
(51,0,l)
);
}
);
width = 637;
},
{
layerId = "0E22ADE5-BDA2-4C31-BFE7-5758CE7315CD";
shapes = (
{
closed = 1;
nodes = (
(409,0,l),
(632,517,l),
(434,517,l),
(320,221,l),
(203,517,l),
(5,517,l),
(231,0,l)
);
}
);
width = 637;
},
{
layerId = "1C1B13CA-6905-46B8-93A6-CEC184E43E2C";
associatedMasterId = "350FB24F-9799-4386-8190-3779153A0BBC";
name = bubble;
shapes = (
{
closed = 1;
nodes = (
(520,0,l),
(565,517,l),
(0,517,l),
(48,0,l)
);
}
);
width = 565;
},
{
layerId = "350FB24F-9799-4386-8190-3779153A0BBC";
shapes = (
{
closed = 1;
nodes = (
(320,0,l),
(537,517,l),
(453,517,l),
(284,88,l),
(112,517,l),
(28,517,l),
(248,0,l)
);
}
);
width = 565;
},
{
layerId = "8CCB427F-D0B4-43D7-A922-FB400ACA0E33";
associatedMasterId = "322D7814-E247-4B41-B6CA-DFE314F8ECB2";
name = bubble;
shapes = (
{
closed = 1;
nodes = (
(523,0,l),
(584,517,l),
(0,517,l),
(61,0,l)
);
}
);
width = 584;
},
{
layerId = "322D7814-E247-4B41-B6CA-DFE314F8ECB2";
shapes = (
{
closed = 1;
nodes = (
(303,0,l),
(540,517,l),
(501,517,l),
(292,61,l),
(83,517,l),
(44,517,l),
(281,0,l)
);
}
);
width = 584;
}
);
leftKerningGroup = v;
rightKerningGroup = v;
unicode = 118;
},
{
color = 1;
glyphname = w;
layers = (
{
anchors = (
{
name = top;
position = "{425, 517}";
}
);
layerId = "40701DA0-09EF-4B99-B0D1-EC8472DC3E62";
associatedMasterId = "0E22ADE5-BDA2-4C31-BFE7-5758CE7315CD";
name = bubble;
shapes = (
{
closed = 1;
nodes = (
(794,0,l),
(850,517,l),
(0,517,l),
(58,0,l)
);
}
);
width = 850;
},
{
anchors = (
{
name = top;
position = "{425, 517}";
}
);
layerId = "0E22ADE5-BDA2-4C31-BFE7-5758CE7315CD";
shapes = (
{
closed = 1;
nodes = (
(357,0,l),
(425,266,l),
(495,0,l),
(666,0,l),
(842,517,l),
(657,517,l),
(581,259,l),
(504,517,l),
(346,517,l),
(270,259,l),
(193,517,l),
(8,517,l),
(186,0,l)
);
}
);
width = 850;
},
{
anchors = (
{
name = top;
position = "{412, 517}";
}
);
layerId = "1C1B13CA-6905-46B8-93A6-CEC184E43E2C";
associatedMasterId = "350FB24F-9799-4386-8190-3779153A0BBC";
name = bubble;
shapes = (
{
closed = 1;
nodes = (
(754,0,l),
(823,517,l),
(0,517,l),
(68,0,l)
);
}
);
width = 823;
},
{
anchors = (
{
name = top;
position = "{412, 517}";
}
);
layerId = "350FB24F-9799-4386-8190-3779153A0BBC";
shapes = (
{
closed = 1;
nodes = (
(273,0,l),
(412,413,l),
(549,0,l),
(620,0,l),
(794,517,l),
(714,517,l),
(585,100,l),
(444,517,l),
(379,517,l),
(238,100,l),
(109,517,l),
(29,517,l),
(202,0,l)
);
}
);
width = 823;
},
{
anchors = (
{
name = top;
position = "{407, 517}";
}
);
layerId = "8CCB427F-D0B4-43D7-A922-FB400ACA0E33";
associatedMasterId = "322D7814-E247-4B41-B6CA-DFE314F8ECB2";
name = bubble;
shapes = (
{
closed = 1;
nodes = (
(750,0,l),
(820,517,l),
(-5,517,l),
(64,0,l)
);
}
);
width = 815;
},
{
anchors = (
{
name = top;
position = "{407, 517}";
}
);
layerId = "322D7814-E247-4B41-B6CA-DFE314F8ECB2";
shapes = (
{
closed = 1;
nodes = (
(259,0,l),
(407,450,l),
(555,0,l),
(600,0,l),
(770,517,l),
(733,517,l),
(578,48,l),
(423,517,l),
(392,517,l),
(237,48,l),
(82,517,l),
(45,517,l),
(214,0,l)
);
}
);
width = 815;
}
);
leftKerningGroup = w;
rightKerningGroup = w;
unicode = 119;
},
{
color = 1;
glyphname = x;
layers = (
{
layerId = "40701DA0-09EF-4B99-B0D1-EC8472DC3E62";
associatedMasterId = "0E22ADE5-BDA2-4C31-BFE7-5758CE7315CD";
name = bubble;
shapes = (
{
closed = 1;
nodes = (
(588,0,l),
(544,267,l),
(578,517,l),
(9,517,l),
(44,264,l),
(0,0,l)
);
}
);
width = 588;
},
{
layerId = "0E22ADE5-BDA2-4C31-BFE7-5758CE7315CD";
shapes = (
{
closed = 1;
nodes = (
(579,0,l),
(222,517,l),
(18,517,l),
(375,0,l)
);
},
{
closed = 1;
nodes = (
(208,0,l),
(569,517,l),
(370,517,l),
(9,0,l)
);
}
);
width = 588;
},
{
layerId = "1C1B13CA-6905-46B8-93A6-CEC184E43E2C";
associatedMasterId = "350FB24F-9799-4386-8190-3779153A0BBC";
name = bubble;
shapes = (
{
closed = 1;
nodes = (
(543,0,l),
(494,264,l),
(535,517,l),
(8,517,l),
(49,264,l),
(0,0,l)
);
}
);
width = 543;
},
{
layerId = "350FB24F-9799-4386-8190-3779153A0BBC";
shapes = (
{
closed = 1;
nodes = (
(515,0,l),
(124,517,l),
(36,517,l),
(427,0,l)
);
},
{
closed = 1;
nodes = (
(116,0,l),
(507,517,l),
(419,517,l),
(28,0,l)
);
}
);
width = 543;
},
{
layerId = "8CCB427F-D0B4-43D7-A922-FB400ACA0E33";
associatedMasterId = "322D7814-E247-4B41-B6CA-DFE314F8ECB2";
name = bubble;
shapes = (
{
closed = 1;
nodes = (
(531,0,l),
(472,264,l),
(523,517,l),
(8,517,l),
(60,264,l),
(0,0,l)
);
}
);
width = 531;
},
{
layerId = "322D7814-E247-4B41-B6CA-DFE314F8ECB2";
shapes = (
{
closed = 1;
nodes = (
(487,0,l),
(96,517,l),
(52,517,l),
(443,0,l)
);
},
{
closed = 1;
nodes = (
(88,0,l),
(479,517,l),
(435,517,l),
(44,0,l)
);
}
);
width = 531;
}
);
leftKerningGroup = x;
rightKerningGroup = x;
unicode = 120;
},
{
color = 1;
glyphname = y;
layers = (
{
anchors = (
{
name = top;
position = "{312, 517}";
}
);
layerId = "40701DA0-09EF-4B99-B0D1-EC8472DC3E62";
associatedMasterId = "0E22ADE5-BDA2-4C31-BFE7-5758CE7315CD";
name = bubble;
shapes = (
{
closed = 1;
nodes = (
(315,-230,o),
(470,-179,o),
(500,-31,cs),
(612,517,l),
(0,517,l),
(98,35,l),
(29,-187,l),
(77,-212,o),
(148,-230,o),
(205,-230,cs)
);
}
);
width = 612;
},
{
anchors = (
{
name = top;
position = "{312, 517}";
}
);
layerId = "0E22ADE5-BDA2-4C31-BFE7-5758CE7315CD";
shapes = (
{
closed = 1;
nodes = (
(293,-180,o),
(369,-115,o),
(411,-4,cs),
(606,517,l),
(412,517,l),
(312,198,l),
(206,517,l),
(9,517,l),
(218,-7,l),
(215,-14,l),
(204,-31,o),
(179,-43,o),
(156,-43,cs),
(142,-43,o),
(112,-31,o),
(83,-14,c),
(44,-138,l),
(86,-163,o),
(153,-180,o),
(205,-180,cs)
);
}
);
width = 612;
},
{
anchors = (
{
name = top;
position = "{292, 517}";
}
);
layerId = "1C1B13CA-6905-46B8-93A6-CEC184E43E2C";
associatedMasterId = "350FB24F-9799-4386-8190-3779153A0BBC";
name = bubble;
shapes = (
{
closed = 1;
nodes = (
(303,-233,o),
(398,-183,o),
(435,-35,cs),
(572,517,l),
(0,517,l),
(102,-47,l),
(54,-215,l),
(83,-226,o),
(118,-233,o),
(151,-233,cs)
);
}
);
width = 572;
},
{
anchors = (
{
name = top;
position = "{292, 517}";
}
);
layerId = "350FB24F-9799-4386-8190-3779153A0BBC";
shapes = (
{
closed = 1;
nodes = (
(222,-179,o),
(272,-146,o),
(308,-58,cs),
(544,517,l),
(463,517,l),
(292,87,l),
(111,517,l),
(28,517,l),
(253,-2,l),
(223,-66,l),
(203,-101,o),
(181,-112,o),
(148,-112,cs),
(126,-112,o),
(105,-108,o),
(87,-99,c),
(69,-163,l),
(93,-174,o),
(121,-180,o),
(151,-180,cs)
);
}
);
width = 572;
},
{
anchors = (
{
name = top;
position = "{293, 517}";
}
);
layerId = "8CCB427F-D0B4-43D7-A922-FB400ACA0E33";
associatedMasterId = "322D7814-E247-4B41-B6CA-DFE314F8ECB2";
name = bubble;
shapes = (
{
closed = 1;
nodes = (
(294,-242,o),
(392,-180,o),
(432,-29,cs),
(578,517,l),
(0,517,l),
(85,-65,l),
(43,-224,l),
(71,-235,o),
(108,-242,o),
(141,-242,cs)
);
}
);
width = 578;
},
{
anchors = (
{
name = top;
position = "{293, 517}";
}
);
layerId = "322D7814-E247-4B41-B6CA-DFE314F8ECB2";
shapes = (
{
closed = 1;
nodes = (
(214,-179,o),
(263,-145,o),
(291,-76,cs),
(534,517,l),
(495,517,l),
(293,25,l),
(83,517,l),
(44,517,l),
(274,-21,l),
(243,-94,l),
(225,-125,o),
(187,-144,o),
(141,-144,cs),
(118,-144,o),
(92,-137,o),
(69,-126,c),
(59,-163,l),
(82,-174,o),
(113,-180,o),
(141,-180,cs)
);
}
);
width = 578;
}
);
leftKerningGroup = y;
rightKerningGroup = y;
unicode = 121;
},
{
color = 1;
glyphname = z;
layers = (
{
anchors = (
{
name = top;
position = "{283, 517}";
}
);
layerId = "40701DA0-09EF-4B99-B0D1-EC8472DC3E62";
associatedMasterId = "0E22ADE5-BDA2-4C31-BFE7-5758CE7315CD";
name = bubble;
shapes = (
{
closed = 1;
nodes = (
(557,0,l),
(557,517,l),
(0,517,l),
(0,0,l)
);
}
);
width = 557;
},
{
anchors = (
{
name = top;
position = "{283, 517}";
}
);
layerId = "0E22ADE5-BDA2-4C31-BFE7-5758CE7315CD";
shapes = (
{
closed = 1;
nodes = (
(518,0,l),
(518,160,l),
(286,160,l),
(515,384,l),
(516,517,l),
(44,517,l),
(44,357,l),
(266,357,l),
(37,133,l),
(37,0,l)
);
}
);
width = 557;
},
{
anchors = (
{
name = top;
position = "{245, 517}";
}
);
layerId = "1C1B13CA-6905-46B8-93A6-CEC184E43E2C";
associatedMasterId = "350FB24F-9799-4386-8190-3779153A0BBC";
name = bubble;
shapes = (
{
closed = 1;
nodes = (
(479,0,l),
(479,517,l),
(0,517,l),
(0,0,l)
);
}
);
width = 479;
},
{
anchors = (
{
name = top;
position = "{245, 517}";
}
);
layerId = "350FB24F-9799-4386-8190-3779153A0BBC";
shapes = (
{
closed = 1;
nodes = (
(443,0,l),
(443,71,l),
(135,71,l),
(441,458,l),
(441,517,l),
(41,517,l),
(41,446,l),
(340,446,l),
(35,59,l),
(35,0,l)
);
}
);
width = 479;
},
{
anchors = (
{
name = top;
position = "{252, 517}";
}
);
layerId = "8CCB427F-D0B4-43D7-A922-FB400ACA0E33";
associatedMasterId = "322D7814-E247-4B41-B6CA-DFE314F8ECB2";
name = bubble;
shapes = (
{
closed = 1;
nodes = (
(502,0,l),
(502,517,l),
(0,517,l),
(0,0,l)
);
}
);
width = 502;
},
{
anchors = (
{
name = top;
position = "{252, 517}";
}
);
layerId = "322D7814-E247-4B41-B6CA-DFE314F8ECB2";
shapes = (
{
closed = 1;
nodes = (
(455,0,l),
(455,36,l),
(94,36,l),
(453,487,l),
(453,517,l),
(53,517,l),
(53,481,l),
(406,481,l),
(47,30,l),
(47,0,l)
);
}
);
width = 502;
}
);
leftKerningGroup = z;
rightKerningGroup = z;
unicode = 122;
},
{
export = 0;
glyphname = ae_upper;
layers = (
{
anchors = (
{
name = _ae_upper;
position = "{532, 687}";
}
);
layerId = "0E22ADE5-BDA2-4C31-BFE7-5758CE7315CD";
shapes = (
{
closed = 1;
nodes = (
(235,0,l),
(632,687,l),
(408,687,l),
(11,0,l)
);
},
{
closed = 1;
nodes = (
(663,92,l),
(663,235,l),
(244,235,l),
(244,92,l)
);
}
);
width = 689;
},
{
anchors = (
{
name = _ae_upper;
position = "{448, 687}";
}
);
layerId = "350FB24F-9799-4386-8190-3779153A0BBC";
shapes = (
{
closed = 1;
nodes = (
(94,0,l),
(491,687,l),
(400,687,l),
(4,0,l)
);
},
{
closed = 1;
nodes = (
(469,156,l),
(469,230,l),
(150,230,l),
(150,156,l)
);
}
);
width = 489;
},
{
anchors = (
{
name = _ae_upper;
position = "{408, 687}";
}
);
layerId = "322D7814-E247-4B41-B6CA-DFE314F8ECB2";
shapes = (
{
closed = 1;
nodes = (
(33,0,l),
(429,687,l),
(388,687,l),
(-9,0,l)
);
},
{
closed = 1;
nodes = (
(430,175,l),
(430,211,l),
(121,211,l),
(121,175,l)
);
}
);
width = 436;
}
);
},
{
export = 0;
glyphname = k_arms;
layers = (
{
anchors = (
{
name = k_arms;
position = "{34, 107}";
}
);
layerId = "0E22ADE5-BDA2-4C31-BFE7-5758CE7315CD";
shapes = (
{
closed = 1;
nodes = (
(397,0,l),
(212,294,l),
(393,517,l),
(177,517,l),
(35,323,l),
(34,107,l),
(86,171,l),
(181,0,l)
);
}
);
width = 411;
},
{
anchors = (
{
name = k_arms;
position = "{22, 126}";
}
);
layerId = "350FB24F-9799-4386-8190-3779153A0BBC";
shapes = (
{
closed = 1;
nodes = (
(399,0,l),
(179,280,l),
(412,517,l),
(316,517,l),
(22,220,l),
(22,126,l),
(126,229,l),
(305,0,l)
);
}
);
width = 420;
},
{
anchors = (
{
name = k_arms;
position = "{3, 125}";
}
);
layerId = "322D7814-E247-4B41-B6CA-DFE314F8ECB2";
shapes = (
{
closed = 1;
nodes = (
(375,0,l),
(155,280,l),
(387,517,l),
(337,517,l),
(3,177,l),
(3,125,l),
(130,255,l),
(329,0,l)
);
}
);
width = 393;
}
);
},
{
export = 0;
glyphname = thorn_stem;
layers = (
{
anchors = (
{
name = loop_right;
position = "{252, 259}";
}
);
layerId = "0E22ADE5-BDA2-4C31-BFE7-5758CE7315CD";
shapes = (
{
closed = 1;
nodes = (
(252,-172,l),
(252,699,l),
(59,699,l),
(59,-172,l)
);
}
);
width = 311;
},
{
anchors = (
{
name = loop_right;
position = "{163, 259}";
}
);
layerId = "350FB24F-9799-4386-8190-3779153A0BBC";
shapes = (
{
closed = 1;
nodes = (
(163,-172,l),
(163,699,l),
(88,699,l),
(88,-172,l)
);
}
);
width = 251;
},
{
anchors = (
{
name = loop_right;
position = "{138, 259}";
}
);
layerId = "322D7814-E247-4B41-B6CA-DFE314F8ECB2";
shapes = (
{
closed = 1;
nodes = (
(138,-172,l),
(138,699,l),
(102,699,l),
(102,-172,l)
);
}
);
width = 240;
}
);
},
{
glyphname = zero;
layers = (
{
layerId = "40701DA0-09EF-4B99-B0D1-EC8472DC3E62";
associatedMasterId = "0E22ADE5-BDA2-4C31-BFE7-5758CE7315CD";
name = bubble;
shapes = (
{
closed = 1;
nodes = (
(583,-56,o),
(736,111,o),
(736,344,cs),
(736,576,o),
(583,743,o),
(368,743,cs),
(153,743,o),
(0,576,o),
(0,344,cs),
(0,111,o),
(153,-56,o),
(368,-56,cs)
);
}
);
width = 736;
},
{
layerId = "0E22ADE5-BDA2-4C31-BFE7-5758CE7315CD";
shapes = (
{
closed = 1;
nodes = (
(558,-12,o),
(692,135,o),
(692,344,cs),
(692,552,o),
(558,699,o),
(368,699,cs),
(178,699,o),
(44,552,o),
(44,344,cs),
(44,135,o),
(178,-12,o),
(368,-12,cs)
);
},
{
closed = 1;
nodes = (
(295,164,o),
(244,239,o),
(244,344,cs),
(244,449,o),
(295,523,o),
(368,523,cs),
(441,523,o),
(492,449,o),
(492,344,cs),
(492,239,o),
(441,164,o),
(368,164,cs)
);
}
);
width = 736;
},
{
layerId = "1C1B13CA-6905-46B8-93A6-CEC184E43E2C";
associatedMasterId = "350FB24F-9799-4386-8190-3779153A0BBC";
name = bubble;
shapes = (
{
closed = 1;
nodes = (
(541,-68,o),
(683,105,o),
(683,344,cs),
(683,582,o),
(541,755,o),
(342,755,cs),
(142,755,o),
(0,583,o),
(0,344,cs),
(0,105,o),
(142,-68,o),
(342,-68,cs)
);
}
);
width = 683;
},
{
layerId = "350FB24F-9799-4386-8190-3779153A0BBC";
shapes = (
{
closed = 1;
nodes = (
(509,-12,o),
(627,135,o),
(627,344,cs),
(627,552,o),
(509,699,o),
(342,699,cs),
(174,699,o),
(56,552,o),
(56,344,cs),
(56,135,o),
(174,-12,o),
(342,-12,cs)
);
},
{
closed = 1;
nodes = (
(221,60,o),
(135,178,o),
(135,344,cs),
(135,510,o),
(221,627,o),
(342,627,cs),
(463,627,o),
(548,510,o),
(548,344,cs),
(548,178,o),
(463,60,o),
(342,60,cs)
);
}
);
width = 683;
},
{
layerId = "8CCB427F-D0B4-43D7-A922-FB400ACA0E33";
associatedMasterId = "322D7814-E247-4B41-B6CA-DFE314F8ECB2";
name = bubble;
shapes = (
{
closed = 1;
nodes = (
(535,-85,o),
(674,95,o),
(674,344,cs),
(674,592,o),
(534,772,o),
(337,772,cs),
(140,772,o),
(0,592,o),
(0,344,cs),
(0,95,o),
(139,-85,o),
(337,-85,cs)
);
}
);
width = 674;
},
{
layerId = "322D7814-E247-4B41-B6CA-DFE314F8ECB2";
shapes = (
{
closed = 1;
nodes = (
(492,-12,o),
(601,135,o),
(601,344,cs),
(601,552,o),
(492,699,o),
(337,699,cs),
(182,699,o),
(73,552,o),
(73,344,cs),
(73,135,o),
(182,-12,o),
(337,-12,cs)
);
},
{
closed = 1;
nodes = (
(203,24,o),
(109,157,o),
(109,344,cs),
(109,531,o),
(203,663,o),
(337,663,cs),
(471,663,o),
(565,531,o),
(565,344,cs),
(565,157,o),
(471,24,o),
(337,24,cs)
);
}
);
width = 674;
}
);
unicode = 48;
},
{
color = 1;
glyphname = one;
layers = (
{
layerId = "40701DA0-09EF-4B99-B0D1-EC8472DC3E62";
associatedMasterId = "0E22ADE5-BDA2-4C31-BFE7-5758CE7315CD";
name = bubble;
shapes = (
{
closed = 1;
nodes = (
(492,0,l),
(492,687,l),
(165,687,l),
(0,577,l),
(125,355,l),
(125,0,l)
);
}
);
width = 492;
},
{
layerId = "F0583A61-BA5B-4CB1-B1E8-CF45B73C4D4D";
associatedMasterId = "0E22ADE5-BDA2-4C31-BFE7-5758CE7315CD";
name = "Feb 1 20, 11:55";
shapes = (
{
closed = 1;
nodes = (
(409,0,l),
(409,687,l),
(254,687,l),
(24,533,l),
(100,399,l),
(215,469,l),
(215,0,l)
);
}
);
width = 492;
},
{
layerId = "0E22ADE5-BDA2-4C31-BFE7-5758CE7315CD";
shapes = (
{
closed = 1;
nodes = (
(409,0,l),
(409,687,l),
(254,687,l),
(24,533,l),
(100,399,l),
(215,469,l),
(215,0,l)
);
}
);
width = 492;
},
{
layerId = "1C1B13CA-6905-46B8-93A6-CEC184E43E2C";
associatedMasterId = "350FB24F-9799-4386-8190-3779153A0BBC";
name = bubble;
shapes = (
{
closed = 1;
nodes = (
(108,468,l),
(108,0,l),
(357,0,l),
(357,687,l),
(122,687,l),
(20,618,l)
);
}
);
width = 357;
},
{
layerId = "350FB24F-9799-4386-8190-3779153A0BBC";
shapes = (
{
closed = 1;
nodes = (
(279,0,l),
(279,687,l),
(216,687,l),
(47,572,l),
(81,514,l),
(201,592,l),
(201,0,l)
);
}
);
width = 357;
},
{
layerId = "8CCB427F-D0B4-43D7-A922-FB400ACA0E33";
associatedMasterId = "322D7814-E247-4B41-B6CA-DFE314F8ECB2";
name = bubble;
shapes = (
{
closed = 1;
nodes = (
(115,495,l),
(115,0,l),
(367,0,l),
(367,687,l),
(143,687,l),
(36,619,l)
);
}
);
width = 367;
},
{
layerId = "322D7814-E247-4B41-B6CA-DFE314F8ECB2";
shapes = (
{
closed = 1;
nodes = (
(277,0,l),
(277,687,l),
(248,687,l),
(66,572,l),
(85,542,l),
(241,640,l),
(241,0,l)
);
}
);
width = 367;
}
);
unicode = 49;
},
{
glyphname = two;
layers = (
{
layerId = "40701DA0-09EF-4B99-B0D1-EC8472DC3E62";
associatedMasterId = "0E22ADE5-BDA2-4C31-BFE7-5758CE7315CD";
name = bubble;
shapes = (
{
closed = 1;
nodes = (
(657,0,l),
(657,223,l),
(514,223,l),
(605,293,o),
(645,369,o),
(645,468,cs),
(645,632,o),
(509,749,o),
(322,749,cs),
(196,749,o),
(89,699,o),
(4,599,c),
(194,406,l),
(243,455,o),
(277,473,o),
(317,473,cs),
(337,473,o),
(345,466,o),
(345,452,cs),
(345,440,o),
(331,421,o),
(277,382,cs),
(0,183,l),
(0,0,l)
);
}
);
width = 657;
},
{
layerId = "0E22ADE5-BDA2-4C31-BFE7-5758CE7315CD";
shapes = (
{
closed = 1;
nodes = (
(601,0,l),
(601,173,l),
(348,173,l),
(437,230,ls),
(559,308,o),
(595,378,o),
(595,468,cs),
(595,601,o),
(485,699,o),
(322,699,cs),
(208,699,o),
(115,653,o),
(39,563,c),
(159,442,l),
(212,495,o),
(258,523,o),
(317,523,cs),
(362,523,o),
(395,498,o),
(395,460,cs),
(395,424,o),
(378,393,o),
(306,341,cs),
(51,157,l),
(51,0,l)
);
}
);
width = 657;
},
{
layerId = "1C1B13CA-6905-46B8-93A6-CEC184E43E2C";
associatedMasterId = "350FB24F-9799-4386-8190-3779153A0BBC";
name = bubble;
shapes = (
{
closed = 1;
nodes = (
(579,0,l),
(579,127,l),
(317,127,l),
(390,190,ls),
(518,300,o),
(570,388,o),
(570,497,cs),
(570,643,o),
(453,752,o),
(298,752,cs),
(182,752,o),
(86,700,o),
(14,601,c),
(152,488,l),
(197,550,o),
(239,576,o),
(295,576,cs),
(348,576,o),
(385,543,o),
(385,496,cs),
(385,445,o),
(351,391,o),
(267,319,cs),
(0,92,l),
(0,0,l)
);
}
);
width = 579;
},
{
layerId = "350FB24F-9799-4386-8190-3779153A0BBC";
shapes = (
{
closed = 1;
nodes = (
(524,0,l),
(524,74,l),
(175,74,l),
(355,230,ls),
(471,330,o),
(517,404,o),
(517,497,cs),
(517,620,o),
(417,699,o),
(298,699,cs),
(190,699,o),
(113,648,o),
(56,567,c),
(111,522,l),
(158,586,o),
(215,629,o),
(295,629,cs),
(368,629,o),
(438,580,o),
(438,496,cs),
(438,428,o),
(398,362,o),
(301,279,cs),
(50,65,l),
(50,0,l)
);
}
);
width = 579;
},
{
layerId = "8CCB427F-D0B4-43D7-A922-FB400ACA0E33";
associatedMasterId = "322D7814-E247-4B41-B6CA-DFE314F8ECB2";
name = bubble;
shapes = (
{
closed = 1;
nodes = (
(600,0,l),
(600,92,l),
(270,92,l),
(394,198,ls),
(511,298,o),
(570,397,o),
(570,498,cs),
(570,642,o),
(455,755,o),
(307,755,cs),
(199,755,o),
(97,698,o),
(30,602,c),
(146,510,l),
(189,573,o),
(249,609,o),
(309,609,cs),
(373,609,o),
(422,560,o),
(422,497,cs),
(422,445,o),
(382,383,o),
(299,310,cs),
(0,54,l),
(0,0,l)
);
}
);
width = 600;
},
{
layerId = "322D7814-E247-4B41-B6CA-DFE314F8ECB2";
shapes = (
{
closed = 1;
nodes = (
(532,0,l),
(532,36,l),
(118,36,l),
(358,241,ls),
(462,330,o),
(514,414,o),
(514,498,cs),
(514,603,o),
(432,699,o),
(307,699,cs),
(225,699,o),
(136,658,o),
(74,567,c),
(102,545,l),
(158,624,o),
(235,665,o),
(309,665,cs),
(414,665,o),
(478,581,o),
(478,497,cs),
(478,429,o),
(435,354,o),
(335,268,cs),
(68,39,l),
(68,0,l)
);
}
);
width = 600;
}
);
unicode = 50;
},
{
glyphname = three;
layers = (
{
layerId = "40701DA0-09EF-4B99-B0D1-EC8472DC3E62";
associatedMasterId = "0E22ADE5-BDA2-4C31-BFE7-5758CE7315CD";
name = bubble;
shapes = (
{
closed = 1;
nodes = (
(-3,65,l),
(76,-15,o),
(191,-59,o),
(321,-59,cs),
(515,-59,o),
(649,45,o),
(649,196,cs),
(649,263,o),
(618,320,o),
(565,358,c),
(609,396,o),
(634,449,o),
(634,510,cs),
(634,651,o),
(507,745,o),
(320,745,cs),
(194,745,o),
(91,700,o),
(11,612,c),
(166,440,l),
(166,265,l)
);
}
);
width = 649;
},
{
layerId = "0E22ADE5-BDA2-4C31-BFE7-5758CE7315CD";
shapes = (
{
closed = 1;
nodes = (
(493,-13,o),
(603,74,o),
(603,196,cs),
(603,281,o),
(540,336,o),
(462,354,c),
(540,377,o),
(588,436,o),
(588,510,cs),
(588,618,o),
(490,699,o),
(320,699,cs),
(188,699,o),
(102,646,o),
(42,577,c),
(149,458,l),
(193,499,o),
(242,526,o),
(299,526,cs),
(355,526,o),
(390,507,o),
(390,473,cs),
(390,442,o),
(361,425,o),
(297,425,cs),
(215,425,l),
(215,263,l),
(298,264,ls),
(380,265,o),
(403,247,o),
(403,214,cs),
(403,183,o),
(372,160,o),
(310,160,cs),
(251,160,o),
(187,182,o),
(136,230,c),
(27,101,l),
(91,33,o),
(190,-13,o),
(321,-13,cs)
);
}
);
width = 649;
},
{
layerId = "1C1B13CA-6905-46B8-93A6-CEC184E43E2C";
associatedMasterId = "350FB24F-9799-4386-8190-3779153A0BBC";
name = bubble;
shapes = (
{
closed = 1;
nodes = (
(8,69,l),
(75,-16,o),
(181,-66,o),
(297,-66,cs),
(467,-66,o),
(590,39,o),
(590,186,cs),
(590,255,o),
(559,315,o),
(506,356,c),
(550,396,o),
(575,450,o),
(575,513,cs),
(575,653,o),
(456,753,o),
(294,753,cs),
(184,753,o),
(88,705,o),
(19,615,c),
(141,504,l),
(141,194,l)
);
}
);
width = 590;
},
{
layerId = "350FB24F-9799-4386-8190-3779153A0BBC";
shapes = (
{
closed = 1;
nodes = (
(440,-12,o),
(536,71,o),
(536,186,cs),
(536,285,o),
(458,336,o),
(388,352,c),
(459,373,o),
(521,425,o),
(521,513,cs),
(521,623,o),
(425,699,o),
(294,699,cs),
(187,699,o),
(111,647,o),
(59,578,c),
(111,531,l),
(160,590,o),
(214,628,o),
(290,628,cs),
(376,628,o),
(442,576,o),
(442,504,cs),
(442,426,o),
(373,382,o),
(281,383,cs),
(207,384,l),
(207,312,l),
(280,312,ls),
(388,312,o),
(457,271,o),
(457,190,cs),
(457,112,o),
(393,59,o),
(297,59,cs),
(213,59,o),
(146,99,o),
(101,157,c),
(47,106,l),
(97,40,o),
(184,-12,o),
(297,-12,cs)
);
}
);
width = 590;
},
{
layerId = "8CCB427F-D0B4-43D7-A922-FB400ACA0E33";
associatedMasterId = "322D7814-E247-4B41-B6CA-DFE314F8ECB2";
name = bubble;
shapes = (
{
closed = 1;
nodes = (
(15,70,l),
(94,-31,o),
(190,-83,o),
(302,-83,cs),
(459,-83,o),
(591,39,o),
(591,187,cs),
(591,256,o),
(567,315,o),
(525,358,c),
(558,399,o),
(576,452,o),
(576,511,cs),
(576,653,o),
(450,770,o),
(299,770,cs),
(193,770,o),
(100,718,o),
(21,616,c),
(145,506,l),
(145,195,l)
);
}
);
width = 591;
},
{
layerId = "322D7814-E247-4B41-B6CA-DFE314F8ECB2";
shapes = (
{
closed = 1;
nodes = (
(420,-12,o),
(520,79,o),
(520,187,cs),
(520,272,o),
(473,334,o),
(393,352,c),
(463,373,o),
(505,432,o),
(505,511,cs),
(505,613,o),
(411,699,o),
(299,699,cs),
(214,699,o),
(141,656,o),
(75,568,c),
(102,544,l),
(158,624,o),
(222,663,o),
(295,663,cs),
(389,663,o),
(469,592,o),
(469,507,cs),
(469,418,o),
(401,366,o),
(286,366,cs),
(223,366,l),
(223,330,l),
(285,330,ls),
(410,330,o),
(484,278,o),
(484,189,cs),
(484,99,o),
(401,24,o),
(302,24,cs),
(215,24,o),
(146,64,o),
(93,145,c),
(67,120,l),
(134,31,o),
(211,-12,o),
(302,-12,cs)
);
}
);
width = 591;
}
);
unicode = 51;
},
